  0
SECTION
  2
HEADER
  9
$ACADVER
  1
AC1015
  9
$ACADMAINTVER
 70
     6
  9
$DWGCODEPAGE
  3
ANSI_1252
  9
$INSBASE
 10
0.0
 20
0.0
 30
0.0
  9
$EXTMIN
 10
-14.75
 20
-15.73
 30
0.0
  9
$EXTMAX
 10
-8.25
 20
4.175
 30
0.0
  9
$LIMMIN
 10
0.0
 20
0.0
  9
$LIMMAX
 10
12.0
 20
9.0
  9
$ORTHOMODE
 70
     0
  9
$REGENMODE
 70
     1
  9
$FILLMODE
 70
     1
  9
$QTEXTMODE
 70
     0
  9
$MIRRTEXT
 70
     1
  9
$LTSCALE
 40
1.0
  9
$ATTMODE
 70
     1
  9
$TEXTSIZE
 40
0.1377952756
  9
$TRACEWID
 40
0.05
  9
$TEXTSTYLE
  7
Standard
  9
$CLAYER
  8
0
  9
$CELTYPE
  6
ByLayer
  9
$CECOLOR
 62
   256
  9
$CELTSCALE
 40
1.0
  9
$DISPSILH
 70
     0
  9
$DIMSCALE
 40
1.0
  9
$DIMASZ
 40
0.13
  9
$DIMEXO
 40
0.0393700787
  9
$DIMDLI
 40
0.38
  9
$DIMRND
 40
0.0
  9
$DIMDLE
 40
0.0
  9
$DIMEXE
 40
0.0393700787
  9
$DIMTP
 40
0.0
  9
$DIMTM
 40
0.0
  9
$DIMTXT
 40
0.1377952756
  9
$DIMCEN
 40
0.09
  9
$DIMTSZ
 40
0.0
  9
$DIMTOL
 70
     0
  9
$DIMLIM
 70
     0
  9
$DIMTIH
 70
     1
  9
$DIMTOH
 70
     1
  9
$DIMSE1
 70
     0
  9
$DIMSE2
 70
     0
  9
$DIMTAD
 70
     1
  9
$DIMZIN
 70
     0
  9
$DIMBLK
  1

  9
$DIMASO
 70
     1
  9
$DIMSHO
 70
     1
  9
$DIMPOST
  1

  9
$DIMAPOST
  1

  9
$DIMALT
 70
     0
  9
$DIMALTD
 70
     2
  9
$DIMALTF
 40
25.4
  9
$DIMLFAC
 40
1.0
  9
$DIMTOFL
 70
     0
  9
$DIMTVP
 40
0.0
  9
$DIMTIX
 70
     0
  9
$DIMSOXD
 70
     0
  9
$DIMSAH
 70
     0
  9
$DIMBLK1
  1

  9
$DIMBLK2
  1

  9
$DIMSTYLE
  2
Standard
  9
$DIMCLRD
 70
     0
  9
$DIMCLRE
 70
     0
  9
$DIMCLRT
 70
     0
  9
$DIMTFAC
 40
1.0
  9
$DIMGAP
 40
0.06
  9
$DIMJUST
 70
     0
  9
$DIMSD1
 70
     0
  9
$DIMSD2
 70
     0
  9
$DIMTOLJ
 70
     1
  9
$DIMTZIN
 70
     0
  9
$DIMALTZ
 70
     0
  9
$DIMALTTZ
 70
     0
  9
$DIMUPT
 70
     0
  9
$DIMDEC
 70
     3
  9
$DIMTDEC
 70
     3
  9
$DIMALTU
 70
     2
  9
$DIMALTTD
 70
     2
  9
$DIMTXSTY
  7
Standard
  9
$DIMAUNIT
 70
     0
  9
$DIMADEC
 70
     3
  9
$DIMALTRND
 40
0.0
  9
$DIMAZIN
 70
     0
  9
$DIMDSEP
 70
    46
  9
$DIMATFIT
 70
     3
  9
$DIMFRAC
 70
     0
  9
$DIMLDRBLK
  1

  9
$DIMLUNIT
 70
     2
  9
$DIMLWD
 70
    -2
  9
$DIMLWE
 70
    -2
  9
$DIMTMOVE
 70
     0
  9
$LUNITS
 70
     2
  9
$LUPREC
 70
     3
  9
$SKETCHINC
 40
0.1
  9
$FILLETRAD
 40
0.5
  9
$AUNITS
 70
     0
  9
$AUPREC
 70
     3
  9
$MENU
  1
.
  9
$ELEVATION
 40
0.0
  9
$PELEVATION
 40
0.0
  9
$THICKNESS
 40
0.0
  9
$LIMCHECK
 70
     0
  9
$CHAMFERA
 40
0.0
  9
$CHAMFERB
 40
0.0
  9
$CHAMFERC
 40
0.0
  9
$CHAMFERD
 40
0.0
  9
$SKPOLY
 70
     0
  9
$TDCREATE
 40
2457429.632081829
  9
$TDUCREATE
 40
2457429.965415162
  9
$TDUPDATE
 40
2457429.632664525
  9
$TDUUPDATE
 40
2457429.965997859
  9
$TDINDWG
 40
0.0000000116
  9
$TDUSRTIMER
 40
0.0000000116
  9
$USRTIMER
 70
     1
  9
$ANGBASE
 50
0.0
  9
$ANGDIR
 70
     0
  9
$PDMODE
 70
     0
  9
$PDSIZE
 40
-1.0
  9
$PLINEWID
 40
0.0
  9
$SPLFRAME
 70
     0
  9
$SPLINETYPE
 70
     6
  9
$SPLINESEGS
 70
     8
  9
$HANDSEED
  5
1E7
  9
$SURFTAB1
 70
     6
  9
$SURFTAB2
 70
     6
  9
$SURFTYPE
 70
     6
  9
$SURFU
 70
     6
  9
$SURFV
 70
     6
  9
$UCSBASE
  2

  9
$UCSNAME
  2

  9
$UCSORG
 10
0.0
 20
0.0
 30
0.0
  9
$UCSXDIR
 10
1.0
 20
0.0
 30
0.0
  9
$UCSYDIR
 10
0.0
 20
1.0
 30
0.0
  9
$UCSORTHOREF
  2

  9
$UCSORTHOVIEW
 70
     0
  9
$UCSORGTOP
 10
0.0
 20
0.0
 30
0.0
  9
$UCSORGBOTTOM
 10
0.0
 20
0.0
 30
0.0
  9
$UCSORGLEFT
 10
0.0
 20
0.0
 30
0.0
  9
$UCSORGRIGHT
 10
0.0
 20
0.0
 30
0.0
  9
$UCSORGFRONT
 10
0.0
 20
0.0
 30
0.0
  9
$UCSORGBACK
 10
0.0
 20
0.0
 30
0.0
  9
$PUCSBASE
  2

  9
$PUCSNAME
  2

  9
$PUCSORG
 10
0.0
 20
0.0
 30
0.0
  9
$PUCSXDIR
 10
1.0
 20
0.0
 30
0.0
  9
$PUCSYDIR
 10
0.0
 20
1.0
 30
0.0
  9
$PUCSORTHOREF
  2

  9
$PUCSORTHOVIEW
 70
     0
  9
$PUCSORGTOP
 10
0.0
 20
0.0
 30
0.0
  9
$PUCSORGBOTTOM
 10
0.0
 20
0.0
 30
0.0
  9
$PUCSORGLEFT
 10
0.0
 20
0.0
 30
0.0
  9
$PUCSORGRIGHT
 10
0.0
 20
0.0
 30
0.0
  9
$PUCSORGFRONT
 10
0.0
 20
0.0
 30
0.0
  9
$PUCSORGBACK
 10
0.0
 20
0.0
 30
0.0
  9
$USERI1
 70
     0
  9
$USERI2
 70
     0
  9
$USERI3
 70
     0
  9
$USERI4
 70
     0
  9
$USERI5
 70
     0
  9
$USERR1
 40
0.0
  9
$USERR2
 40
0.0
  9
$USERR3
 40
0.0
  9
$USERR4
 40
0.0
  9
$USERR5
 40
0.0
  9
$WORLDVIEW
 70
     1
  9
$SHADEDGE
 70
     3
  9
$SHADEDIF
 70
    70
  9
$TILEMODE
 70
     1
  9
$MAXACTVP
 70
    64
  9
$PINSBASE
 10
0.0
 20
0.0
 30
0.0
  9
$PLIMCHECK
 70
     0
  9
$PEXTMIN
 10
1.0000000000E+20
 20
1.0000000000E+20
 30
1.0000000000E+20
  9
$PEXTMAX
 10
-1.0000000000E+20
 20
-1.0000000000E+20
 30
-1.0000000000E+20
  9
$PLIMMIN
 10
0.0
 20
0.0
  9
$PLIMMAX
 10
12.0
 20
9.0
  9
$UNITMODE
 70
     0
  9
$VISRETAIN
 70
     1
  9
$PLINEGEN
 70
     0
  9
$PSLTSCALE
 70
     1
  9
$TREEDEPTH
 70
  3020
  9
$CMLSTYLE
  2
Standard
  9
$CMLJUST
 70
     0
  9
$CMLSCALE
 40
1.0
  9
$PROXYGRAPHICS
 70
     1
  9
$MEASUREMENT
 70
     0
  9
$CELWEIGHT
370
    -1
  9
$ENDCAPS
280
     0
  9
$JOINSTYLE
280
     0
  9
$LWDISPLAY
290
     1
  9
$INSUNITS
 70
     1
  9
$HYPERLINKBASE
  1

  9
$STYLESHEET
  1

  9
$XEDIT
290
     1
  9
$CEPSNTYPE
380
     0
  9
$PSTYLEMODE
290
     1
  9
$FINGERPRINTGUID
  2
{A2E17EEA-B121-4A5C-B8F9-EEC87C24AB74}
  9
$VERSIONGUID
  2
{FAEB1C32-E019-11D5-929B-00C0DF256EC4}
  9
$EXTNAMES
290
     1
  9
$PSVPSCALE
 40
0.0
  9
$OLESTARTUP
290
     0
  0
ENDSEC
  0
SECTION
  2
CLASSES
  0
CLASS
  1
ACDBDICTIONARYWDFLT
  2
AcDbDictionaryWithDefault
  3
ObjectDBX Classes
 90
        0
280
     0
281
     0
  0
CLASS
  1
VISUALSTYLE
  2
AcDbVisualStyle
  3
ObjectDBX Classes
 90
     4095
280
     0
281
     0
  0
CLASS
  1
MATERIAL
  2
AcDbMaterial
  3
ObjectDBX Classes
 90
     1153
280
     0
281
     0
  0
CLASS
  1
SCALE
  2
AcDbScale
  3
ObjectDBX Classes
 90
     1153
280
     0
281
     0
  0
CLASS
  1
TABLESTYLE
  2
AcDbTableStyle
  3
ObjectDBX Classes
 90
     4095
280
     0
281
     0
  0
CLASS
  1
MLEADERSTYLE
  2
AcDbMLeaderStyle
  3
ACDB_MLEADERSTYLE_CLASS
 90
     4095
280
     0
281
     0
  0
CLASS
  1
SUN
  2
AcDbSun
  3
SCENEOE
 90
     1153
280
     0
281
     0
  0
CLASS
  1
ACDBPLACEHOLDER
  2
AcDbPlaceHolder
  3
ObjectDBX Classes
 90
        0
280
     0
281
     0
  0
CLASS
  1
LAYOUT
  2
AcDbLayout
  3
ObjectDBX Classes
 90
        0
280
     0
281
     0
  0
ENDSEC
  0
SECTION
  2
TABLES
  0
TABLE
  2
VPORT
  5
8
330
0
100
AcDbSymbolTable
 70
     1
  0
VPORT
  5
29
330
8
100
AcDbSymbolTableRecord
100
AcDbViewportTableRecord
  2
*Active
 70
     0
 10
0.0
 20
0.0
 11
1.0
 21
1.0
 12
-11.5
 22
-5.7775
 13
0.0
 23
0.0
 14
0.5
 24
0.5
 15
0.5
 25
0.5
 16
0.0
 26
0.0
 36
1.0
 17
0.0
 27
0.0
 37
0.0
 40
20.3031
 41
0.3265511178
 42
50.0
 43
0.0
 44
0.0
 50
0.0
 51
0.0
 71
     0
 72
   100
 73
     1
 74
     3
 75
     0
 76
     0
 77
     0
 78
     0
281
     0
 65
     1
110
0.0
120
0.0
130
0.0
111
1.0
121
0.0
131
0.0
112
0.0
122
1.0
132
0.0
 79
     0
146
0.0
  0
ENDTAB
  0
TABLE
  2
LTYPE
  5
5
330
0
100
AcDbSymbolTable
 70
     6
  0
LTYPE
  5
14
330
5
100
AcDbSymbolTableRecord
100
AcDbLinetypeTableRecord
  2
ByBlock
 70
     0
  3

 72
    65
 73
     0
 40
0.0
  0
LTYPE
  5
15
330
5
100
AcDbSymbolTableRecord
100
AcDbLinetypeTableRecord
  2
ByLayer
 70
     0
  3

 72
    65
 73
     0
 40
0.0
  0
LTYPE
  5
16
330
5
100
AcDbSymbolTableRecord
100
AcDbLinetypeTableRecord
  2
Continuous
 70
     0
  3
Solid line
 72
    65
 73
     0
 40
0.0
  0
LTYPE
  5
6E
330
5
100
AcDbSymbolTableRecord
100
AcDbLinetypeTableRecord
  2
HIDDEN
 70
     0
  3
Hidden __ __ __ __ __ __ __ __ __ __ __ __ __ __
 72
    65
 73
     2
 40
0.075
 49
0.05
 74
     0
 49
-0.025
 74
     0
  0
LTYPE
  5
6F
330
5
100
AcDbSymbolTableRecord
100
AcDbLinetypeTableRecord
  2
PHANTOM
 70
     0
  3
Phantom ______  __  __  ______  __  __  ______
 72
    65
 73
     6
 40
0.5
 49
0.25
 74
     0
 49
-0.05
 74
     0
 49
0.05
 74
     0
 49
-0.05
 74
     0
 49
0.05
 74
     0
 49
-0.05
 74
     0
  0
LTYPE
  5
70
330
5
100
AcDbSymbolTableRecord
100
AcDbLinetypeTableRecord
  2
CENTER
 70
     0
  3
Center ____ _ ____ _ ____ _ ____ _ ____ _ ____
 72
    65
 73
     4
 40
0.4
 49
0.25
 74
     0
 49
-0.05
 74
     0
 49
0.05
 74
     0
 49
-0.05
 74
     0
  0
LTYPE
  5
71
330
5
100
AcDbSymbolTableRecord
100
AcDbLinetypeTableRecord
  2
CENTERX2
 70
     0
  3
Center (2x) ________  __  ________  __  _____
 72
    65
 73
     4
 40
0.8
 49
0.5
 74
     0
 49
-0.1
 74
     0
 49
0.1
 74
     0
 49
-0.1
 74
     0
  0
LTYPE
  5
72
330
5
100
AcDbSymbolTableRecord
100
AcDbLinetypeTableRecord
  2
DOT2
 70
     0
  3
Dot (.5x) ........................................
 72
    65
 73
     2
 40
0.025
 49
0.0
 74
     0
 49
-0.025
 74
     0
  0
ENDTAB
  0
TABLE
  2
LAYER
  5
2
330
0
100
AcDbSymbolTable
 70
     1
  0
LAYER
  5
10
330
2
100
AcDbSymbolTableRecord
100
AcDbLayerTableRecord
  2
0
 70
     0
 62
     7
  6
Continuous
370
    -3
390
F
  0
ENDTAB
  0
TABLE
  2
STYLE
  5
3
330
0
100
AcDbSymbolTable
 70
     2
  0
STYLE
  5
11
330
3
100
AcDbSymbolTableRecord
100
AcDbTextStyleTableRecord
  2
Standard
 70
     0
 40
0.0
 41
1.0
 50
0.0
 71
     0
 42
0.1377952756
  3
txt
  4

  0
STYLE
  5
1E4
330
3
100
AcDbSymbolTableRecord
100
AcDbTextStyleTableRecord
  2
SLDTEXTSTYLE0
 70
     0
 40
0.0
 41
0.7
 50
0.0
 71
     0
 42
0.1377952756
  3
TXT
  4

  0
ENDTAB
  0
TABLE
  2
VIEW
  5
6
330
0
100
AcDbSymbolTable
 70
     0
  0
ENDTAB
  0
TABLE
  2
UCS
  5
7
330
0
100
AcDbSymbolTable
 70
     0
  0
ENDTAB
  0
TABLE
  2
APPID
  5
9
330
0
100
AcDbSymbolTable
 70
     1
  0
APPID
  5
12
330
9
100
AcDbSymbolTableRecord
100
AcDbRegAppTableRecord
  2
ACAD
 70
     0
  0
ENDTAB
  0
TABLE
  2
DIMSTYLE
  5
A
330
0
100
AcDbSymbolTable
 70
     1
100
AcDbDimStyleTable
  0
DIMSTYLE
105
27
330
A
100
AcDbSymbolTableRecord
100
AcDbDimStyleTableRecord
  2
Standard
 70
     0
178
     0
340
11
  0
ENDTAB
  0
TABLE
  2
BLOCK_RECORD
  5
1
330
0
100
AcDbSymbolTable
 70
     1
  0
BLOCK_RECORD
  5
1F
330
1
100
AcDbSymbolTableRecord
100
AcDbBlockTableRecord
  2
*Model_Space
340
22
  0
BLOCK_RECORD
  5
1B
330
1
100
AcDbSymbolTableRecord
100
AcDbBlockTableRecord
  2
*Paper_Space
340
1E
  0
BLOCK_RECORD
  5
23
330
1
100
AcDbSymbolTableRecord
100
AcDbBlockTableRecord
  2
*Paper_Space0
340
26
  0
ENDTAB
  0
ENDSEC
  0
SECTION
  2
BLOCKS
  0
BLOCK
  5
20
330
1F
100
AcDbEntity
  8
0
100
AcDbBlockBegin
  2
*Model_Space
 70
     0
 10
0.0
 20
0.0
 30
0.0
  3
*Model_Space
  1

  0
ENDBLK
  5
21
330
1F
100
AcDbEntity
  8
0
100
AcDbBlockEnd
  0
BLOCK
  5
1C
330
1B
100
AcDbEntity
 67
     1
  8
0
100
AcDbBlockBegin
  2
*Paper_Space
 70
     0
 10
0.0
 20
0.0
 30
0.0
  3
*Paper_Space
  1

  0
ENDBLK
  5
1D
330
1B
100
AcDbEntity
 67
     1
  8
0
100
AcDbBlockEnd
  0
BLOCK
  5
24
330
23
100
AcDbEntity
  8
0
100
AcDbBlockBegin
  2
*Paper_Space0
 70
     0
 10
0.0
 20
0.0
 30
0.0
  3
*Paper_Space0
  1

  0
ENDBLK
  5
25
330
23
100
AcDbEntity
  8
0
100
AcDbBlockEnd
  0
ENDSEC
  0
SECTION
  2
ENTITIES
  0
CIRCLE
  5
B8
330
1F
100
AcDbEntity
  8
0
  6
Continuous
 62
     7
370
    15
100
AcDbCircle
 10
-10.5
 20
-13.665
 30
0.0
 40
0.0750000000000028
  0
CIRCLE
  5
B9
330
1F
100
AcDbEntity
  8
0
  6
Continuous
 62
     7
370
    15
100
AcDbCircle
 10
-8.62
 20
-13.665
 30
0.0
 40
0.0750000000000011
  0
CIRCLE
  5
BA
330
1F
100
AcDbEntity
  8
0
  6
Continuous
 62
     7
370
    15
100
AcDbCircle
 10
-8.62
 20
-15.36
 30
0.0
 40
0.0749999999999993
  0
CIRCLE
  5
BB
330
1F
100
AcDbEntity
  8
0
  6
Continuous
 62
     7
370
    15
100
AcDbCircle
 10
-10.5
 20
-15.36
 30
0.0
 40
0.0749999999999993
  0
CIRCLE
  5
BC
330
1F
100
AcDbEntity
  8
0
  6
Continuous
 62
     7
370
    15
100
AcDbCircle
 10
-12.7649199253
 20
-12.8560130565
 30
0.0
 40
0.1050000000000004
  0
CIRCLE
  5
BD
330
1F
100
AcDbEntity
  8
0
  6
Continuous
 62
     7
370
    15
100
AcDbCircle
 10
-8.6549199254
 20
-12.8560130565
 30
0.0
 40
0.1049999999999986
  0
CIRCLE
  5
BE
330
1F
100
AcDbEntity
  8
0
  6
Continuous
 62
     7
370
    15
100
AcDbCircle
 10
-8.6549199254
 20
-5.6102968446
 30
0.0
 40
0.1050000000000022
  0
CIRCLE
  5
BF
330
1F
100
AcDbEntity
  8
0
  6
Continuous
 62
     7
370
    15
100
AcDbCircle
 10
-12.7649199253
 20
-5.6102968446
 30
0.0
 40
0.1050000000000004
  0
CIRCLE
  5
C0
330
1F
100
AcDbEntity
  8
0
  6
Continuous
 62
     7
370
    15
100
AcDbCircle
 10
-12.7098354403
 20
-4.8224220843
 30
0.0
 40
0.1005000000000011
  0
CIRCLE
  5
C1
330
1F
100
AcDbEntity
  8
0
  6
Continuous
 62
     7
370
    15
100
AcDbCircle
 10
-11.2829699664
 20
-4.8224220843
 30
0.0
 40
0.1005000000000011
  0
CIRCLE
  5
C2
330
1F
100
AcDbEntity
  8
0
  6
Continuous
 62
     7
370
    15
100
AcDbCircle
 10
-11.2829699664
 20
-2.3110167869
 30
0.0
 40
0.1005000000000011
  0
CIRCLE
  5
C3
330
1F
100
AcDbEntity
  8
0
  6
Continuous
 62
     7
370
    15
100
AcDbCircle
 10
-12.7098354403
 20
-2.3110167869
 30
0.0
 40
0.100500000000002
  0
CIRCLE
  5
C4
330
1F
100
AcDbEntity
  8
0
  6
Continuous
 62
     7
370
    15
100
AcDbCircle
 10
-8.7101645597
 20
-4.8224220843
 30
0.0
 40
0.100500000000002
  0
CIRCLE
  5
C5
330
1F
100
AcDbEntity
  8
0
  6
Continuous
 62
     7
370
    15
100
AcDbCircle
 10
-10.1370300336
 20
-4.8224220843
 30
0.0
 40
0.1004999999999985
  0
CIRCLE
  5
C6
330
1F
100
AcDbEntity
  8
0
  6
Continuous
 62
     7
370
    15
100
AcDbCircle
 10
-10.1370300336
 20
-2.3110167869
 30
0.0
 40
0.1004999999999994
  0
CIRCLE
  5
C7
330
1F
100
AcDbEntity
  8
0
  6
Continuous
 62
     7
370
    15
100
AcDbCircle
 10
-8.7101645597
 20
-2.3110167869
 30
0.0
 40
0.1005000000000016
  0
CIRCLE
  5
C8
330
1F
100
AcDbEntity
  8
0
  6
Continuous
 62
     7
370
    15
100
AcDbCircle
 10
-8.825
 20
-0.57
 30
0.0
 40
0.1250000000000019
  0
CIRCLE
  5
C9
330
1F
100
AcDbEntity
  8
0
  6
Continuous
 62
     7
370
    15
100
AcDbCircle
 10
-9.975
 20
1.83
 30
0.0
 40
0.1249999999999991
  0
CIRCLE
  5
CA
330
1F
100
AcDbEntity
  8
0
  6
Continuous
 62
     7
370
    15
100
AcDbCircle
 10
-11.2829699664
 20
1.8824220843
 30
0.0
 40
0.1005000000000018
  0
CIRCLE
  5
CB
330
1F
100
AcDbEntity
  8
0
  6
Continuous
 62
     7
370
    15
100
AcDbCircle
 10
-12.7098354403
 20
1.8824220843
 30
0.0
 40
0.100500000000002
  0
CIRCLE
  5
CC
330
1F
100
AcDbEntity
  8
0
  6
Continuous
 62
     7
370
    15
100
AcDbCircle
 10
-12.7098354403
 20
-0.6289832131
 30
0.0
 40
0.1005000000000021
  0
CIRCLE
  5
CD
330
1F
100
AcDbEntity
  8
0
  6
Continuous
 62
     7
370
    15
100
AcDbCircle
 10
-11.2829699664
 20
-0.6289832131
 30
0.0
 40
0.1005000000000017
  0
CIRCLE
  5
CE
330
1F
100
AcDbEntity
  8
0
  6
Continuous
 62
     7
370
    15
100
AcDbCircle
 10
-12.8920194786
 20
3.1125
 30
0.0
 40
0.0429999999999997
  0
CIRCLE
  5
CF
330
1F
100
AcDbEntity
  8
0
  6
Continuous
 62
     7
370
    15
100
AcDbCircle
 10
-10.5480194786
 20
3.1125
 30
0.0
 40
0.0429999999999993
  0
SPLINE
  5
F0
330
1F
100
AcDbEntity
  8
0
  6
Continuous
 62
     7
370
    15
100
AcDbSpline
210
0.0
220
0.0
230
1.0
 70
     8
 71
     3
 72
    30
 73
    26
 74
     0
 42
0.000000001
 43
0.00000001
 40
0.0
 40
0.0
 40
0.0
 40
0.0
 40
0.0935491426050705
 40
0.1329975243244701
 40
0.1859888546166574
 40
0.2460738932451218
 40
0.261459921894111
 40
0.2719588432316437
 40
0.2888410201007944
 40
0.3122724741803425
 40
0.3479502923285303
 40
0.3840395603436343
 40
0.4078684278634547
 40
0.5019571506617586
 40
0.5815853431321322
 40
0.6224183965247168
 40
0.6541967870127204
 40
0.6823871018412705
 40
0.7031130673594582
 40
0.7395356059630503
 40
0.7696837433947102
 40
0.8146640280975049
 40
0.8688519213089503
 40
0.9055562871973034
 40
1.0
 40
1.0
 40
1.0
 40
1.0
 10
-10.98732311650278
 20
-10.89539157503341
 30
0.0
 10
-10.98395943037688
 20
-10.94795136006855
 30
0.0
 10
-10.97792041108069
 20
-11.033083427815
 30
0.0
 10
-11.04307649854948
 20
-11.12093584331839
 30
0.0
 10
-11.10323825994523
 20
-11.18797837856522
 30
0.0
 10
-11.13974192059153
 20
-11.24495406133524
 30
0.0
 10
-11.17793333632843
 20
-11.29000714633072
 30
0.0
 10
-11.15928802121783
 20
-11.31227757893054
 30
0.0
 10
-11.13113204926896
 20
-11.32013083740707
 30
0.0
 10
-11.08955688201595
 20
-11.33515744442758
 30
0.0
 10
-11.03486236747112
 20
-11.34338930123209
 30
0.0
 10
-10.98052757491651
 20
-11.35384892255012
 30
0.0
 10
-10.89192835621559
 20
-11.36447438198164
 30
0.0
 10
-10.77710890539699
 20
-11.36617232965558
 30
0.0
 10
-10.65354189322271
 20
-11.36308200031096
 30
0.0
 10
-10.56503066210293
 20
-11.34364141438947
 30
0.0
 10
-10.51474057788498
 20
-11.32511333883196
 30
0.0
 10
-10.45751081035952
 20
-11.30515291282942
 30
0.0
 10
-10.48115901349757
 20
-11.25019066958233
 30
0.0
 10
-10.51157386803487
 20
-11.21402937616742
 30
0.0
 10
-10.55267307432372
 20
-11.1629906494561
 30
0.0
 10
-10.60114082268046
 20
-11.10623231880839
 30
0.0
 10
-10.63509954153671
 20
-11.03300998812535
 30
0.0
 10
-10.64845281886502
 20
-10.9261376427202
 30
0.0
 10
-10.63525455390362
 20
-10.84775648244437
 30
0.0
 10
-10.6287018762557
 20
-10.79573424785395
 30
0.0
  0
SPLINE
  5
F1
330
1F
100
AcDbEntity
  8
0
  6
Continuous
 62
     7
370
    15
100
AcDbSpline
210
0.0
220
0.0
230
1.0
 70
     8
 71
     3
 72
    42
 73
    38
 74
     0
 42
0.000000001
 43
0.00000001
 40
0.0
 40
0.0
 40
0.0
 40
0.0
 40
0.0444656238172769
 40
0.0661094622317942
 40
0.0762675763003976
 40
0.0874035457815892
 40
0.0956986369931156
 40
0.110146753009434
 40
0.1279250986259395
 40
0.1483484752852428
 40
0.1673809677306872
 40
0.2026722022831546
 40
0.2152427184104956
 40
0.2541030198908358
 40
0.2894236620441809
 40
0.3554354091744682
 40
0.4183432486089796
 40
0.4851613914402128
 40
0.5064071105227106
 40
0.5614508854156831
 40
0.6016543548234805
 40
0.642290700237776
 40
0.6467794162411896
 40
0.6869344862010713
 40
0.7158219709072786
 40
0.7436866209147744
 40
0.7676918697142951
 40
0.7913924395474281
 40
0.8306394101640583
 40
0.8594400180333128
 40
0.8911611929277136
 40
0.9038731134548531
 40
0.9184414040390263
 40
0.9385564024120898
 40
0.9680713512146835
 40
0.9937249359741085
 40
1.0
 40
1.0
 40
1.0
 40
1.0
 10
-10.6287018762557
 20
-10.79573424785395
 30
0.0
 10
-10.61727871469606
 20
-10.70504484996955
 30
0.0
 10
-10.60792898786241
 20
-10.63802132797574
 30
0.0
 10
-10.61040378841728
 20
-10.56180556552398
 30
0.0
 10
-10.61518707788992
 20
-10.5067503998715
 30
0.0
 10
-10.62774966465453
 20
-10.4686609371761
 30
0.0
 10
-10.63036427397765
 20
-10.42942034764507
 30
0.0
 10
-10.61758612527144
 20
-10.37755291669362
 30
0.0
 10
-10.59299965484226
 20
-10.31651911263145
 30
0.0
 10
-10.57853568972743
 20
-10.24511824639625
 30
0.0
 10
-10.5696582239122
 20
-10.15115470732016
 30
0.0
 10
-10.55014344623268
 20
-10.06913723411631
 30
0.0
 10
-10.54029288624519
 20
-9.95867880046496
 30
0.0
 10
-10.53160567796922
 20
-9.86296160972305
 30
0.0
 10
-10.51833042713901
 20
-9.639067278128227
 30
0.0
 10
-10.51227853057616
 20
-9.475837199252068
 30
0.0
 10
-10.52162939606311
 20
-9.222642041326038
 30
0.0
 10
-10.55347489061873
 20
-9.01247390522316
 30
0.0
 10
-10.4479907412053
 20
-8.877921505956383
 30
0.0
 10
-10.44958419669271
 20
-8.679372407009641
 30
0.0
 10
-10.42463169928126
 20
-8.46852548198479
 30
0.0
 10
-10.37210158472216
 20
-8.450007857456301
 30
0.0
 10
-10.28942606251371
 20
-8.37752185768827
 30
0.0
 10
-10.21896545530809
 20
-8.329180819050391
 30
0.0
 10
-10.1147653385917
 20
-8.25495451326562
 30
0.0
 10
-10.02028499708667
 20
-8.201981761165616
 30
0.0
 10
-9.928041040200133
 20
-8.148507016949365
 30
0.0
 10
-9.853521236798347
 20
-8.110394678242825
 30
0.0
 10
-9.747308021742061
 20
-8.045692461615351
 30
0.0
 10
-9.647753542766036
 20
-7.968820430232867
 30
0.0
 10
-9.58096237148718
 20
-7.912423355567255
 30
0.0
 10
-9.502719294875074
 20
-7.87552479714256
 30
0.0
 10
-9.422921522092143
 20
-7.84336786280525
 30
0.0
 10
-9.37346396340033
 20
-7.792438209055882
 30
0.0
 10
-9.324590403491724
 20
-7.7584268711808
 30
0.0
 10
-9.296472677154776
 20
-7.704200597488256
 30
0.0
 10
-9.232223351500203
 20
-7.662550190232027
 30
0.0
 10
-9.250465918412093
 20
-7.654888282744174
 30
0.0
  0
SPLINE
  5
F2
330
1F
100
AcDbEntity
  8
0
  6
Continuous
 62
     7
370
    15
100
AcDbSpline
210
0.0
220
0.0
230
1.0
 70
     8
 71
     3
 72
    29
 73
    25
 74
     0
 42
0.000000001
 43
0.00000001
 40
0.0
 40
0.0
 40
0.0
 40
0.0
 40
0.1246319375425378
 40
0.1701353523877296
 40
0.2349081368005226
 40
0.2929960227784825
 40
0.3293879410238693
 40
0.3823522085706582
 40
0.4191975243953745
 40
0.4529958649942495
 40
0.4742308303013256
 40
0.50694203677706
 40
0.5237117260609951
 40
0.6200561184682026
 40
0.6453568793157642
 40
0.6835065333712526
 40
0.710086198007139
 40
0.7404375595484997
 40
0.844545539958892
 40
0.9114218619506834
 40
0.9499308167225428
 40
0.9688706352704228
 40
0.9849527004235152
 40
1.0
 40
1.0
 40
1.0
 40
1.0
 10
-9.250465918412091
 20
-7.654888282744174
 30
0.0
 10
-9.298056147091977
 20
-7.634900310040982
 30
0.0
 10
-9.6081894292695
 20
-7.827228907530902
 30
0.0
 10
-9.826388997148138
 20
-7.948213554640239
 30
0.0
 10
-10.02631875711504
 20
-7.999677792420988
 30
0.0
 10
-10.18837821141906
 20
-8.09393114015708
 30
0.0
 10
-10.31769170748007
 20
-8.214451873440813
 30
0.0
 10
-10.46873493781998
 20
-8.243469457970262
 30
0.0
 10
-10.59683393045527
 20
-8.312357321478418
 30
0.0
 10
-10.69389970079112
 20
-8.359900402303307
 30
0.0
 10
-10.77615870196564
 20
-8.424915254658588
 30
0.0
 10
-10.8726888480648
 20
-8.419151895917521
 30
0.0
 10
-11.0024654583772
 20
-8.304813307384265
 30
0.0
 10
-11.16303559851433
 20
-8.25555397126171
 30
0.0
 10
-11.33359811983543
 20
-8.17801419945445
 30
0.0
 10
-11.42734396277557
 20
-8.126906414037704
 30
0.0
 10
-11.50957862920485
 20
-8.049625456101088
 30
0.0
 10
-11.68339892636351
 20
-7.970202588119331
 30
0.0
 10
-11.91984722470765
 20
-7.916905163291931
 30
0.0
 10
-12.11205632060102
 20
-7.76006049172645
 30
0.0
 10
-12.25363573209912
 20
-7.704100161695252
 30
0.0
 10
-12.3236533371508
 20
-7.670614459917511
 30
0.0
 10
-12.39950233913766
 20
-7.641160325804072
 30
0.0
 10
-12.39254239481573
 20
-7.666238284209876
 30
0.0
 10
-12.3612984165185
 20
-7.698788720722564
 30
0.0
  0
SPLINE
  5
F3
330
1F
100
AcDbEntity
  8
0
  6
Continuous
 62
     7
370
    15
100
AcDbSpline
210
0.0
220
0.0
230
1.0
 70
     8
 71
     3
 72
    33
 73
    29
 74
     0
 42
0.000000001
 43
0.00000001
 40
0.0
 40
0.0
 40
0.0
 40
0.0
 40
0.0233026424011254
 40
0.0337724641650701
 40
0.0455833856484173
 40
0.0884220189088244
 40
0.1040946283260914
 40
0.1068628563195927
 40
0.1150774718966992
 40
0.1225680667404309
 40
0.1742782099131778
 40
0.1820855788653581
 40
0.19417798836564
 40
0.2181289524325664
 40
0.2410095795071785
 40
0.2659618043719693
 40
0.2961627171068988
 40
0.3123417636691582
 40
0.3264501328338389
 40
0.3549643635918543
 40
0.4332476957744149
 40
0.504607676963473
 40
0.6118498877527877
 40
0.6263051125669703
 40
0.6491599251052984
 40
0.6993671328106003
 40
0.7366863228784923
 40
1.0
 40
1.0
 40
1.0
 40
1.0
 10
-12.3612984165185
 20
-7.698788720722564
 30
0.0
 10
-12.32300055627349
 20
-7.73868799528414
 30
0.0
 10
-12.24084750860223
 20
-7.832218591090478
 30
0.0
 10
-12.11522087410045
 20
-7.885005746836496
 30
0.0
 10
-11.94600847307626
 20
-7.989460199254887
 30
0.0
 10
-11.78260798311752
 20
-8.13476624160759
 30
0.0
 10
-11.60693634184173
 20
-8.195458567557194
 30
0.0
 10
-11.53884398875654
 20
-8.24426911842049
 30
0.0
 10
-11.50643289511527
 20
-8.266246935771377
 30
0.0
 10
-11.35734408145147
 20
-8.37523686095636
 30
0.0
 10
-11.34299277137024
 20
-8.368574231264311
 30
0.0
 10
-11.26020767174577
 20
-8.440181392535015
 30
0.0
 10
-11.21770878618932
 20
-8.492172262664248
 30
0.0
 10
-11.19722217719021
 20
-8.581870678084696
 30
0.0
 10
-11.19028057630348
 20
-8.690094911286486
 30
0.0
 10
-11.18154976711943
 20
-8.80526181722203
 30
0.0
 10
-11.17970129198585
 20
-8.92330845044009
 30
0.0
 10
-11.09366683858636
 20
-8.98144454088693
 30
0.0
 10
-11.10737887536579
 20
-9.078040959320417
 30
0.0
 10
-11.12220147713703
 20
-9.248291804018962
 30
0.0
 10
-11.11656359599049
 20
-9.526463731678804
 30
0.0
 10
-11.09454385501971
 20
-9.928201150708022
 30
0.0
 10
-11.07855022320561
 20
-10.15187721537259
 30
0.0
 10
-11.02297887116251
 20
-10.35143670579493
 30
0.0
 10
-11.01481435268124
 20
-10.3817774876408
 30
0.0
 10
-11.00674912592074
 20
-10.46463431188877
 30
0.0
 10
-11.02309361260084
 20
-10.5263313884096
 30
0.0
 10
-11.00858577978299
 20
-10.68131991840454
 30
0.0
 10
-10.98732311650278
 20
-10.89539157503341
 30
0.0
  0
SPLINE
  5
108
330
1F
100
AcDbEntity
  8
0
  6
Continuous
 62
     7
370
    15
100
AcDbSpline
210
0.0
220
0.0
230
1.0
 70
     8
 71
     3
 72
     9
 73
     5
 74
     0
 42
0.000000001
 43
0.00000001
 40
0.0
 40
0.0
 40
0.0
 40
0.0
 40
0.4082617144872642
 40
1.0
 40
1.0
 40
1.0
 40
1.0
 10
-9.841452538968436
 20
-11.05588775241435
 30
0.0
 10
-9.84175008185787
 20
-11.05812675215704
 30
0.0
 10
-9.838771391190315
 20
-11.0737499975998
 30
0.0
 10
-9.831954875310725
 20
-11.09357104278244
 30
0.0
 10
-9.82481757779836
 20
-11.09006486636997
 30
0.0
  0
SPLINE
  5
10B
330
1F
100
AcDbEntity
  8
0
  6
Continuous
 62
     7
370
    15
100
AcDbSpline
210
0.0
220
0.0
230
1.0
 70
     8
 71
     3
 72
    57
 73
    53
 74
     0
 42
0.000000001
 43
0.00000001
 40
0.0044987138104896
 40
0.0044987138104896
 40
0.0044987138104896
 40
0.0044987138104896
 40
0.0117616654982834
 40
0.0348195865278435
 40
0.0538296608005216
 40
0.0759454239317624
 40
0.1016161387122589
 40
0.1316167887729822
 40
0.1720414596179775
 40
0.2149007656749669
 40
0.2472943426221964
 40
0.2741834368327643
 40
0.3120548346299577
 40
0.3707086797410321
 40
0.4148976722532038
 40
0.4738430970862729
 40
0.5177089755463109
 40
0.5630667116788746
 40
0.6163835725159947
 40
0.7062680330208088
 40
0.7521120699107703
 40
0.7550261710414784
 40
0.7596164593732871
 40
0.763781371054477
 40
0.7684411386839095
 40
0.7757520971351163
 40
0.7925949080157015
 40
0.7956544545229379
 40
0.8063475622074794
 40
0.8234004872828357
 40
0.8335761119201801
 40
0.8415403823165807
 40
0.8499928344115645
 40
0.8597529142522456
 40
0.8669082695132552
 40
0.8777828656778275
 40
0.8893953339999814
 40
0.8938824019340293
 40
0.9012713055393373
 40
0.9180621868085898
 40
0.9413062437979302
 40
0.9444179008043906
 40
0.9491787568731932
 40
0.9535272563554229
 40
0.9587466340189768
 40
0.9621891433911899
 40
0.9669999170046643
 40
0.973218160553088
 40
0.9816597347788889
 40
0.9884134541282463
 40
0.9954557911049401
 40
0.9968877388785546
 40
0.9968877388785546
 40
0.9968877388785546
 40
0.9968877388785546
 10
-9.414374053320737
 20
-10.82325267485944
 30
0.0
 10
-9.408121119025393
 20
-10.81493984248641
 30
0.0
 10
-9.422196502807678
 20
-10.8093824215301
 30
0.0
 10
-9.442817063877031
 20
-10.75943062447682
 30
0.0
 10
-9.49735244860539
 20
-10.77758192747646
 30
0.0
 10
-9.541435575531496
 20
-10.79726101935072
 30
0.0
 10
-9.598430827096998
 20
-10.81653437631094
 30
0.0
 10
-9.667786386091699
 20
-10.83731222703121
 30
0.0
 10
-9.76034791539812
 20
-10.83435409504034
 30
0.0
 10
-9.825366246961426
 20
-10.76752823882646
 30
0.0
 10
-9.870082643111745
 20
-10.70501595889422
 30
0.0
 10
-9.910036812257625
 20
-10.64253548722279
 30
0.0
 10
-9.95256585066248
 20
-10.55882162166539
 30
0.0
 10
-10.01105327908785
 20
-10.46882653959239
 30
0.0
 10
-10.06202821537785
 20
-10.35654762265886
 30
0.0
 10
-10.10168342763366
 20
-10.25192558665013
 30
0.0
 10
-10.16291644639432
 20
-10.15562914760973
 30
0.0
 10
-10.18289440088703
 20
-10.04760602420428
 30
0.0
 10
-10.21974149444598
 20
-9.909924919127487
 30
0.0
 10
-10.26109670977458
 20
-9.769058041783923
 30
0.0
 10
-10.30416712901745
 20
-9.677209041920547
 30
0.0
 10
-10.32574674600083
 20
-9.639527871932454
 30
0.0
 10
-10.33800449674105
 20
-9.642143101295881
 30
0.0
 10
-10.33895677515266
 20
-9.653318628503234
 30
0.0
 10
-10.34382098779212
 20
-9.664448445106768
 30
0.0
 10
-10.3481867616077
 20
-9.685741066802823
 30
0.0
 10
-10.34810907477259
 20
-9.686558992871989
 30
0.0
 10
-10.35058294831529
 20
-9.741733233392981
 30
0.0
 10
-10.35483175613911
 20
-9.795019526400376
 30
0.0
 10
-10.35743677554243
 20
-9.862067024917273
 30
0.0
 10
-10.36113375181524
 20
-9.92382951603896
 30
0.0
 10
-10.36411250391488
 20
-9.970534379653449
 30
0.0
 10
-10.36729814668796
 20
-10.01652104647792
 30
0.0
 10
-10.37524087639818
 20
-10.06055124308145
 30
0.0
 10
-10.37650132937447
 20
-10.10959634755057
 30
0.0
 10
-10.38372336580677
 20
-10.1609411998296
 30
0.0
 10
-10.38911766875489
 20
-10.20934707333577
 30
0.0
 10
-10.37371210185287
 20
-10.24915446795303
 30
0.0
 10
-10.33687236281887
 20
-10.28159702260638
 30
0.0
 10
-10.28937443890568
 20
-10.38376465400896
 30
0.0
 10
-10.29820233005382
 20
-10.35186787050438
 30
0.0
 10
-10.22521112710198
 20
-10.4788211328874
 30
0.0
 10
-10.2040231076301
 20
-10.53217166358426
 30
0.0
 10
-10.18620081606681
 20
-10.59813684609247
 30
0.0
 10
-10.14378365229519
 20
-10.64402755209706
 30
0.0
 10
-10.10438561382633
 20
-10.69320423383468
 30
0.0
 10
-10.06241442399752
 20
-10.74650138572032
 30
0.0
 10
-9.996651725130125
 20
-10.81213258675211
 30
0.0
 10
-9.93787704719977
 20
-10.88522154168397
 30
0.0
 10
-9.856369387072016
 20
-10.98203038164183
 30
0.0
 10
-9.867778578455967
 20
-11.00602535608894
 30
0.0
 10
-9.841290066634654
 20
-11.05466515383625
 30
0.0
 10
-9.841452538968436
 20
-11.05588775241435
 30
0.0
  0
SPLINE
  5
10C
330
1F
100
AcDbEntity
  8
0
  6
Continuous
 62
     7
370
    15
100
AcDbSpline
210
0.0
220
0.0
230
1.0
 70
    11
 71
     3
 72
    35
 73
    31
 74
     0
 42
0.000000001
 43
0.00000001
 40
0.0
 40
0.0
 40
0.0
 40
0.0
 40
0.0418229704701648
 40
0.0862168416916903
 40
0.115812755839374
 40
0.1389645969511134
 40
0.1735247884273571
 40
0.200162368581661
 40
0.2309963872290687
 40
0.2670636951579334
 40
0.3047129842818059
 40
0.3290220724693955
 40
0.3534109921357654
 40
0.3758027294472447
 40
0.4069424589578526
 40
0.4413270015876326
 40
0.4707648394282105
 40
0.4822475791581899
 40
0.5093826061532338
 40
0.5117064819616931
 40
0.5646800196027173
 40
0.6112590986222877
 40
0.6262939203218023
 40
0.7038080405297464
 40
0.7463302678851467
 40
0.7953564282603646
 40
0.8487620674497538
 40
0.9070987709743306
 40
0.9496832905416335
 40
1.0
 40
1.0
 40
1.0
 40
1.0
 10
-10.99458681803047
 20
-7.853024670387025
 30
0.0
 10
-11.00020703220812
 20
-7.872644681725106
 30
0.0
 10
-11.00215276601331
 20
-7.915524246127726
 30
0.0
 10
-11.00139115080905
 20
-7.971932229707211
 30
0.0
 10
-11.00151685551601
 20
-8.019519244187379
 30
0.0
 10
-11.00151562244564
 20
-8.062238270895602
 30
0.0
 10
-11.00140261254221
 20
-8.103517808162305
 30
0.0
 10
-11.00180495500408
 20
-8.148567560815351
 30
0.0
 10
-10.98100946595556
 20
-8.193683192337069
 30
0.0
 10
-10.9303749176913
 20
-8.211799102511595
 30
0.0
 10
-10.88944837743097
 20
-8.235688068864263
 30
0.0
 10
-10.85451867386041
 20
-8.260452607894386
 30
0.0
 10
-10.81879271313594
 20
-8.266208310754795
 30
0.0
 10
-10.78126529227331
 20
-8.257375516514607
 30
0.0
 10
-10.74221403857332
 20
-8.238344762304584
 30
0.0
 10
-10.70199910333542
 20
-8.2177148213951
 30
0.0
 10
-10.66525392074531
 20
-8.201429313943748
 30
0.0
 10
-10.65320791805442
 20
-8.169526033904956
 30
0.0
 10
-10.64785355764552
 20
-8.149996154013207
 30
0.0
 10
-10.64815263643506
 20
-8.1096263126801
 30
0.0
 10
-10.6478394977943
 20
-8.059799674600471
 30
0.0
 10
-10.64809044249214
 20
-8.003694981845177
 30
0.0
 10
-10.64763926689882
 20
-7.935657969386183
 30
0.0
 10
-10.65418786063375
 20
-7.868816970216525
 30
0.0
 10
-10.689343166937
 20
-7.791940146478486
 30
0.0
 10
-10.74739608614115
 20
-7.746409934443584
 30
0.0
 10
-10.8258494548821
 20
-7.727066528318399
 30
0.0
 10
-10.90320223767
 20
-7.743141809225182
 30
0.0
 10
-10.9628438745316
 20
-7.788992877999926
 30
0.0
 10
-10.98782520639238
 20
-7.829420072268573
 30
0.0
 10
-10.99458681803047
 20
-7.853024670387025
 30
0.0
  0
SPLINE
  5
10D
330
1F
100
AcDbEntity
  8
0
  6
Continuous
 62
     7
370
    15
100
AcDbSpline
210
0.0
220
0.0
230
1.0
 70
     8
 71
     3
 72
     9
 73
     5
 74
     0
 42
0.000000001
 43
0.00000001
 40
0.0
 40
0.0
 40
0.0
 40
0.0
 40
0.5917382855127358
 40
1.0
 40
1.0
 40
1.0
 40
1.0
 10
-11.74965534317561
 20
-11.09006486636997
 30
0.0
 10
-11.74251804566324
 20
-11.09357104278244
 30
0.0
 10
-11.73570152978366
 20
-11.0737499975998
 30
0.0
 10
-11.7327228391161
 20
-11.05812675215704
 30
0.0
 10
-11.73302038200553
 20
-11.05588775241435
 30
0.0
  0
SPLINE
  5
10E
330
1F
100
AcDbEntity
  8
0
  6
Continuous
 62
     7
370
    15
100
AcDbSpline
210
0.0
220
0.0
230
1.0
 70
     8
 71
     3
 72
    57
 73
    53
 74
     0
 42
0.000000001
 43
0.00000001
 40
0.0044987138104896
 40
0.0044987138104896
 40
0.0044987138104896
 40
0.0044987138104896
 40
0.0059306615841042
 40
0.012972998560798
 40
0.0197267179101554
 40
0.0281682921359563
 40
0.03438653568438
 40
0.0391973092978544
 40
0.0426398186700675
 40
0.0478591963336214
 40
0.0522076958158511
 40
0.0569685518846537
 40
0.0600802088911141
 40
0.0833242658804545
 40
0.100115147149707
 40
0.1075040507550149
 40
0.1119911186890629
 40
0.1236035870112168
 40
0.1344781831757891
 40
0.1416335384367987
 40
0.1513936182774798
 40
0.1598460703724636
 40
0.1678103407688642
 40
0.1779859654062086
 40
0.1950388904815649
 40
0.2057319981661064
 40
0.2087915446733428
 40
0.225634355553928
 40
0.2329453140051348
 40
0.2376050816345673
 40
0.2417699933157572
 40
0.2463602816475659
 40
0.249274382778274
 40
0.2951184196682355
 40
0.3850028801730496
 40
0.4383197410101697
 40
0.4836774771427334
 40
0.5275433556027713
 40
0.5864887804358404
 40
0.6306777729480121
 40
0.6893316180590866
 40
0.72720301585628
 40
0.7540921100668478
 40
0.7864856870140774
 40
0.8293449930710668
 40
0.869769663916062
 40
0.8997703139767854
 40
0.9254410287572818
 40
0.9475567918885226
 40
0.9665668661612008
 40
0.9896247871907609
 40
0.9968877388785546
 40
0.9968877388785546
 40
0.9968877388785546
 40
0.9968877388785546
 10
-11.73302038200553
 20
-11.05588775241435
 30
0.0
 10
-11.73318285433932
 20
-11.05466515383625
 30
0.0
 10
-11.706694342518
 20
-11.00602535608895
 30
0.0
 10
-11.71810353390196
 20
-10.98203038164183
 30
0.0
 10
-11.6365958737742
 20
-10.88522154168397
 30
0.0
 10
-11.57782119584385
 20
-10.81213258675211
 30
0.0
 10
-11.51205849697645
 20
-10.74650138572032
 30
0.0
 10
-11.47008730714764
 20
-10.69320423383467
 30
0.0
 10
-11.43068926867878
 20
-10.64402755209706
 30
0.0
 10
-11.38827210490716
 20
-10.59813684609247
 30
0.0
 10
-11.37044981334387
 20
-10.53217166358427
 30
0.0
 10
-11.34926179387199
 20
-10.4788211328874
 30
0.0
 10
-11.27627059092014
 20
-10.35186787050438
 30
0.0
 10
-11.28509848206829
 20
-10.38376465400897
 30
0.0
 10
-11.2376005581551
 20
-10.28159702260638
 30
0.0
 10
-11.20076081912111
 20
-10.24915446795303
 30
0.0
 10
-11.18535525221909
 20
-10.20934707333576
 30
0.0
 10
-11.19074955516721
 20
-10.1609411998296
 30
0.0
 10
-11.1979715915995
 20
-10.10959634755056
 30
0.0
 10
-11.19923204457578
 20
-10.06055124308145
 30
0.0
 10
-11.20717477428601
 20
-10.01652104647792
 30
0.0
 10
-11.21036041705909
 20
-9.970534379653449
 30
0.0
 10
-11.21333916915874
 20
-9.923829516038962
 30
0.0
 10
-11.21703614543154
 20
-9.862067024917273
 30
0.0
 10
-11.21964116483487
 20
-9.795019526400376
 30
0.0
 10
-11.22388997265868
 20
-9.741733233392981
 30
0.0
 10
-11.22636384620137
 20
-9.686558992871989
 30
0.0
 10
-11.22628615936628
 20
-9.685741066802827
 30
0.0
 10
-11.23065193318185
 20
-9.664448445106766
 30
0.0
 10
-11.23551614582131
 20
-9.653318628503236
 30
0.0
 10
-11.23646842423292
 20
-9.642143101295877
 30
0.0
 10
-11.24872617497314
 20
-9.639527871932454
 30
0.0
 10
-11.27030579195652
 20
-9.677209041920547
 30
0.0
 10
-11.31337621119939
 20
-9.769058041783923
 30
0.0
 10
-11.35473142652799
 20
-9.909924919127485
 30
0.0
 10
-11.39157852008694
 20
-10.04760602420428
 30
0.0
 10
-11.41155647457964
 20
-10.15562914760973
 30
0.0
 10
-11.47278949334031
 20
-10.25192558665013
 30
0.0
 10
-11.51244470559612
 20
-10.35654762265885
 30
0.0
 10
-11.56341964188612
 20
-10.46882653959239
 30
0.0
 10
-11.62190707031149
 20
-10.5588216216654
 30
0.0
 10
-11.66443610871635
 20
-10.64253548722279
 30
0.0
 10
-11.70439027786223
 20
-10.70501595889422
 30
0.0
 10
-11.74910667401254
 20
-10.76752823882646
 30
0.0
 10
-11.81412500557584
 20
-10.83435409504034
 30
0.0
 10
-11.90668653488228
 20
-10.83731222703121
 30
0.0
 10
-11.97604209387697
 20
-10.81653437631094
 30
0.0
 10
-12.03303734544248
 20
-10.79726101935072
 30
0.0
 10
-12.07712047236858
 20
-10.77758192747646
 30
0.0
 10
-12.13165585709694
 20
-10.75943062447682
 30
0.0
 10
-12.1522764181663
 20
-10.8093824215301
 30
0.0
 10
-12.16635180194858
 20
-10.81493984248641
 30
0.0
 10
-12.16009886765323
 20
-10.82325267485944
 30
0.0
  0
SPLINE
  5
111
330
1F
100
AcDbEntity
  8
0
  6
Continuous
 62
     7
370
    15
100
AcDbSpline
210
0.0
220
0.0
230
1.0
 70
    11
 71
     3
 72
    48
 73
    44
 74
     0
 42
0.000000001
 43
0.00000001
 40
0.0
 40
0.0
 40
0.0
 40
0.0
 40
0.0134029482994615
 40
0.0255282131621806
 40
0.0370232889917038
 40
0.0495382832404697
 40
0.0719900270935345
 40
0.102053677658642
 40
0.1361597040986282
 40
0.1801824269002725
 40
0.1969177076190709
 40
0.2212971784059207
 40
0.2321006429150206
 40
0.2531038821496
 40
0.275085878049852
 40
0.2976723827069423
 40
0.3249692065508725
 40
0.3574439046018324
 40
0.396139453180132
 40
0.4190827692819045
 40
0.4453944699284008
 40
0.4714562049817183
 40
0.4875091690548164
 40
0.5020393216564328
 40
0.511488597636212
 40
0.5304291086886165
 40
0.5509142817868388
 40
0.5729209978239826
 40
0.587228475850808
 40
0.6149363466287473
 40
0.6589131058762051
 40
0.6830715690569358
 40
0.7085145852206405
 40
0.7576091302085072
 40
0.8070809935907032
 40
0.8613755101312832
 40
0.883788236353824
 40
0.9120036801495691
 40
0.9364714452638323
 40
0.9539137732779938
 40
0.9760124807345945
 40
0.9860554517611675
 40
1.0
 40
1.0
 40
1.0
 40
1.0
 10
-11.36133504543177
 20
-8.583320794667758
 30
0.0
 10
-11.36123340849682
 20
-8.568677628565915
 30
0.0
 10
-11.35909822162757
 20
-8.539500869210817
 30
0.0
 10
-11.39213653826743
 20
-8.513290265960133
 30
0.0
 10
-11.41766582890775
 20
-8.485918712735902
 30
0.0
 10
-11.45992633863949
 20
-8.458222795915052
 30
0.0
 10
-11.53061292263428
 20
-8.454552422031172
 30
0.0
 10
-11.62130350776832
 20
-8.454904443550328
 30
0.0
 10
-11.73544244979111
 20
-8.447915578536026
 30
0.0
 10
-11.83671786517102
 20
-8.452206489506453
 30
0.0
 10
-11.92385512401694
 20
-8.427886375116156
 30
0.0
 10
-11.97958699181121
 20
-8.42924674443138
 30
0.0
 10
-12.03806005389878
 20
-8.439339352473523
 30
0.0
 10
-12.09243165284583
 20
-8.456327493314301
 30
0.0
 10
-12.16045064037987
 20
-8.469414387405426
 30
0.0
 10
-12.23410651811548
 20
-8.488186211244493
 30
0.0
 10
-12.32130217618058
 20
-8.494740929876516
 30
0.0
 10
-12.42522246042659
 20
-8.488734502907844
 30
0.0
 10
-12.52445790415631
 20
-8.493247256207294
 30
0.0
 10
-12.6177403512681
 20
-8.49230047419341
 30
0.0
 10
-12.69574178674322
 20
-8.497518609887791
 30
0.0
 10
-12.77268830516729
 20
-8.49890508813043
 30
0.0
 10
-12.82110637681744
 20
-8.50956302154032
 30
0.0
 10
-12.88894856456303
 20
-8.525748395383452
 30
0.0
 10
-12.83401896125383
 20
-8.55754468516512
 30
0.0
 10
-12.78983636475479
 20
-8.564458228682957
 30
0.0
 10
-12.72641221495105
 20
-8.588346812692917
 30
0.0
 10
-12.66702084307807
 20
-8.594413132642892
 30
0.0
 10
-12.59959964905828
 20
-8.600484177555558
 30
0.0
 10
-12.50875932330477
 20
-8.600940062108108
 30
0.0
 10
-12.40730117820723
 20
-8.592052053454362
 30
0.0
 10
-12.30924396798879
 20
-8.606371889858735
 30
0.0
 10
-12.20562733440382
 20
-8.61754818411865
 30
0.0
 10
-12.07449201298312
 20
-8.619475922830372
 30
0.0
 10
-11.91310148925052
 20
-8.617625967072565
 30
0.0
 10
-11.77993257261615
 20
-8.622035229091123
 30
0.0
 10
-11.66912449736918
 20
-8.626457858759851
 30
0.0
 10
-11.59036289067528
 20
-8.632638438738034
 30
0.0
 10
-11.51571429997499
 20
-8.640504188757419
 30
0.0
 10
-11.45090307304558
 20
-8.642721130607098
 30
0.0
 10
-11.39081433686137
 20
-8.669951276571993
 30
0.0
 10
-11.35972454677898
 20
-8.623505290635089
 30
0.0
 10
-11.36144078941514
 20
-8.598555676688797
 30
0.0
 10
-11.36133504543177
 20
-8.583320794667758
 30
0.0
  0
SPLINE
  5
112
330
1F
100
AcDbEntity
  8
0
  6
Continuous
 62
     7
370
    15
100
AcDbSpline
210
0.0
220
0.0
230
1.0
 70
    11
 71
     3
 72
    45
 73
    41
 74
     0
 42
0.000000001
 43
0.00000001
 40
0.0
 40
0.0
 40
0.0
 40
0.0
 40
0.03557095516276
 40
0.0649895647132585
 40
0.0934828161766604
 40
0.1400669519709488
 40
0.2038015114615164
 40
0.218253131350567
 40
0.2845831508614546
 40
0.3310550144158411
 40
0.350475535017793
 40
0.3814566651764764
 40
0.4034781477810763
 40
0.4215874210635262
 40
0.4344625322677218
 40
0.4535579938142812
 40
0.4771390035832264
 40
0.4932444085479573
 40
0.509486685467648
 40
0.5284800568790041
 40
0.5480969373739255
 40
0.5556393029454997
 40
0.5662634100372737
 40
0.5815664474236797
 40
0.6009585651554155
 40
0.6574735913901547
 40
0.693585614190692
 40
0.7248978068938831
 40
0.7538183408932413
 40
0.7837434273533014
 40
0.8084367243485435
 40
0.8328571096185728
 40
0.8485313680199025
 40
0.87279458907779
 40
0.9079492651026779
 40
0.9222300623090558
 40
0.946690344515885
 40
0.9636664980162498
 40
0.981585869564458
 40
1.0
 40
1.0
 40
1.0
 40
1.0
 10
-10.27447274737975
 20
-8.583320794667758
 30
0.0
 10
-10.28134225835735
 20
-8.620052018609892
 30
0.0
 10
-10.27998262010856
 20
-8.646632724373623
 30
0.0
 10
-10.21734455311178
 20
-8.646296831274793
 30
0.0
 10
-10.16565315186186
 20
-8.647496585413455
 30
0.0
 10
-10.07239207733658
 20
-8.639204901102882
 30
0.0
 10
-10.06944411055866
 20
-8.63146871566845
 30
0.0
 10
-9.889897618321662
 20
-8.622952561858733
 30
0.0
 10
-9.74431516500819
 20
-8.610354622421271
 30
0.0
 10
-9.586177071771974
 20
-8.616359836437974
 30
0.0
 10
-9.471569950118997
 20
-8.61000449535032
 30
0.0
 10
-9.385796218825476
 20
-8.604474448882447
 30
0.0
 10
-9.301623990423574
 20
-8.601771859239149
 30
0.0
 10
-9.238351008725093
 20
-8.605506520105006
 30
0.0
 10
-9.180215527743103
 20
-8.592849114134921
 30
0.0
 10
-9.113688529504913
 20
-8.585820458927175
 30
0.0
 10
-9.045900489897377
 20
-8.609849583569202
 30
0.0
 10
-8.979057759048892
 20
-8.600170505762536
 30
0.0
 10
-8.920197616155034
 20
-8.5887862069795
 30
0.0
 10
-8.854109676436288
 20
-8.571253250336884
 30
0.0
 10
-8.81296936002952
 20
-8.552576643940114
 30
0.0
 10
-8.75486638611611
 20
-8.529067175071393
 30
0.0
 10
-8.81515854418728
 20
-8.50589918691579
 30
0.0
 10
-8.859737313734026
 20
-8.509900629966854
 30
0.0
 10
-8.972311450564757
 20
-8.494871494643201
 30
0.0
 10
-9.10236059982607
 20
-8.495117129390948
 30
0.0
 10
-9.250006368991185
 20
-8.49797885873589
 30
0.0
 10
-9.363963108080029
 20
-8.48920851819619
 30
0.0
 10
-9.469774611475085
 20
-8.47318385647743
 30
0.0
 10
-9.567091230616315
 20
-8.455542853384653
 30
0.0
 10
-9.658060491590678
 20
-8.429448606024874
 30
0.0
 10
-9.735758614221698
 20
-8.435731573014456
 30
0.0
 10
-9.81093861625688
 20
-8.448148425504394
 30
0.0
 10
-9.899279971225702
 20
-8.45775133623939
 30
0.0
 10
-9.98749888181041
 20
-8.466448012369037
 30
0.0
 10
-10.07336749799732
 20
-8.454092380638718
 30
0.0
 10
-10.14333234611755
 20
-8.442324837590718
 30
0.0
 10
-10.20266779561855
 20
-8.483955383476593
 30
0.0
 10
-10.25987391595888
 20
-8.51505780818393
 30
0.0
 10
-10.27091658560138
 20
-8.564306024172204
 30
0.0
 10
-10.27447274737975
 20
-8.583320794667758
 30
0.0
  0
CIRCLE
  5
12F
330
1F
100
AcDbEntity
  8
0
  6
Continuous
 62
     7
370
    15
100
AcDbCircle
 10
-14.25
 20
3.2065
 30
0.0
 40
0.0999999999999996
  0
CIRCLE
  5
130
330
1F
100
AcDbEntity
  8
0
  6
Continuous
 62
     7
370
    15
100
AcDbCircle
 10
-14.25
 20
2.238
 30
0.0
 40
0.1000000000000005
  0
CIRCLE
  5
131
330
1F
100
AcDbEntity
  8
0
  6
Continuous
 62
     7
370
    15
100
AcDbCircle
 10
-14.25
 20
1.2695
 30
0.0
 40
0.1000000000000001
  0
CIRCLE
  5
132
330
1F
100
AcDbEntity
  8
0
  6
Continuous
 62
     7
370
    15
100
AcDbCircle
 10
-14.25
 20
0.301
 30
0.0
 40
0.0999999999999998
  0
CIRCLE
  5
133
330
1F
100
AcDbEntity
  8
0
  6
Continuous
 62
     7
370
    15
100
AcDbCircle
 10
-14.25
 20
-10.4979491924
 30
0.0
 40
0.0999999999999996
  0
CIRCLE
  5
134
330
1F
100
AcDbEntity
  8
0
  6
Continuous
 62
     7
370
    15
100
AcDbCircle
 10
-14.25
 20
-9.4979491924
 30
0.0
 40
0.1000000000000014
  0
CIRCLE
  5
135
330
1F
100
AcDbEntity
  8
0
  6
Continuous
 62
     7
370
    15
100
AcDbCircle
 10
-14.25
 20
-8.4979491924
 30
0.0
 40
0.0999999999999996
  0
CIRCLE
  5
136
330
1F
100
AcDbEntity
  8
0
  6
Continuous
 62
     7
370
    15
100
AcDbCircle
 10
-14.25
 20
-7.4979491924
 30
0.0
 40
0.0999999999999996
  0
CIRCLE
  5
137
330
1F
100
AcDbEntity
  8
0
  6
Continuous
 62
     7
370
    15
100
AcDbCircle
 10
-14.25
 20
-6.4979491924
 30
0.0
 40
0.0999999999999996
  0
CIRCLE
  5
138
330
1F
100
AcDbEntity
  8
0
  6
Continuous
 62
     7
370
    15
100
AcDbCircle
 10
-14.25
 20
-5.4979491924
 30
0.0
 40
0.0999999999999996
  0
CIRCLE
  5
139
330
1F
100
AcDbEntity
  8
0
  6
Continuous
 62
     7
370
    15
100
AcDbCircle
 10
-14.25
 20
-4.4979491924
 30
0.0
 40
0.0999999999999996
  0
CIRCLE
  5
13A
330
1F
100
AcDbEntity
  8
0
  6
Continuous
 62
     7
370
    15
100
AcDbCircle
 10
-14.25
 20
-3.4979491924
 30
0.0
 40
0.0999999999999996
  0
CIRCLE
  5
13B
330
1F
100
AcDbEntity
  8
0
  6
Continuous
 62
     7
370
    15
100
AcDbCircle
 10
-14.25
 20
-2.4979491924
 30
0.0
 40
0.1000000000000005
  0
CIRCLE
  5
13C
330
1F
100
AcDbEntity
  8
0
  6
Continuous
 62
     7
370
    15
100
AcDbCircle
 10
-8.750013064
 20
2.58125
 30
0.0
 40
0.0999999999999996
  0
CIRCLE
  5
13D
330
1F
100
AcDbEntity
  8
0
  6
Continuous
 62
     7
370
    15
100
AcDbCircle
 10
-9.7500391921
 20
3.64375
 30
0.0
 40
0.0999999999999992
  0
CIRCLE
  5
13E
330
1F
100
AcDbEntity
  8
0
  6
Continuous
 62
     7
370
    15
100
AcDbCircle
 10
-9.7500391921
 20
2.58125
 30
0.0
 40
0.0999999999999992
  0
CIRCLE
  5
13F
330
1F
100
AcDbEntity
  8
0
  6
Continuous
 62
     7
370
    15
100
AcDbCircle
 10
-11.9964027034
 20
-1.47
 30
0.0
 40
0.1000000000000005
  0
CIRCLE
  5
140
330
1F
100
AcDbEntity
  8
0
  6
Continuous
 62
     7
370
    15
100
AcDbCircle
 10
-9.4235972966
 20
-1.47
 30
0.0
 40
0.099999999999997
  0
CIRCLE
  5
141
330
1F
100
AcDbEntity
  8
0
  6
Continuous
 62
     7
370
    15
100
AcDbCircle
 10
-10.7167320261
 20
-1.47
 30
0.0
 40
0.0999999999999996
  0
CIRCLE
  5
142
330
1F
100
AcDbEntity
  8
0
  6
Continuous
 62
     7
370
    15
100
AcDbCircle
 10
-10.71125
 20
-3.55
 30
0.0
 40
0.1000000000000005
  0
CIRCLE
  5
143
330
1F
100
AcDbEntity
  8
0
  6
Continuous
 62
     7
370
    15
100
AcDbCircle
 10
-10.7167320261
 20
-2.3110167869
 30
0.0
 40
0.0999999999999996
  0
CIRCLE
  5
144
330
1F
100
AcDbEntity
  8
0
  6
Continuous
 62
     7
370
    15
100
AcDbCircle
 10
-10.7167320261
 20
-4.8224220843
 30
0.0
 40
0.0999999999999988
  0
CIRCLE
  5
145
330
1F
100
AcDbEntity
  8
0
  6
Continuous
 62
     7
370
    15
100
AcDbCircle
 10
-10.7167320261
 20
1.8824220843
 30
0.0
 40
0.0999999999999994
  0
CIRCLE
  5
146
330
1F
100
AcDbEntity
  8
0
  6
Continuous
 62
     7
370
    15
100
AcDbCircle
 10
-10.71125
 20
0.61
 30
0.0
 40
0.1000000000000004
  0
CIRCLE
  5
147
330
1F
100
AcDbEntity
  8
0
  6
Continuous
 62
     7
370
    15
100
AcDbCircle
 10
-10.7167320261
 20
-0.6289832131
 30
0.0
 40
0.0999999999999996
  0
CIRCLE
  5
148
330
1F
100
AcDbEntity
  8
0
  6
Continuous
 62
     7
370
    15
100
AcDbCircle
 10
-10.9875
 20
-15.36
 30
0.0
 40
0.0794999999999995
  0
CIRCLE
  5
149
330
1F
100
AcDbEntity
  8
0
  6
Continuous
 62
     7
370
    15
100
AcDbCircle
 10
-10.9875
 20
-14.5125
 30
0.0
 40
0.0794999999999995
  0
CIRCLE
  5
14A
330
1F
100
AcDbEntity
  8
0
  6
Continuous
 62
     7
370
    15
100
AcDbCircle
 10
-10.9875
 20
-13.665
 30
0.0
 40
0.0794999999999995
  0
LINE
  5
14B
330
1F
100
AcDbEntity
  8
0
  6
Continuous
 62
     7
370
    15
100
AcDbLine
 10
-14.75
 20
-1.7925
 30
0.0
 11
-14.75
 21
-10.9033983849
 31
0.0
  0
LINE
  5
14C
330
1F
100
AcDbEntity
  8
0
  6
Continuous
 62
     7
370
    15
100
AcDbLine
 10
-13.6875
 20
-1.7925
 30
0.0
 11
-14.75
 21
-1.7925
 31
0.0
  0
LINE
  5
14D
330
1F
100
AcDbEntity
  8
0
  6
Continuous
 62
     7
370
    15
100
AcDbLine
 10
-13.6875
 20
-0.6675
 30
0.0
 11
-13.6875
 21
-1.7925
 31
0.0
  0
LINE
  5
14E
330
1F
100
AcDbEntity
  8
0
  6
Continuous
 62
     7
370
    15
100
AcDbLine
 10
-14.75
 20
-0.6675
 30
0.0
 11
-13.6875
 21
-0.6675
 31
0.0
  0
LINE
  5
14F
330
1F
100
AcDbEntity
  8
0
  6
Continuous
 62
     7
370
    15
100
AcDbLine
 10
-14.75
 20
4.175
 30
0.0
 11
-14.75
 21
-0.6675
 31
0.0
  0
LINE
  5
150
330
1F
100
AcDbEntity
  8
0
  6
Continuous
 62
     7
370
    15
100
AcDbLine
 10
-8.25
 20
4.175
 30
0.0
 11
-14.75
 21
4.175
 31
0.0
  0
LINE
  5
151
330
1F
100
AcDbEntity
  8
0
  6
Continuous
 62
     7
370
    15
100
AcDbLine
 10
-8.25
 20
-15.73
 30
0.0
 11
-8.25
 21
4.175
 31
0.0
  0
LINE
  5
152
330
1F
100
AcDbEntity
  8
0
  6
Continuous
 62
     7
370
    15
100
AcDbLine
 10
-11.2875
 20
-15.73
 30
0.0
 11
-8.25
 21
-15.73
 31
0.0
  0
LINE
  5
153
330
1F
100
AcDbEntity
  8
0
  6
Continuous
 62
     7
370
    15
100
AcDbLine
 10
-11.2875
 20
-15.73
 30
0.0
 11
-11.2875
 21
-14.6675
 31
0.0
  0
LINE
  5
154
330
1F
100
AcDbEntity
  8
0
  6
Continuous
 62
     7
370
    15
100
AcDbLine
 10
-13.363434661
 20
-14.6675
 30
0.0
 11
-11.2875
 21
-14.6675
 31
0.0
  0
LINE
  5
155
330
1F
100
AcDbEntity
  8
0
  6
Continuous
 62
     7
370
    15
100
AcDbLine
 10
-13.6875
 20
-14.1062023679
 30
0.0
 11
-13.363434661
 21
-14.6675
 31
0.0
  0
LINE
  5
156
330
1F
100
AcDbEntity
  8
0
  6
Continuous
 62
     7
370
    15
100
AcDbLine
 10
-13.6875
 20
-10.9033983849
 30
0.0
 11
-13.6875
 21
-14.1062023679
 31
0.0
  0
LINE
  5
157
330
1F
100
AcDbEntity
  8
0
  6
Continuous
 62
     7
370
    15
100
AcDbLine
 10
-13.6875
 20
-10.9033983849
 30
0.0
 11
-14.75
 21
-10.9033983849
 31
0.0
  0
LINE
  5
158
330
1F
100
AcDbEntity
  8
0
  6
Continuous
 62
     7
370
    15
100
AcDbLine
 10
-8.45
 20
-14.9408043416
 30
0.0
 11
-8.45
 21
-14.0841956584
 31
0.0
  0
LINE
  5
159
330
1F
100
AcDbEntity
  8
0
  6
Continuous
 62
     7
370
    15
100
AcDbLine
 10
-9.04
 20
-13.5
 30
0.0
 11
-10.08
 21
-13.5
 31
0.0
  0
LINE
  5
15A
330
1F
100
AcDbEntity
  8
0
  6
Continuous
 62
     7
370
    15
100
AcDbLine
 10
-10.67
 20
-14.0841956584
 30
0.0
 11
-10.67
 21
-14.9408043416
 31
0.0
  0
LINE
  5
15B
330
1F
100
AcDbEntity
  8
0
  6
Continuous
 62
     7
370
    15
100
AcDbLine
 10
-10.0808043416
 20
-15.53
 30
0.0
 11
-9.0391956584
 21
-15.53
 31
0.0
  0
LINE
  5
15C
330
1F
100
AcDbEntity
  8
0
  6
Continuous
 62
     7
370
    15
100
AcDbLine
 10
-12.97
 20
-10.9764303794
 30
0.0
 11
-12.97
 21
-12.1588881194
 31
0.0
  0
LINE
  5
15D
330
1F
100
AcDbEntity
  8
0
  6
Continuous
 62
     7
370
    15
100
AcDbLine
 10
-12.0612934983
 20
-13.0
 30
0.0
 11
-9.3585463524
 21
-13.0
 31
0.0
  0
LINE
  5
15E
330
1F
100
AcDbEntity
  8
0
  6
Continuous
 62
     7
370
    15
100
AcDbLine
 10
-8.45
 20
-12.1588639984
 30
0.0
 11
-8.45
 21
-10.7857859917
 31
0.0
  0
LINE
  5
15F
330
1F
100
AcDbEntity
  8
0
  6
Continuous
 62
     7
370
    15
100
AcDbLine
 10
-12.2644328412
 20
-4.99
 30
0.0
 11
-11.7283725655
 21
-4.99
 31
0.0
  0
LINE
  5
160
330
1F
100
AcDbEntity
  8
0
  6
Continuous
 62
     7
370
    15
100
AcDbLine
 10
-11.09
 20
-4.3816195941
 30
0.0
 11
-11.09
 21
-2.7518192771
 31
0.0
  0
LINE
  5
161
330
1F
100
AcDbEntity
  8
0
  6
Continuous
 62
     7
370
    15
100
AcDbLine
 10
-11.7241798875
 20
-2.12
 30
0.0
 11
-12.2686255192
 21
-2.12
 31
0.0
  0
LINE
  5
162
330
1F
100
AcDbEntity
  8
0
  6
Continuous
 62
     7
370
    15
100
AcDbLine
 10
-12.97
 20
-2.7320839595
 30
0.0
 11
-12.97
 21
-4.4013549117
 31
0.0
  0
LINE
  5
163
330
1F
100
AcDbEntity
  8
0
  6
Continuous
 62
     7
370
    15
100
AcDbLine
 10
-8.45
 20
-0.1098782408
 30
0.0
 11
-8.45
 21
1.73
 31
0.0
  0
LINE
  5
164
330
1F
100
AcDbEntity
  8
0
  6
Continuous
 62
     7
370
    15
100
AcDbLine
 10
-8.55
 20
1.83
 30
0.0
 11
-9.5106456095
 21
1.83
 31
0.0
  0
LINE
  5
165
330
1F
100
AcDbEntity
  8
0
  6
Continuous
 62
     7
370
    15
100
AcDbLine
 10
-10.35
 20
1.4427016654
 30
0.0
 11
-10.35
 21
-0.47
 31
0.0
  0
LINE
  5
166
330
1F
100
AcDbEntity
  8
0
  6
Continuous
 62
     7
370
    15
100
AcDbLine
 10
-10.25
 20
-0.57
 30
0.0
 11
-9.3516279837
 21
-0.57
 31
0.0
  0
LINE
  5
167
330
1F
100
AcDbEntity
  8
0
  6
Continuous
 62
     7
370
    15
100
AcDbLine
 10
-12.97
 20
1.4613549117
 30
0.0
 11
-12.97
 21
-0.2079160405
 31
0.0
  0
LINE
  5
168
330
1F
100
AcDbEntity
  8
0
  6
Continuous
 62
     7
370
    15
100
AcDbLine
 10
-12.2686255192
 20
-0.82
 30
0.0
 11
-11.7241798875
 21
-0.82
 31
0.0
  0
LINE
  5
169
330
1F
100
AcDbEntity
  8
0
  6
Continuous
 62
     7
370
    15
100
AcDbLine
 10
-11.09
 20
-0.1881807229
 30
0.0
 11
-11.09
 21
1.4416195941
 31
0.0
  0
LINE
  5
16A
330
1F
100
AcDbEntity
  8
0
  6
Continuous
 62
     7
370
    15
100
AcDbLine
 10
-11.7283725655
 20
2.05
 30
0.0
 11
-12.2644328412
 21
2.05
 31
0.0
  0
LINE
  5
16B
330
1F
100
AcDbEntity
  8
0
  6
Continuous
 62
     7
370
    15
100
AcDbLine
 10
-8.45
 20
-4.4013549117
 30
0.0
 11
-8.45
 21
-2.7320839595
 31
0.0
  0
LINE
  5
16C
330
1F
100
AcDbEntity
  8
0
  6
Continuous
 62
     7
370
    15
100
AcDbLine
 10
-9.1513744808
 20
-2.12
 30
0.0
 11
-9.6958201125
 21
-2.12
 31
0.0
  0
LINE
  5
16D
330
1F
100
AcDbEntity
  8
0
  6
Continuous
 62
     7
370
    15
100
AcDbLine
 10
-10.33
 20
-2.7518192771
 30
0.0
 11
-10.33
 21
-4.3816195941
 31
0.0
  0
LINE
  5
16E
330
1F
100
AcDbEntity
  8
0
  6
Continuous
 62
     7
370
    15
100
AcDbLine
 10
-9.6916274345
 20
-4.99
 30
0.0
 11
-9.1555671588
 21
-4.99
 31
0.0
  0
LINE
  5
16F
330
1F
100
AcDbEntity
  8
0
  6
Continuous
 62
     7
370
    15
100
AcDbLine
 10
-12.6646835867
 20
-8.7149884152
 30
0.0
 11
-12.9300030507
 21
-8.7149884152
 31
0.0
  0
LINE
  5
170
330
1F
100
AcDbEntity
  8
0
  6
Continuous
 62
     7
370
    15
100
AcDbLine
 10
-12.3913103611
 20
-10.6112697423
 30
0.0
 11
-12.1549048393
 21
-10.482706942
 31
0.0
  0
LINE
  5
171
330
1F
100
AcDbEntity
  8
0
  6
Continuous
 62
     7
370
    15
100
AcDbLine
 10
-12.3154337438
 20
-7.963699483
 30
0.0
 11
-12.6276707743
 21
-7.957364283
 31
0.0
  0
LINE
  5
172
330
1F
100
AcDbEntity
  8
0
  6
Continuous
 62
     7
370
    15
100
AcDbLine
 10
-12.8175830184
 20
-8.3295884037
 30
0.0
 11
-12.5352828549
 21
-8.3295884037
 31
0.0
  0
LINE
  5
173
330
1F
100
AcDbEntity
  8
0
  6
Continuous
 62
     7
370
    15
100
AcDbLine
 10
-9.0391900661
 20
-8.3295884037
 30
0.0
 11
-8.7568899026
 21
-8.3295884037
 31
0.0
  0
LINE
  5
174
330
1F
100
AcDbEntity
  8
0
  6
Continuous
 62
     7
370
    15
100
AcDbLine
 10
-8.9468021467
 20
-7.957364283
 30
0.0
 11
-9.2364735809
 21
-7.9938510441
 31
0.0
  0
LINE
  5
175
330
1F
100
AcDbEntity
  8
0
  6
Continuous
 62
     7
370
    15
100
AcDbLine
 10
-9.6527524575
 20
-7.5782679309
 30
0.0
 11
-9.4298265422
 21
-7.4215755935
 31
0.0
  0
LINE
  5
176
330
1F
100
AcDbEntity
  8
0
  6
Continuous
 62
     7
370
    15
100
AcDbLine
 10
-12.1475808412
 20
-7.4239099818
 30
0.0
 11
-11.9287222323
 21
-7.5834082089
 31
0.0
  0
LINE
  5
177
330
1F
100
AcDbEntity
  8
0
  6
Continuous
 62
     7
370
    15
100
AcDbLine
 10
-9.454229435
 20
-10.5168989806
 30
0.0
 11
-9.2252556892
 21
-10.6556184816
 31
0.0
  0
LINE
  5
178
330
1F
100
AcDbEntity
  8
0
  6
Continuous
 62
     7
370
    15
100
AcDbLine
 10
-8.6444698703
 20
-8.7149884152
 30
0.0
 11
-8.9097893342
 21
-8.7149884152
 31
0.0
  0
LINE
  5
179
330
1F
100
AcDbEntity
  8
0
  6
Continuous
 62
     7
370
    15
100
AcDbLine
 10
-12.97
 20
-6.3074217817
 30
0.0
 11
-12.97
 21
-7.2854310809
 31
0.0
  0
LINE
  5
17A
330
1F
100
AcDbEntity
  8
0
  6
Continuous
 62
     7
370
    15
100
AcDbLine
 10
-8.45
 20
-7.4760754686
 30
0.0
 11
-8.45
 21
-6.3074459028
 31
0.0
  0
LINE
  5
17B
330
1F
100
AcDbEntity
  8
0
  6
Continuous
 62
     7
370
    15
100
AcDbLine
 10
-9.3477746954
 20
-5.38
 30
0.0
 11
-12.0720651553
 21
-5.38
 31
0.0
  0
LINE
  5
17C
330
1F
100
AcDbEntity
  8
0
  6
Continuous
 62
     7
370
    15
100
AcDbLine
 10
-10.47
 20
3.5754305433
 30
0.0
 11
-10.47
 21
3.605
 31
0.0
  0
LINE
  5
17D
330
1F
100
AcDbEntity
  8
0
  6
Continuous
 62
     7
370
    15
100
AcDbLine
 10
-10.54
 20
3.675
 30
0.0
 11
-12.9
 21
3.675
 31
0.0
  0
LINE
  5
17E
330
1F
100
AcDbEntity
  8
0
  6
Continuous
 62
     7
370
    15
100
AcDbLine
 10
-12.97
 20
3.605
 30
0.0
 11
-12.97
 21
3.5754312166
 31
0.0
  0
LINE
  5
17F
330
1F
100
AcDbEntity
  8
0
  6
Continuous
 62
     7
370
    15
100
AcDbLine
 10
-12.97
 20
2.6495687834
 30
0.0
 11
-12.97
 21
2.62
 31
0.0
  0
LINE
  5
180
330
1F
100
AcDbEntity
  8
0
  6
Continuous
 62
     7
370
    15
100
AcDbLine
 10
-12.9
 20
2.55
 30
0.0
 11
-10.54
 21
2.55
 31
0.0
  0
LINE
  5
181
330
1F
100
AcDbEntity
  8
0
  6
Continuous
 62
     7
370
    15
100
AcDbLine
 10
-10.47
 20
2.62
 30
0.0
 11
-10.47
 21
2.6495694567
 31
0.0
  0
ARC
  5
182
330
1F
100
AcDbEntity
  8
0
  6
Continuous
 62
     7
370
    15
100
AcDbCircle
 10
-8.55
 20
-14.9408043416
 30
0.0
 40
0.0999999999999996
100
AcDbArc
 50
260.519850992
 51
0.0
  0
ARC
  5
183
330
1F
100
AcDbEntity
  8
0
  6
Continuous
 62
     7
370
    15
100
AcDbCircle
 10
-8.55
 20
-14.0841956584
 30
0.0
 40
0.0999999999999996
100
AcDbArc
 50
360.0
 51
99.480149008
  0
ARC
  5
184
330
1F
100
AcDbEntity
  8
0
  6
Continuous
 62
     7
370
    15
100
AcDbCircle
 10
-8.62
 20
-13.665
 30
0.0
 40
0.3250000000000056
100
AcDbArc
 50
171.20258929
 51
279.480149008
  0
ARC
  5
185
330
1F
100
AcDbEntity
  8
0
  6
Continuous
 62
     7
370
    15
100
AcDbCircle
 10
-9.04
 20
-13.6
 30
0.0
 40
0.1000000000000052
100
AcDbArc
 50
351.20258929
 51
90.0
  0
ARC
  5
186
330
1F
100
AcDbEntity
  8
0
  6
Continuous
 62
     7
370
    15
100
AcDbCircle
 10
-10.08
 20
-13.6
 30
0.0
 40
0.099999999999999
100
AcDbArc
 50
90.0
 51
188.79741071
  0
ARC
  5
187
330
1F
100
AcDbEntity
  8
0
  6
Continuous
 62
     7
370
    15
100
AcDbCircle
 10
-10.5
 20
-13.665
 30
0.0
 40
0.3249999999999982
100
AcDbArc
 50
260.519850992
 51
8.79741071
  0
ARC
  5
188
330
1F
100
AcDbEntity
  8
0
  6
Continuous
 62
     7
370
    15
100
AcDbCircle
 10
-10.57
 20
-14.0841956584
 30
0.0
 40
0.100000000000005
100
AcDbArc
 50
80.519850992
 51
180.0
  0
ARC
  5
189
330
1F
100
AcDbEntity
  8
0
  6
Continuous
 62
     7
370
    15
100
AcDbCircle
 10
-10.57
 20
-14.9408043416
 30
0.0
 40
0.0999999999999949
100
AcDbArc
 50
180.0
 51
279.480149008
  0
ARC
  5
18A
330
1F
100
AcDbEntity
  8
0
  6
Continuous
 62
     7
370
    15
100
AcDbCircle
 10
-10.5
 20
-15.36
 30
0.0
 40
0.3249999999999972
100
AcDbArc
 50
350.519850992
 51
99.480149008
  0
ARC
  5
18B
330
1F
100
AcDbEntity
  8
0
  6
Continuous
 62
     7
370
    15
100
AcDbCircle
 10
-10.0808043416
 20
-15.43
 30
0.0
 40
0.0999999999999996
100
AcDbArc
 50
170.519850992
 51
270.0
  0
ARC
  5
18C
330
1F
100
AcDbEntity
  8
0
  6
Continuous
 62
     7
370
    15
100
AcDbCircle
 10
-9.0391956584
 20
-15.43
 30
0.0
 40
0.1000000000000075
100
AcDbArc
 50
270.0
 51
9.480149008
  0
ARC
  5
18D
330
1F
100
AcDbEntity
  8
0
  6
Continuous
 62
     7
370
    15
100
AcDbCircle
 10
-8.62
 20
-15.36
 30
0.0
 40
0.3250000000000001
100
AcDbArc
 50
80.519850992
 51
189.480149008
  0
ARC
  5
18E
330
1F
100
AcDbEntity
  8
0
  6
Continuous
 62
     7
370
    15
100
AcDbCircle
 10
-12.87
 20
-10.9764303794
 30
0.0
 40
0.1000000000000057
100
AcDbArc
 50
41.5435806789
 51
180.0
  0
ARC
  5
18F
330
1F
100
AcDbEntity
  8
0
  6
Continuous
 62
     7
370
    15
100
AcDbCircle
 10
-12.87
 20
-12.1588881194
 30
0.0
 40
0.0999999999999969
100
AcDbArc
 50
180.0
 51
278.5718622828
  0
ARC
  5
190
330
1F
100
AcDbEntity
  8
0
  6
Continuous
 62
     7
370
    15
100
AcDbCircle
 10
-12.7649199253
 20
-12.8560130565
 30
0.0
 40
0.6049999999999971
100
AcDbArc
 50
356.4228308309
 51
98.5718622828
  0
ARC
  5
191
330
1F
100
AcDbEntity
  8
0
  6
Continuous
 62
     7
370
    15
100
AcDbCircle
 10
-12.0612934983
 20
-12.9
 30
0.0
 40
0.1000000000000021
100
AcDbArc
 50
176.4228308309
 51
270.0
  0
ARC
  5
192
330
1F
100
AcDbEntity
  8
0
  6
Continuous
 62
     7
370
    15
100
AcDbCircle
 10
-9.3585463524
 20
-12.9
 30
0.0
 40
0.1000000000000053
100
AcDbArc
 50
270.0
 51
3.5771691691
  0
ARC
  5
193
330
1F
100
AcDbEntity
  8
0
  6
Continuous
 62
     7
370
    15
100
AcDbCircle
 10
-8.6549199254
 20
-12.8560130565
 30
0.0
 40
0.6049999999999996
100
AcDbArc
 50
81.4412999472
 51
183.5771691691
  0
ARC
  5
194
330
1F
100
AcDbEntity
  8
0
  6
Continuous
 62
     7
370
    15
100
AcDbCircle
 10
-8.55
 20
-12.1588639984
 30
0.0
 40
0.099999999999998
100
AcDbArc
 50
261.4412999472
 51
0.0
  0
ARC
  5
195
330
1F
100
AcDbEntity
  8
0
  6
Continuous
 62
     7
370
    15
100
AcDbCircle
 10
-8.55
 20
-10.7857859917
 30
0.0
 40
0.1000000000000014
100
AcDbArc
 50
0.0
 51
143.5101397382
  0
ARC
  5
196
330
1F
100
AcDbEntity
  8
0
  6
Continuous
 62
     7
370
    15
100
AcDbCircle
 10
-10.7872364605
 20
-9.1309307302
 30
0.0
 40
2.682763539513024
100
AcDbArc
 50
221.5435806789
 51
323.5101397382
  0
ARC
  5
197
330
1F
100
AcDbEntity
  8
0
  6
Continuous
 62
     7
370
    15
100
AcDbCircle
 10
-12.2644328412
 20
-4.89
 30
0.0
 40
0.1000000000000009
100
AcDbArc
 50
171.3726983679
 51
270.0
  0
ARC
  5
198
330
1F
100
AcDbEntity
  8
0
  6
Continuous
 62
     7
370
    15
100
AcDbCircle
 10
-11.7283725655
 20
-4.89
 30
0.0
 40
0.1000000000000014
100
AcDbArc
 50
270.0
 51
8.6273016321
  0
ARC
  5
199
330
1F
100
AcDbEntity
  8
0
  6
Continuous
 62
     7
370
    15
100
AcDbCircle
 10
-11.2829699664
 20
-4.8224220843
 30
0.0
 40
0.3505000000000043
100
AcDbArc
 50
78.0902541149
 51
188.6273016321
  0
ARC
  5
19A
330
1F
100
AcDbEntity
  8
0
  6
Continuous
 62
     7
370
    15
100
AcDbCircle
 10
-11.19
 20
-4.3816195941
 30
0.0
 40
0.0999999999999945
100
AcDbArc
 50
258.0902541149
 51
0.0
  0
ARC
  5
19B
330
1F
100
AcDbEntity
  8
0
  6
Continuous
 62
     7
370
    15
100
AcDbCircle
 10
-11.19
 20
-2.7518192771
 30
0.0
 40
0.1000000000000014
100
AcDbArc
 50
0.0
 51
101.9097458851
  0
ARC
  5
19C
330
1F
100
AcDbEntity
  8
0
  6
Continuous
 62
     7
370
    15
100
AcDbCircle
 10
-11.2829699664
 20
-2.3110167869
 30
0.0
 40
0.3505000000000022
100
AcDbArc
 50
168.3440119
 51
281.9097458851
  0
ARC
  5
19D
330
1F
100
AcDbEntity
  8
0
  6
Continuous
 62
     7
370
    15
100
AcDbCircle
 10
-11.7241798875
 20
-2.22
 30
0.0
 40
0.1000000000000032
100
AcDbArc
 50
348.3440119
 51
90.0
  0
ARC
  5
19E
330
1F
100
AcDbEntity
  8
0
  6
Continuous
 62
     7
370
    15
100
AcDbCircle
 10
-12.2686255192
 20
-2.22
 30
0.0
 40
0.1000000000000006
100
AcDbArc
 50
90.0
 51
191.6559881
  0
ARC
  5
19F
330
1F
100
AcDbEntity
  8
0
  6
Continuous
 62
     7
370
    15
100
AcDbCircle
 10
-12.7098354403
 20
-2.3110167869
 30
0.0
 40
0.3505000000000037
100
AcDbArc
 50
249.1743017037
 51
11.6559881
  0
ARC
  5
1A0
330
1F
100
AcDbEntity
  8
0
  6
Continuous
 62
     7
370
    15
100
AcDbCircle
 10
-12.87
 20
-2.7320839595
 30
0.0
 40
0.0999999999999996
100
AcDbArc
 50
69.1743017037
 51
180.0
  0
ARC
  5
1A1
330
1F
100
AcDbEntity
  8
0
  6
Continuous
 62
     7
370
    15
100
AcDbCircle
 10
-12.87
 20
-4.4013549117
 30
0.0
 40
0.1000000000000005
100
AcDbArc
 50
180.0
 51
290.8256982963
  0
ARC
  5
1A2
330
1F
100
AcDbEntity
  8
0
  6
Continuous
 62
     7
370
    15
100
AcDbCircle
 10
-12.7098354403
 20
-4.8224220843
 30
0.0
 40
0.3505000000000009
100
AcDbArc
 50
351.3726983679
 51
110.8256982963
  0
ARC
  5
1A3
330
1F
100
AcDbEntity
  8
0
  6
Continuous
 62
     7
370
    15
100
AcDbCircle
 10
-9.3516279837
 20
-0.47
 30
0.0
 40
0.1000000000000072
100
AcDbArc
 50
270.0
 51
349.2482617134
  0
ARC
  5
1A4
330
1F
100
AcDbEntity
  8
0
  6
Continuous
 62
     7
370
    15
100
AcDbCircle
 10
-8.825
 20
-0.57
 30
0.0
 40
0.4360382759199619
100
AcDbArc
 50
59.1345946927
 51
169.2482617134
  0
ARC
  5
1A5
330
1F
100
AcDbEntity
  8
0
  6
Continuous
 62
     7
370
    15
100
AcDbCircle
 10
-8.55
 20
-0.1098782408
 30
0.0
 40
0.1000000000000018
100
AcDbArc
 50
239.1345946927
 51
0.0
  0
ARC
  5
1A6
330
1F
100
AcDbEntity
  8
0
  6
Continuous
 62
     7
370
    15
100
AcDbCircle
 10
-8.55
 20
1.73
 30
0.0
 40
0.0999999999999996
100
AcDbArc
 50
0.0
 51
90.0
  0
ARC
  5
1A7
330
1F
100
AcDbEntity
  8
0
  6
Continuous
 62
     7
370
    15
100
AcDbCircle
 10
-9.5106456095
 20
1.73
 30
0.0
 40
0.099999999999997
100
AcDbArc
 50
90.0
 51
167.846802531
  0
ARC
  5
1A8
330
1F
100
AcDbEntity
  8
0
  6
Continuous
 62
     7
370
    15
100
AcDbCircle
 10
-9.975
 20
1.83
 30
0.0
 40
0.3750000000000031
100
AcDbArc
 50
234.6234598481
 51
347.846802531
  0
ARC
  5
1A9
330
1F
100
AcDbEntity
  8
0
  6
Continuous
 62
     7
370
    15
100
AcDbCircle
 10
-10.25
 20
1.4427016654
 30
0.0
 40
0.0999999999999999
100
AcDbArc
 50
54.6234598481
 51
180.0
  0
ARC
  5
1AA
330
1F
100
AcDbEntity
  8
0
  6
Continuous
 62
     7
370
    15
100
AcDbCircle
 10
-10.25
 20
-0.47
 30
0.0
 40
0.0999999999999996
100
AcDbArc
 50
180.0
 51
270.0
  0
ARC
  5
1AB
330
1F
100
AcDbEntity
  8
0
  6
Continuous
 62
     7
370
    15
100
AcDbCircle
 10
-12.2644328412
 20
1.95
 30
0.0
 40
0.0999999999999981
100
AcDbArc
 50
90.0
 51
188.6273016321
  0
ARC
  5
1AC
330
1F
100
AcDbEntity
  8
0
  6
Continuous
 62
     7
370
    15
100
AcDbCircle
 10
-12.7098354403
 20
1.8824220843
 30
0.0
 40
0.3505000000000017
100
AcDbArc
 50
249.1743017037
 51
8.6273016321
  0
ARC
  5
1AD
330
1F
100
AcDbEntity
  8
0
  6
Continuous
 62
     7
370
    15
100
AcDbCircle
 10
-12.87
 20
1.4613549117
 30
0.0
 40
0.0999999999999979
100
AcDbArc
 50
69.1743017037
 51
180.0
  0
ARC
  5
1AE
330
1F
100
AcDbEntity
  8
0
  6
Continuous
 62
     7
370
    15
100
AcDbCircle
 10
-12.87
 20
-0.2079160405
 30
0.0
 40
0.1000000000000014
100
AcDbArc
 50
180.0
 51
290.8256982963
  0
ARC
  5
1AF
330
1F
100
AcDbEntity
  8
0
  6
Continuous
 62
     7
370
    15
100
AcDbCircle
 10
-12.7098354403
 20
-0.6289832131
 30
0.0
 40
0.3504999999999998
100
AcDbArc
 50
348.3440119
 51
110.8256982963
  0
ARC
  5
1B0
330
1F
100
AcDbEntity
  8
0
  6
Continuous
 62
     7
370
    15
100
AcDbCircle
 10
-12.2686255192
 20
-0.72
 30
0.0
 40
0.1000000000000001
100
AcDbArc
 50
168.3440119
 51
270.0
  0
ARC
  5
1B1
330
1F
100
AcDbEntity
  8
0
  6
Continuous
 62
     7
370
    15
100
AcDbCircle
 10
-11.7241798875
 20
-0.72
 30
0.0
 40
0.1000000000000015
100
AcDbArc
 50
270.0
 51
11.6559881
  0
ARC
  5
1B2
330
1F
100
AcDbEntity
  8
0
  6
Continuous
 62
     7
370
    15
100
AcDbCircle
 10
-11.2829699664
 20
-0.6289832131
 30
0.0
 40
0.3505000000000019
100
AcDbArc
 50
78.0902541149
 51
191.6559881
  0
ARC
  5
1B3
330
1F
100
AcDbEntity
  8
0
  6
Continuous
 62
     7
370
    15
100
AcDbCircle
 10
-11.19
 20
-0.1881807229
 30
0.0
 40
0.0999999999999996
100
AcDbArc
 50
258.0902541149
 51
0.0
  0
ARC
  5
1B4
330
1F
100
AcDbEntity
  8
0
  6
Continuous
 62
     7
370
    15
100
AcDbCircle
 10
-11.19
 20
1.4416195941
 30
0.0
 40
0.099999999999998
100
AcDbArc
 50
0.0
 51
101.9097458851
  0
ARC
  5
1B5
330
1F
100
AcDbEntity
  8
0
  6
Continuous
 62
     7
370
    15
100
AcDbCircle
 10
-11.2829699664
 20
1.8824220843
 30
0.0
 40
0.3505000000000006
100
AcDbArc
 50
171.3726983679
 51
281.9097458851
  0
ARC
  5
1B6
330
1F
100
AcDbEntity
  8
0
  6
Continuous
 62
     7
370
    15
100
AcDbCircle
 10
-11.7283725655
 20
1.95
 30
0.0
 40
0.1000000000000008
100
AcDbArc
 50
351.3726983679
 51
90.0
  0
ARC
  5
1B7
330
1F
100
AcDbEntity
  8
0
  6
Continuous
 62
     7
370
    15
100
AcDbCircle
 10
-9.1555671588
 20
-4.89
 30
0.0
 40
0.1000000000000014
100
AcDbArc
 50
270.0
 51
8.6273016321
  0
ARC
  5
1B8
330
1F
100
AcDbEntity
  8
0
  6
Continuous
 62
     7
370
    15
100
AcDbCircle
 10
-8.7101645597
 20
-4.8224220843
 30
0.0
 40
0.3505000000000013
100
AcDbArc
 50
69.1743017037
 51
188.6273016321
  0
ARC
  5
1B9
330
1F
100
AcDbEntity
  8
0
  6
Continuous
 62
     7
370
    15
100
AcDbCircle
 10
-8.55
 20
-4.4013549117
 30
0.0
 40
0.0999999999999982
100
AcDbArc
 50
249.1743017037
 51
0.0
  0
ARC
  5
1BA
330
1F
100
AcDbEntity
  8
0
  6
Continuous
 62
     7
370
    15
100
AcDbCircle
 10
-8.55
 20
-2.7320839595
 30
0.0
 40
0.0999999999999996
100
AcDbArc
 50
0.0
 51
110.8256982963
  0
ARC
  5
1BB
330
1F
100
AcDbEntity
  8
0
  6
Continuous
 62
     7
370
    15
100
AcDbCircle
 10
-8.7101645597
 20
-2.3110167869
 30
0.0
 40
0.3504999999999992
100
AcDbArc
 50
168.3440119
 51
290.8256982963
  0
ARC
  5
1BC
330
1F
100
AcDbEntity
  8
0
  6
Continuous
 62
     7
370
    15
100
AcDbCircle
 10
-9.1513744808
 20
-2.22
 30
0.0
 40
0.0999999999999983
100
AcDbArc
 50
348.3440119
 51
90.0
  0
ARC
  5
1BD
330
1F
100
AcDbEntity
  8
0
  6
Continuous
 62
     7
370
    15
100
AcDbCircle
 10
-9.6958201125
 20
-2.22
 30
0.0
 40
0.0999999999999988
100
AcDbArc
 50
90.0
 51
191.6559881
  0
ARC
  5
1BE
330
1F
100
AcDbEntity
  8
0
  6
Continuous
 62
     7
370
    15
100
AcDbCircle
 10
-10.1370300336
 20
-2.3110167869
 30
0.0
 40
0.3505000000000002
100
AcDbArc
 50
258.0902541149
 51
11.6559881
  0
ARC
  5
1BF
330
1F
100
AcDbEntity
  8
0
  6
Continuous
 62
     7
370
    15
100
AcDbCircle
 10
-10.23
 20
-2.7518192771
 30
0.0
 40
0.1000000000000004
100
AcDbArc
 50
78.0902541149
 51
180.0
  0
ARC
  5
1C0
330
1F
100
AcDbEntity
  8
0
  6
Continuous
 62
     7
370
    15
100
AcDbCircle
 10
-10.23
 20
-4.3816195941
 30
0.0
 40
0.0999999999999983
100
AcDbArc
 50
180.0
 51
281.9097458851
  0
ARC
  5
1C1
330
1F
100
AcDbEntity
  8
0
  6
Continuous
 62
     7
370
    15
100
AcDbCircle
 10
-10.1370300336
 20
-4.8224220843
 30
0.0
 40
0.3504999999999986
100
AcDbArc
 50
351.3726983679
 51
101.9097458851
  0
ARC
  5
1C2
330
1F
100
AcDbEntity
  8
0
  6
Continuous
 62
     7
370
    15
100
AcDbCircle
 10
-9.6916274345
 20
-4.89
 30
0.0
 40
0.1000000000000009
100
AcDbArc
 50
171.3726983679
 51
270.0
  0
ARC
  5
1C3
330
1F
100
AcDbEntity
  8
0
  6
Continuous
 62
     7
370
    15
100
AcDbCircle
 10
-10.7872364605
 20
-9.1309307302
 30
0.0
 40
1.922970546099813
100
AcDbArc
 50
167.508077844
 51
224.6651729054
  0
ARC
  5
1C4
330
1F
100
AcDbEntity
  8
0
  6
Continuous
 62
     7
370
    15
100
AcDbCircle
 10
-10.7872364605
 20
-9.1309307302
 30
0.0
 40
2.182763539513012
100
AcDbArc
 50
169.0146695539
 51
222.7027435366
  0
ARC
  5
1C5
330
1F
100
AcDbEntity
  8
0
  6
Continuous
 62
     7
370
    15
100
AcDbCircle
 10
-10.7872364605
 20
-9.1309307302
 30
0.0
 40
1.922970546099884
100
AcDbArc
 50
142.6275470887
 51
155.3722532517
  0
ARC
  5
1C6
330
1F
100
AcDbEntity
  8
0
  6
Continuous
 62
     7
370
    15
100
AcDbCircle
 10
-10.7872364605
 20
-9.1309307302
 30
0.0
 40
2.182763539513191
100
AcDbArc
 50
147.4760799862
 51
158.4617162231
  0
ARC
  5
1C7
330
1F
100
AcDbEntity
  8
0
  6
Continuous
 62
     7
370
    15
100
AcDbCircle
 10
-10.7872364605
 20
-9.1309307302
 30
0.0
 40
1.922970546099709
100
AcDbArc
 50
24.6277467483
 51
36.2503195381
  0
ARC
  5
1C8
330
1F
100
AcDbEntity
  8
0
  6
Continuous
 62
     7
370
    15
100
AcDbCircle
 10
-10.7872364605
 20
-9.1309307302
 30
0.0
 40
2.182763539513439
100
AcDbArc
 50
21.5382837769
 51
32.5239200138
  0
ARC
  5
1C9
330
1F
100
AcDbEntity
  8
0
  6
Continuous
 62
     7
370
    15
100
AcDbCircle
 10
-10.7872364605
 20
-9.1309307302
 30
0.0
 40
1.922970546099816
100
AcDbArc
 50
53.8455240005
 51
126.4132806066
  0
ARC
  5
1CA
330
1F
100
AcDbEntity
  8
0
  6
Continuous
 62
     7
370
    15
100
AcDbCircle
 10
-10.7872364605
 20
-9.1309307302
 30
0.0
 40
2.18276353951302
100
AcDbArc
 50
51.5466846544
 51
128.5517426132
  0
ARC
  5
1CB
330
1F
100
AcDbEntity
  8
0
  6
Continuous
 62
     7
370
    15
100
AcDbCircle
 10
-10.7872364605
 20
-9.1309307302
 30
0.0
 40
1.922970546099818
100
AcDbArc
 50
313.8841123282
 51
12.491922156
  0
ARC
  5
1CC
330
1F
100
AcDbEntity
  8
0
  6
Continuous
 62
     7
370
    15
100
AcDbCircle
 10
-10.7872364605
 20
-9.1309307302
 30
0.0
 40
2.182763539513018
100
AcDbArc
 50
315.6922119006
 51
10.9853304461
  0
ARC
  5
1CD
330
1F
100
AcDbEntity
  8
0
  6
Continuous
 62
     7
370
    15
100
AcDbCircle
 10
-10.7872364605
 20
-9.1309307302
 30
0.0
 40
2.182763539513037
100
AcDbArc
 50
296.1624429179
 51
308.2773230974
  0
ARC
  5
1CE
330
1F
100
AcDbEntity
  8
0
  6
Continuous
 62
     7
370
    15
100
AcDbCircle
 10
-9.5064793132
 20
-10.753970857
 30
0.0
 40
0.1152534129203606
100
AcDbArc
 50
308.2773230974
 51
323.0494191585
  0
ARC
  5
1CF
330
1F
100
AcDbEntity
  8
0
  6
Continuous
 62
     7
370
    15
100
AcDbCircle
 10
-12.0679936077
 20
-10.753970857
 30
0.0
 40
0.1152534129205989
100
AcDbArc
 50
216.9505808415
 51
231.7226769026
  0
ARC
  5
1D0
330
1F
100
AcDbEntity
  8
0
  6
Continuous
 62
     7
370
    15
100
AcDbCircle
 10
-10.7872364605
 20
-9.1309307302
 30
0.0
 40
2.182763539512654
100
AcDbArc
 50
231.7226769026
 51
243.8375570821
  0
ARC
  5
1D1
330
1F
100
AcDbEntity
  8
0
  6
Continuous
 62
     7
370
    15
100
AcDbCircle
 10
-12.0720651553
 20
-5.48
 30
0.0
 40
0.1000000000000032
100
AcDbArc
 50
90.0
 51
190.6505343772
  0
ARC
  5
1D2
330
1F
100
AcDbEntity
  8
0
  6
Continuous
 62
     7
370
    15
100
AcDbCircle
 10
-12.7649199253
 20
-5.6102968446
 30
0.0
 40
0.6050000000000018
100
AcDbArc
 50
261.4281377172
 51
10.6505343772
  0
ARC
  5
1D3
330
1F
100
AcDbEntity
  8
0
  6
Continuous
 62
     7
370
    15
100
AcDbCircle
 10
-12.87
 20
-6.3074217817
 30
0.0
 40
0.1000000000000014
100
AcDbArc
 50
81.4281377172
 51
180.0
  0
ARC
  5
1D4
330
1F
100
AcDbEntity
  8
0
  6
Continuous
 62
     7
370
    15
100
AcDbCircle
 10
-12.87
 20
-7.2854310809
 30
0.0
 40
0.1000000000000033
100
AcDbArc
 50
180.0
 51
318.4564193211
  0
ARC
  5
1D5
330
1F
100
AcDbEntity
  8
0
  6
Continuous
 62
     7
370
    15
100
AcDbCircle
 10
-10.7872364605
 20
-9.1309307302
 30
0.0
 40
2.682763539513018
100
AcDbArc
 50
36.4898602618
 51
138.4564193211
  0
ARC
  5
1D6
330
1F
100
AcDbEntity
  8
0
  6
Continuous
 62
     7
370
    15
100
AcDbCircle
 10
-8.55
 20
-7.4760754686
 30
0.0
 40
0.1000000000000014
100
AcDbArc
 50
216.4898602618
 51
0.0
  0
ARC
  5
1D7
330
1F
100
AcDbEntity
  8
0
  6
Continuous
 62
     7
370
    15
100
AcDbCircle
 10
-8.55
 20
-6.3074459028
 30
0.0
 40
0.1
100
AcDbArc
 50
0.0
 51
98.5587000528
  0
ARC
  5
1D8
330
1F
100
AcDbEntity
  8
0
  6
Continuous
 62
     7
370
    15
100
AcDbCircle
 10
-8.6549199254
 20
-5.6102968446
 30
0.0
 40
0.6050000000000015
100
AcDbArc
 50
169.3494656228
 51
278.5587000528
  0
ARC
  5
1D9
330
1F
100
AcDbEntity
  8
0
  6
Continuous
 62
     7
370
    15
100
AcDbCircle
 10
-9.3477746954
 20
-5.48
 30
0.0
 40
0.0999999999999988
100
AcDbArc
 50
349.3494656228
 51
90.0
  0
ARC
  5
1DA
330
1F
100
AcDbEntity
  8
0
  6
Continuous
 62
     7
370
    15
100
AcDbCircle
 10
-10.54
 20
2.6495694567
 30
0.0
 40
0.0700000000000003
100
AcDbArc
 50
0.0
 51
90.9924519586
  0
ARC
  5
1DB
330
1F
100
AcDbEntity
  8
0
  6
Continuous
 62
     7
370
    15
100
AcDbCircle
 10
-10.5480194786
 20
3.1125
 30
0.0
 40
0.3929999999999996
100
AcDbArc
 50
89.0075480414
 51
270.9924519586
  0
ARC
  5
1DC
330
1F
100
AcDbEntity
  8
0
  6
Continuous
 62
     7
370
    15
100
AcDbCircle
 10
-10.54
 20
3.5754305433
 30
0.0
 40
0.0700000000000093
100
AcDbArc
 50
269.0075480414
 51
360.0
  0
ARC
  5
1DD
330
1F
100
AcDbEntity
  8
0
  6
Continuous
 62
     7
370
    15
100
AcDbCircle
 10
-10.54
 20
3.605
 30
0.0
 40
0.0700000000000021
100
AcDbArc
 50
0.0
 51
90.0
  0
ARC
  5
1DE
330
1F
100
AcDbEntity
  8
0
  6
Continuous
 62
     7
370
    15
100
AcDbCircle
 10
-12.9
 20
3.605
 30
0.0
 40
0.0700000000000074
100
AcDbArc
 50
90.0
 51
180.0
  0
ARC
  5
1DF
330
1F
100
AcDbEntity
  8
0
  6
Continuous
 62
     7
370
    15
100
AcDbCircle
 10
-12.9
 20
3.5754312166
 30
0.0
 40
0.0700000000000003
100
AcDbArc
 50
180.0
 51
270.9876303243
  0
ARC
  5
1E0
330
1F
100
AcDbEntity
  8
0
  6
Continuous
 62
     7
370
    15
100
AcDbCircle
 10
-12.8920194786
 20
3.1125
 30
0.0
 40
0.3930000000000003
100
AcDbArc
 50
269.0123696758
 51
90.9876303242
  0
ARC
  5
1E1
330
1F
100
AcDbEntity
  8
0
  6
Continuous
 62
     7
370
    15
100
AcDbCircle
 10
-12.9
 20
2.6495687834
 30
0.0
 40
0.0700000000000003
100
AcDbArc
 50
89.0123696758
 51
180.0
  0
ARC
  5
1E2
330
1F
100
AcDbEntity
  8
0
  6
Continuous
 62
     7
370
    15
100
AcDbCircle
 10
-12.9
 20
2.62
 30
0.0
 40
0.0699999999999985
100
AcDbArc
 50
180.0
 51
270.0
  0
ARC
  5
1E3
330
1F
100
AcDbEntity
  8
0
  6
Continuous
 62
     7
370
    15
100
AcDbCircle
 10
-10.54
 20
2.62
 30
0.0
 40
0.0700000000000007
100
AcDbArc
 50
270.0
 51
0.0
  0
MTEXT
  5
1E5
330
1F
100
AcDbEntity
  8
0
  6
Continuous
 62
     7
100
AcDbMText
 10
-14.75
 20
-15.7701404091
 30
0.0
 40
0.1903
 41
0.0
 71
     1
 72
     1
  1
SOLIDWORKS Student Edition.
  7
SLDTEXTSTYLE0
 73
     1
 44
1.0
  0
MTEXT
  5
1E6
330
1F
100
AcDbEntity
  8
0
  6
Continuous
 62
     7
100
AcDbMText
 10
-14.75
 20
-16.0555904091
 30
0.0
 40
0.1903
 41
0.0
 71
     1
 72
     1
  1
For Academic Use Only.
  7
SLDTEXTSTYLE0
 73
     1
 44
1.0
  0
ENDSEC
  0
SECTION
  2
OBJECTS
  0
DICTIONARY
  5
C
330
0
100
AcDbDictionary
281
     1
  3
ACAD_GROUP
350
D
  3
ACAD_LAYOUT
350
1A
  3
ACAD_MLINESTYLE
350
17
  3
ACAD_PLOTSETTINGS
350
19
  3
ACAD_PLOTSTYLENAME
350
E
  3
ACAD_SCALELIST
350
47
  0
DICTIONARY
  5
D
102
{ACAD_REACTORS
330
C
102
}
330
C
100
AcDbDictionary
281
     1
  0
DICTIONARY
  5
1A
102
{ACAD_REACTORS
330
C
102
}
330
C
100
AcDbDictionary
281
     1
  3
Layout1
350
1E
  3
Layout2
350
26
  3
Model
350
22
  0
DICTIONARY
  5
17
102
{ACAD_REACTORS
330
C
102
}
330
C
100
AcDbDictionary
281
     1
  3
Standard
350
18
  0
DICTIONARY
  5
19
102
{ACAD_REACTORS
330
C
102
}
330
C
100
AcDbDictionary
281
     1
  0
ACDBDICTIONARYWDFLT
  5
E
102
{ACAD_REACTORS
330
C
102
}
330
C
100
AcDbDictionary
281
     1
  3
Normal
350
F
100
AcDbDictionaryWithDefault
340
F
  0
DICTIONARY
  5
47
102
{ACAD_REACTORS
330
C
102
}
330
C
100
AcDbDictionary
281
     1
  3
A0
350
48
  3
A1
350
49
  3
A2
350
4A
  3
A3
350
4B
  3
A4
350
4C
  3
A5
350
4D
  3
A6
350
4E
  3
A7
350
4F
  3
A8
350
50
  3
A9
350
51
  3
B0
350
52
  3
B1
350
53
  3
B2
350
54
  3
B3
350
55
  3
B4
350
56
  3
B5
350
57
  3
B6
350
58
  3
B7
350
59
  3
B8
350
5A
  3
B9
350
5B
  3
C0
350
5C
  3
C1
350
5D
  3
C2
350
5E
  3
C3
350
5F
  3
C4
350
60
  3
C5
350
61
  3
C6
350
62
  3
C7
350
63
  3
C8
350
64
  3
C9
350
65
  3
D0
350
66
  3
D1
350
67
  3
D2
350
68
  0
LAYOUT
  5
1E
102
{ACAD_REACTORS
330
1A
102
}
330
1A
100
AcDbPlotSettings
  1

  2
none_device
  4

  6

 40
0.0
 41
0.0
 42
0.0
 43
0.0
 44
0.0
 45
0.0
 46
0.0
 47
0.0
 48
0.0
 49
0.0
140
0.0
141
0.0
142
1.0
143
1.0
 70
   688
 72
     0
 73
     0
 74
     5
  7

 75
    16
147
1.0
148
0.0
149
0.0
100
AcDbLayout
  1
Layout1
 70
     1
 71
     1
 10
0.0
 20
0.0
 11
12.0
 21
9.0
 12
0.0
 22
0.0
 32
0.0
 14
1.0000000000E+20
 24
1.0000000000E+20
 34
1.0000000000E+20
 15
-1.0000000000E+20
 25
-1.0000000000E+20
 35
-1.0000000000E+20
146
0.0
 13
0.0
 23
0.0
 33
0.0
 16
1.0
 26
0.0
 36
0.0
 17
0.0
 27
1.0
 37
0.0
 76
     0
330
1B
  0
LAYOUT
  5
26
102
{ACAD_REACTORS
330
1A
102
}
330
1A
100
AcDbPlotSettings
  1

  2
none_device
  4

  6

 40
0.0
 41
0.0
 42
0.0
 43
0.0
 44
0.0
 45
0.0
 46
0.0
 47
0.0
 48
0.0
 49
0.0
140
0.0
141
0.0
142
1.0
143
1.0
 70
   688
 72
     0
 73
     0
 74
     5
  7

 75
    16
147
1.0
148
0.0
149
0.0
100
AcDbLayout
  1
Layout2
 70
     1
 71
     2
 10
0.0
 20
0.0
 11
0.0
 21
0.0
 12
0.0
 22
0.0
 32
0.0
 14
0.0
 24
0.0
 34
0.0
 15
0.0
 25
0.0
 35
0.0
146
0.0
 13
0.0
 23
0.0
 33
0.0
 16
1.0
 26
0.0
 36
0.0
 17
0.0
 27
1.0
 37
0.0
 76
     0
330
23
  0
LAYOUT
  5
22
102
{ACAD_REACTORS
330
1A
102
}
330
1A
100
AcDbPlotSettings
  1

  2
none_device
  4
ANSI_A_(11.00_x_8.50_Inches)
  6

 40
6.35
 41
19.05
 42
6.35000508
 43
19.05000254
 44
279.4
 45
215.9
 46
256.8376387562
 47
150.9391159116
 48
0.0
 49
0.0
140
0.0
141
0.0
142
0.422758101
143
1.0
 70
  1696
 72
     0
 73
     0
 74
     0
  7

 75
     0
147
0.5913241897
148
-39.4088153714
149
0.0
100
AcDbLayout
  1
Model
 70
     1
 71
     0
 10
0.0
 20
0.0
 11
12.0
 21
9.0
 12
0.0
 22
0.0
 32
0.0
 14
-14.75
 24
-15.73
 34
0.0
 15
-8.25
 25
4.175
 35
0.0
146
0.0
 13
0.0
 23
0.0
 33
0.0
 16
1.0
 26
0.0
 36
0.0
 17
0.0
 27
1.0
 37
0.0
 76
     0
330
1F
331
29
  0
MLINESTYLE
  5
18
102
{ACAD_REACTORS
330
17
102
}
330
17
100
AcDbMlineStyle
  2
Standard
 70
     0
  3

 62
   256
 51
90.0
 52
90.0
 71
     2
 49
0.5
 62
   256
  6
BYLAYER
 49
-0.5
 62
   256
  6
BYLAYER
  0
ACDBPLACEHOLDER
  5
F
102
{ACAD_REACTORS
330
E
102
}
330
E
  0
SCALE
  5
48
102
{ACAD_REACTORS
330
47
102
}
330
47
100
AcDbScale
 70
     0
300
1:1
140
1.0
141
1.0
290
     1
  0
SCALE
  5
49
102
{ACAD_REACTORS
330
47
102
}
330
47
100
AcDbScale
 70
     0
300
1:2
140
1.0
141
2.0
290
     0
  0
SCALE
  5
4A
102
{ACAD_REACTORS
330
47
102
}
330
47
100
AcDbScale
 70
     0
300
1:4
140
1.0
141
4.0
290
     0
  0
SCALE
  5
4B
102
{ACAD_REACTORS
330
47
102
}
330
47
100
AcDbScale
 70
     0
300
1:5
140
1.0
141
5.0
290
     0
  0
SCALE
  5
4C
102
{ACAD_REACTORS
330
47
102
}
330
47
100
AcDbScale
 70
     0
300
1:8
140
1.0
141
8.0
290
     0
  0
SCALE
  5
4D
102
{ACAD_REACTORS
330
47
102
}
330
47
100
AcDbScale
 70
     0
300
1:10
140
1.0
141
10.0
290
     0
  0
SCALE
  5
4E
102
{ACAD_REACTORS
330
47
102
}
330
47
100
AcDbScale
 70
     0
300
1:16
140
1.0
141
16.0
290
     0
  0
SCALE
  5
4F
102
{ACAD_REACTORS
330
47
102
}
330
47
100
AcDbScale
 70
     0
300
1:20
140
1.0
141
20.0
290
     0
  0
SCALE
  5
50
102
{ACAD_REACTORS
330
47
102
}
330
47
100
AcDbScale
 70
     0
300
1:30
140
1.0
141
30.0
290
     0
  0
SCALE
  5
51
102
{ACAD_REACTORS
330
47
102
}
330
47
100
AcDbScale
 70
     0
300
1:40
140
1.0
141
40.0
290
     0
  0
SCALE
  5
52
102
{ACAD_REACTORS
330
47
102
}
330
47
100
AcDbScale
 70
     0
300
1:50
140
1.0
141
50.0
290
     0
  0
SCALE
  5
53
102
{ACAD_REACTORS
330
47
102
}
330
47
100
AcDbScale
 70
     0
300
1:100
140
1.0
141
100.0
290
     0
  0
SCALE
  5
54
102
{ACAD_REACTORS
330
47
102
}
330
47
100
AcDbScale
 70
     0
300
2:1
140
2.0
141
1.0
290
     0
  0
SCALE
  5
55
102
{ACAD_REACTORS
330
47
102
}
330
47
100
AcDbScale
 70
     0
300
4:1
140
4.0
141
1.0
290
     0
  0
SCALE
  5
56
102
{ACAD_REACTORS
330
47
102
}
330
47
100
AcDbScale
 70
     0
300
8:1
140
8.0
141
1.0
290
     0
  0
SCALE
  5
57
102
{ACAD_REACTORS
330
47
102
}
330
47
100
AcDbScale
 70
     0
300
10:1
140
10.0
141
1.0
290
     0
  0
SCALE
  5
58
102
{ACAD_REACTORS
330
47
102
}
330
47
100
AcDbScale
 70
     0
300
100:1
140
100.0
141
1.0
290
     0
  0
SCALE
  5
59
102
{ACAD_REACTORS
330
47
102
}
330
47
100
AcDbScale
 70
     0
300
1/128" = 1'-0"
140
0.0078125
141
12.0
290
     0
  0
SCALE
  5
5A
102
{ACAD_REACTORS
330
47
102
}
330
47
100
AcDbScale
 70
     0
300
1/64" = 1'-0"
140
0.015625
141
12.0
290
     0
  0
SCALE
  5
5B
102
{ACAD_REACTORS
330
47
102
}
330
47
100
AcDbScale
 70
     0
300
1/32" = 1'-0"
140
0.03125
141
12.0
290
     0
  0
SCALE
  5
5C
102
{ACAD_REACTORS
330
47
102
}
330
47
100
AcDbScale
 70
     0
300
1/16" = 1'-0"
140
0.0625
141
12.0
290
     0
  0
SCALE
  5
5D
102
{ACAD_REACTORS
330
47
102
}
330
47
100
AcDbScale
 70
     0
300
3/32" = 1'-0"
140
0.09375
141
12.0
290
     0
  0
SCALE
  5
5E
102
{ACAD_REACTORS
330
47
102
}
330
47
100
AcDbScale
 70
     0
300
1/8" = 1'-0"
140
0.125
141
12.0
290
     0
  0
SCALE
  5
5F
102
{ACAD_REACTORS
330
47
102
}
330
47
100
AcDbScale
 70
     0
300
3/16" = 1'-0"
140
0.1875
141
12.0
290
     0
  0
SCALE
  5
60
102
{ACAD_REACTORS
330
47
102
}
330
47
100
AcDbScale
 70
     0
300
1/4" = 1'-0"
140
0.25
141
12.0
290
     0
  0
SCALE
  5
61
102
{ACAD_REACTORS
330
47
102
}
330
47
100
AcDbScale
 70
     0
300
3/8" = 1'-0"
140
0.375
141
12.0
290
     0
  0
SCALE
  5
62
102
{ACAD_REACTORS
330
47
102
}
330
47
100
AcDbScale
 70
     0
300
1/2" = 1'-0"
140
0.5
141
12.0
290
     0
  0
SCALE
  5
63
102
{ACAD_REACTORS
330
47
102
}
330
47
100
AcDbScale
 70
     0
300
3/4" = 1'-0"
140
0.75
141
12.0
290
     0
  0
SCALE
  5
64
102
{ACAD_REACTORS
330
47
102
}
330
47
100
AcDbScale
 70
     0
300
1" = 1'-0"
140
1.0
141
12.0
290
     0
  0
SCALE
  5
65
102
{ACAD_REACTORS
330
47
102
}
330
47
100
AcDbScale
 70
     0
300
1-1/2" = 1'-0"
140
1.5
141
12.0
290
     0
  0
SCALE
  5
66
102
{ACAD_REACTORS
330
47
102
}
330
47
100
AcDbScale
 70
     0
300
3" = 1'-0"
140
3.0
141
12.0
290
     0
  0
SCALE
  5
67
102
{ACAD_REACTORS
330
47
102
}
330
47
100
AcDbScale
 70
     0
300
6" = 1'-0"
140
6.0
141
12.0
290
     0
  0
SCALE
  5
68
102
{ACAD_REACTORS
330
47
102
}
330
47
100
AcDbScale
 70
     0
300
1'-0" = 1'-0"
140
12.0
141
12.0
290
     0
  0
ENDSEC
  0
EOF
