  0
SECTION
  2
HEADER
  9
$ACADVER
  1
AC1015
  9
$ACADMAINTVER
 70
     6
  9
$DWGCODEPAGE
  3
ANSI_1252
  9
$INSBASE
 10
0.0
 20
0.0
 30
0.0
  9
$EXTMIN
 10
-30.7736472339
 20
1.0
 30
0.0
  9
$EXTMAX
 10
1.5637128464
 20
17.8513967885
 30
0.0
  9
$LIMMIN
 10
0.0
 20
0.0
  9
$LIMMAX
 10
12.0
 20
9.0
  9
$ORTHOMODE
 70
     0
  9
$REGENMODE
 70
     1
  9
$FILLMODE
 70
     1
  9
$QTEXTMODE
 70
     0
  9
$MIRRTEXT
 70
     1
  9
$LTSCALE
 40
1.0
  9
$ATTMODE
 70
     1
  9
$TEXTSIZE
 40
0.1377952756
  9
$TRACEWID
 40
0.05
  9
$TEXTSTYLE
  7
Standard
  9
$CLAYER
  8
0
  9
$CELTYPE
  6
ByLayer
  9
$CECOLOR
 62
   256
  9
$CELTSCALE
 40
1.0
  9
$DISPSILH
 70
     0
  9
$DIMSCALE
 40
1.0
  9
$DIMASZ
 40
0.13
  9
$DIMEXO
 40
0.0393700787
  9
$DIMDLI
 40
0.38
  9
$DIMRND
 40
0.0
  9
$DIMDLE
 40
0.0
  9
$DIMEXE
 40
0.0393700787
  9
$DIMTP
 40
0.0
  9
$DIMTM
 40
0.0
  9
$DIMTXT
 40
0.1377952756
  9
$DIMCEN
 40
0.09
  9
$DIMTSZ
 40
0.0
  9
$DIMTOL
 70
     0
  9
$DIMLIM
 70
     0
  9
$DIMTIH
 70
     1
  9
$DIMTOH
 70
     1
  9
$DIMSE1
 70
     0
  9
$DIMSE2
 70
     0
  9
$DIMTAD
 70
     1
  9
$DIMZIN
 70
     0
  9
$DIMBLK
  1

  9
$DIMASO
 70
     1
  9
$DIMSHO
 70
     1
  9
$DIMPOST
  1

  9
$DIMAPOST
  1

  9
$DIMALT
 70
     0
  9
$DIMALTD
 70
     2
  9
$DIMALTF
 40
25.4
  9
$DIMLFAC
 40
1.0
  9
$DIMTOFL
 70
     0
  9
$DIMTVP
 40
0.0
  9
$DIMTIX
 70
     0
  9
$DIMSOXD
 70
     0
  9
$DIMSAH
 70
     0
  9
$DIMBLK1
  1

  9
$DIMBLK2
  1

  9
$DIMSTYLE
  2
Standard
  9
$DIMCLRD
 70
     0
  9
$DIMCLRE
 70
     0
  9
$DIMCLRT
 70
     0
  9
$DIMTFAC
 40
1.0
  9
$DIMGAP
 40
0.06
  9
$DIMJUST
 70
     0
  9
$DIMSD1
 70
     0
  9
$DIMSD2
 70
     0
  9
$DIMTOLJ
 70
     1
  9
$DIMTZIN
 70
     0
  9
$DIMALTZ
 70
     0
  9
$DIMALTTZ
 70
     0
  9
$DIMUPT
 70
     0
  9
$DIMDEC
 70
     2
  9
$DIMTDEC
 70
     2
  9
$DIMALTU
 70
     2
  9
$DIMALTTD
 70
     2
  9
$DIMTXSTY
  7
Standard
  9
$DIMAUNIT
 70
     0
  9
$DIMADEC
 70
     2
  9
$DIMALTRND
 40
0.0
  9
$DIMAZIN
 70
     0
  9
$DIMDSEP
 70
    46
  9
$DIMATFIT
 70
     3
  9
$DIMFRAC
 70
     0
  9
$DIMLDRBLK
  1

  9
$DIMLUNIT
 70
     2
  9
$DIMLWD
 70
    -2
  9
$DIMLWE
 70
    -2
  9
$DIMTMOVE
 70
     0
  9
$LUNITS
 70
     2
  9
$LUPREC
 70
     2
  9
$SKETCHINC
 40
0.1
  9
$FILLETRAD
 40
0.5
  9
$AUNITS
 70
     0
  9
$AUPREC
 70
     2
  9
$MENU
  1
.
  9
$ELEVATION
 40
0.0
  9
$PELEVATION
 40
0.0
  9
$THICKNESS
 40
0.0
  9
$LIMCHECK
 70
     0
  9
$CHAMFERA
 40
0.0
  9
$CHAMFERB
 40
0.0
  9
$CHAMFERC
 40
0.0
  9
$CHAMFERD
 40
0.0
  9
$SKPOLY
 70
     0
  9
$TDCREATE
 40
2457421.625073137
  9
$TDUCREATE
 40
2457421.95840647
  9
$TDUPDATE
 40
2457421.625486435
  9
$TDUUPDATE
 40
2457421.958819768
  9
$TDINDWG
 40
0.0000000116
  9
$TDUSRTIMER
 40
0.0000000116
  9
$USRTIMER
 70
     1
  9
$ANGBASE
 50
0.0
  9
$ANGDIR
 70
     0
  9
$PDMODE
 70
     0
  9
$PDSIZE
 40
-1.0
  9
$PLINEWID
 40
0.0
  9
$SPLFRAME
 70
     0
  9
$SPLINETYPE
 70
     6
  9
$SPLINESEGS
 70
     8
  9
$HANDSEED
  5
3A7
  9
$SURFTAB1
 70
     6
  9
$SURFTAB2
 70
     6
  9
$SURFTYPE
 70
     6
  9
$SURFU
 70
     6
  9
$SURFV
 70
     6
  9
$UCSBASE
  2

  9
$UCSNAME
  2

  9
$UCSORG
 10
0.0
 20
0.0
 30
0.0
  9
$UCSXDIR
 10
1.0
 20
0.0
 30
0.0
  9
$UCSYDIR
 10
0.0
 20
1.0
 30
0.0
  9
$UCSORTHOREF
  2

  9
$UCSORTHOVIEW
 70
     0
  9
$UCSORGTOP
 10
0.0
 20
0.0
 30
0.0
  9
$UCSORGBOTTOM
 10
0.0
 20
0.0
 30
0.0
  9
$UCSORGLEFT
 10
0.0
 20
0.0
 30
0.0
  9
$UCSORGRIGHT
 10
0.0
 20
0.0
 30
0.0
  9
$UCSORGFRONT
 10
0.0
 20
0.0
 30
0.0
  9
$UCSORGBACK
 10
0.0
 20
0.0
 30
0.0
  9
$PUCSBASE
  2

  9
$PUCSNAME
  2

  9
$PUCSORG
 10
0.0
 20
0.0
 30
0.0
  9
$PUCSXDIR
 10
1.0
 20
0.0
 30
0.0
  9
$PUCSYDIR
 10
0.0
 20
1.0
 30
0.0
  9
$PUCSORTHOREF
  2

  9
$PUCSORTHOVIEW
 70
     0
  9
$PUCSORGTOP
 10
0.0
 20
0.0
 30
0.0
  9
$PUCSORGBOTTOM
 10
0.0
 20
0.0
 30
0.0
  9
$PUCSORGLEFT
 10
0.0
 20
0.0
 30
0.0
  9
$PUCSORGRIGHT
 10
0.0
 20
0.0
 30
0.0
  9
$PUCSORGFRONT
 10
0.0
 20
0.0
 30
0.0
  9
$PUCSORGBACK
 10
0.0
 20
0.0
 30
0.0
  9
$USERI1
 70
     0
  9
$USERI2
 70
     0
  9
$USERI3
 70
     0
  9
$USERI4
 70
     0
  9
$USERI5
 70
     0
  9
$USERR1
 40
0.0
  9
$USERR2
 40
0.0
  9
$USERR3
 40
0.0
  9
$USERR4
 40
0.0
  9
$USERR5
 40
0.0
  9
$WORLDVIEW
 70
     1
  9
$SHADEDGE
 70
     3
  9
$SHADEDIF
 70
    70
  9
$TILEMODE
 70
     1
  9
$MAXACTVP
 70
    64
  9
$PINSBASE
 10
0.0
 20
0.0
 30
0.0
  9
$PLIMCHECK
 70
     0
  9
$PEXTMIN
 10
1.0000000000E+20
 20
1.0000000000E+20
 30
1.0000000000E+20
  9
$PEXTMAX
 10
-1.0000000000E+20
 20
-1.0000000000E+20
 30
-1.0000000000E+20
  9
$PLIMMIN
 10
0.0
 20
0.0
  9
$PLIMMAX
 10
12.0
 20
9.0
  9
$UNITMODE
 70
     0
  9
$VISRETAIN
 70
     1
  9
$PLINEGEN
 70
     0
  9
$PSLTSCALE
 70
     1
  9
$TREEDEPTH
 70
  3020
  9
$CMLSTYLE
  2
Standard
  9
$CMLJUST
 70
     0
  9
$CMLSCALE
 40
1.0
  9
$PROXYGRAPHICS
 70
     1
  9
$MEASUREMENT
 70
     0
  9
$CELWEIGHT
370
    -1
  9
$ENDCAPS
280
     0
  9
$JOINSTYLE
280
     0
  9
$LWDISPLAY
290
     1
  9
$INSUNITS
 70
     1
  9
$HYPERLINKBASE
  1

  9
$STYLESHEET
  1

  9
$XEDIT
290
     1
  9
$CEPSNTYPE
380
     0
  9
$PSTYLEMODE
290
     1
  9
$FINGERPRINTGUID
  2
{BE87A6F5-E0BB-4A53-84BE-562C7FE5781C}
  9
$VERSIONGUID
  2
{FAEB1C32-E019-11D5-929B-00C0DF256EC4}
  9
$EXTNAMES
290
     1
  9
$PSVPSCALE
 40
0.0
  9
$OLESTARTUP
290
     0
  0
ENDSEC
  0
SECTION
  2
CLASSES
  0
CLASS
  1
ACDBDICTIONARYWDFLT
  2
AcDbDictionaryWithDefault
  3
ObjectDBX Classes
 90
        0
280
     0
281
     0
  0
CLASS
  1
VISUALSTYLE
  2
AcDbVisualStyle
  3
ObjectDBX Classes
 90
     4095
280
     0
281
     0
  0
CLASS
  1
MATERIAL
  2
AcDbMaterial
  3
ObjectDBX Classes
 90
     1153
280
     0
281
     0
  0
CLASS
  1
SCALE
  2
AcDbScale
  3
ObjectDBX Classes
 90
     1153
280
     0
281
     0
  0
CLASS
  1
TABLESTYLE
  2
AcDbTableStyle
  3
ObjectDBX Classes
 90
     4095
280
     0
281
     0
  0
CLASS
  1
MLEADERSTYLE
  2
AcDbMLeaderStyle
  3
ACDB_MLEADERSTYLE_CLASS
 90
     4095
280
     0
281
     0
  0
CLASS
  1
SUN
  2
AcDbSun
  3
SCENEOE
 90
     1153
280
     0
281
     0
  0
CLASS
  1
ACDBPLACEHOLDER
  2
AcDbPlaceHolder
  3
ObjectDBX Classes
 90
        0
280
     0
281
     0
  0
CLASS
  1
LAYOUT
  2
AcDbLayout
  3
ObjectDBX Classes
 90
        0
280
     0
281
     0
  0
ENDSEC
  0
SECTION
  2
TABLES
  0
TABLE
  2
VPORT
  5
8
330
0
100
AcDbSymbolTable
 70
     1
  0
VPORT
  5
29
330
8
100
AcDbSymbolTableRecord
100
AcDbViewportTableRecord
  2
*Active
 70
     0
 10
0.0
 20
0.0
 11
1.0
 21
1.0
 12
-14.6049671938
 22
9.4256983943
 13
0.0
 23
0.0
 14
0.5
 24
0.5
 15
0.5
 25
0.5
 16
0.0
 26
0.0
 36
1.0
 17
0.0
 27
0.0
 37
0.0
 40
17.1884247243
 41
1.918972088
 42
50.0
 43
0.0
 44
0.0
 50
0.0
 51
0.0
 71
     0
 72
   100
 73
     1
 74
     3
 75
     0
 76
     0
 77
     0
 78
     0
281
     0
 65
     1
110
0.0
120
0.0
130
0.0
111
1.0
121
0.0
131
0.0
112
0.0
122
1.0
132
0.0
 79
     0
146
0.0
  0
ENDTAB
  0
TABLE
  2
LTYPE
  5
5
330
0
100
AcDbSymbolTable
 70
     6
  0
LTYPE
  5
14
330
5
100
AcDbSymbolTableRecord
100
AcDbLinetypeTableRecord
  2
ByBlock
 70
     0
  3

 72
    65
 73
     0
 40
0.0
  0
LTYPE
  5
15
330
5
100
AcDbSymbolTableRecord
100
AcDbLinetypeTableRecord
  2
ByLayer
 70
     0
  3

 72
    65
 73
     0
 40
0.0
  0
LTYPE
  5
16
330
5
100
AcDbSymbolTableRecord
100
AcDbLinetypeTableRecord
  2
Continuous
 70
     0
  3
Solid line
 72
    65
 73
     0
 40
0.0
  0
LTYPE
  5
6E
330
5
100
AcDbSymbolTableRecord
100
AcDbLinetypeTableRecord
  2
HIDDEN
 70
     0
  3
Hidden __ __ __ __ __ __ __ __ __ __ __ __ __ __
 72
    65
 73
     2
 40
0.075
 49
0.05
 74
     0
 49
-0.025
 74
     0
  0
LTYPE
  5
6F
330
5
100
AcDbSymbolTableRecord
100
AcDbLinetypeTableRecord
  2
PHANTOM
 70
     0
  3
Phantom ______  __  __  ______  __  __  ______
 72
    65
 73
     6
 40
0.5
 49
0.25
 74
     0
 49
-0.05
 74
     0
 49
0.05
 74
     0
 49
-0.05
 74
     0
 49
0.05
 74
     0
 49
-0.05
 74
     0
  0
LTYPE
  5
70
330
5
100
AcDbSymbolTableRecord
100
AcDbLinetypeTableRecord
  2
CENTER
 70
     0
  3
Center ____ _ ____ _ ____ _ ____ _ ____ _ ____
 72
    65
 73
     4
 40
0.4
 49
0.25
 74
     0
 49
-0.05
 74
     0
 49
0.05
 74
     0
 49
-0.05
 74
     0
  0
LTYPE
  5
71
330
5
100
AcDbSymbolTableRecord
100
AcDbLinetypeTableRecord
  2
CENTERX2
 70
     0
  3
Center (2x) ________  __  ________  __  _____
 72
    65
 73
     4
 40
0.8
 49
0.5
 74
     0
 49
-0.1
 74
     0
 49
0.1
 74
     0
 49
-0.1
 74
     0
  0
LTYPE
  5
72
330
5
100
AcDbSymbolTableRecord
100
AcDbLinetypeTableRecord
  2
DOT2
 70
     0
  3
Dot (.5x) ........................................
 72
    65
 73
     2
 40
0.025
 49
0.0
 74
     0
 49
-0.025
 74
     0
  0
ENDTAB
  0
TABLE
  2
LAYER
  5
2
330
0
100
AcDbSymbolTable
 70
     1
  0
LAYER
  5
10
330
2
100
AcDbSymbolTableRecord
100
AcDbLayerTableRecord
  2
0
 70
     0
 62
     7
  6
Continuous
370
    -3
390
F
  0
ENDTAB
  0
TABLE
  2
STYLE
  5
3
330
0
100
AcDbSymbolTable
 70
     2
  0
STYLE
  5
11
330
3
100
AcDbSymbolTableRecord
100
AcDbTextStyleTableRecord
  2
Standard
 70
     0
 40
0.0
 41
1.0
 50
0.0
 71
     0
 42
0.1377952756
  3
txt
  4

  0
STYLE
  5
3A4
330
3
100
AcDbSymbolTableRecord
100
AcDbTextStyleTableRecord
  2
SLDTEXTSTYLE0
 70
     0
 40
0.0
 41
0.7
 50
0.0
 71
     0
 42
0.1377952756
  3
TXT
  4

  0
ENDTAB
  0
TABLE
  2
VIEW
  5
6
330
0
100
AcDbSymbolTable
 70
     0
  0
ENDTAB
  0
TABLE
  2
UCS
  5
7
330
0
100
AcDbSymbolTable
 70
     0
  0
ENDTAB
  0
TABLE
  2
APPID
  5
9
330
0
100
AcDbSymbolTable
 70
     1
  0
APPID
  5
12
330
9
100
AcDbSymbolTableRecord
100
AcDbRegAppTableRecord
  2
ACAD
 70
     0
  0
ENDTAB
  0
TABLE
  2
DIMSTYLE
  5
A
330
0
100
AcDbSymbolTable
 70
     1
100
AcDbDimStyleTable
  0
DIMSTYLE
105
27
330
A
100
AcDbSymbolTableRecord
100
AcDbDimStyleTableRecord
  2
Standard
 70
     0
178
     0
340
11
  0
ENDTAB
  0
TABLE
  2
BLOCK_RECORD
  5
1
330
0
100
AcDbSymbolTable
 70
     1
  0
BLOCK_RECORD
  5
1F
330
1
100
AcDbSymbolTableRecord
100
AcDbBlockTableRecord
  2
*Model_Space
340
22
  0
BLOCK_RECORD
  5
1B
330
1
100
AcDbSymbolTableRecord
100
AcDbBlockTableRecord
  2
*Paper_Space
340
1E
  0
BLOCK_RECORD
  5
23
330
1
100
AcDbSymbolTableRecord
100
AcDbBlockTableRecord
  2
*Paper_Space0
340
26
  0
ENDTAB
  0
ENDSEC
  0
SECTION
  2
BLOCKS
  0
BLOCK
  5
20
330
1F
100
AcDbEntity
  8
0
100
AcDbBlockBegin
  2
*Model_Space
 70
     0
 10
0.0
 20
0.0
 30
0.0
  3
*Model_Space
  1

  0
ENDBLK
  5
21
330
1F
100
AcDbEntity
  8
0
100
AcDbBlockEnd
  0
BLOCK
  5
1C
330
1B
100
AcDbEntity
 67
     1
  8
0
100
AcDbBlockBegin
  2
*Paper_Space
 70
     0
 10
0.0
 20
0.0
 30
0.0
  3
*Paper_Space
  1

  0
ENDBLK
  5
1D
330
1B
100
AcDbEntity
 67
     1
  8
0
100
AcDbBlockEnd
  0
BLOCK
  5
24
330
23
100
AcDbEntity
  8
0
100
AcDbBlockBegin
  2
*Paper_Space0
 70
     0
 10
0.0
 20
0.0
 30
0.0
  3
*Paper_Space0
  1

  0
ENDBLK
  5
25
330
23
100
AcDbEntity
  8
0
100
AcDbBlockEnd
  0
ENDSEC
  0
SECTION
  2
ENTITIES
  0
CIRCLE
  5
73
330
1F
100
AcDbEntity
  8
0
  6
Continuous
 62
     7
370
    15
100
AcDbCircle
 10
-3.386823617
 20
12.0756983943
 30
0.0
 40
0.0999999999999979
  0
CIRCLE
  5
74
330
1F
100
AcDbEntity
  8
0
  6
Continuous
 62
     7
370
    15
100
AcDbCircle
 10
-4.386823617
 20
12.0756983943
 30
0.0
 40
0.0999999999999979
  0
CIRCLE
  5
75
330
1F
100
AcDbEntity
  8
0
  6
Continuous
 62
     7
370
    15
100
AcDbCircle
 10
-5.386823617
 20
12.0756983943
 30
0.0
 40
0.0999999999999979
  0
CIRCLE
  5
76
330
1F
100
AcDbEntity
  8
0
  6
Continuous
 62
     7
370
    15
100
AcDbCircle
 10
-6.386823617
 20
12.0756983943
 30
0.0
 40
0.0999999999999979
  0
CIRCLE
  5
77
330
1F
100
AcDbEntity
  8
0
  6
Continuous
 62
     7
370
    15
100
AcDbCircle
 10
-7.386823617
 20
12.0756983943
 30
0.0
 40
0.0999999999999979
  0
CIRCLE
  5
78
330
1F
100
AcDbEntity
  8
0
  6
Continuous
 62
     7
370
    15
100
AcDbCircle
 10
-8.386823617
 20
12.0756983943
 30
0.0
 40
0.1000000000000014
  0
CIRCLE
  5
79
330
1F
100
AcDbEntity
  8
0
  6
Continuous
 62
     7
370
    15
100
AcDbCircle
 10
-9.386823617
 20
12.0756983943
 30
0.0
 40
0.0999999999999979
  0
CIRCLE
  5
7A
330
1F
100
AcDbEntity
  8
0
  6
Continuous
 62
     7
370
    15
100
AcDbCircle
 10
-10.386823617
 20
12.0756983943
 30
0.0
 40
0.0999999999999979
  0
CIRCLE
  5
7B
330
1F
100
AcDbEntity
  8
0
  6
Continuous
 62
     7
370
    15
100
AcDbCircle
 10
-11.386823617
 20
12.0756983943
 30
0.0
 40
0.1000000000000014
  0
CIRCLE
  5
7C
330
1F
100
AcDbEntity
  8
0
  6
Continuous
 62
     7
370
    15
100
AcDbCircle
 10
-12.386823617
 20
12.0756983943
 30
0.0
 40
0.0999999999999979
  0
CIRCLE
  5
7D
330
1F
100
AcDbEntity
  8
0
  6
Continuous
 62
     7
370
    15
100
AcDbCircle
 10
-13.386823617
 20
12.0756983943
 30
0.0
 40
0.1000000000000014
  0
CIRCLE
  5
7E
330
1F
100
AcDbEntity
  8
0
  6
Continuous
 62
     7
370
    15
100
AcDbCircle
 10
-14.386823617
 20
12.0756983943
 30
0.0
 40
0.0999999999999979
  0
CIRCLE
  5
7F
330
1F
100
AcDbEntity
  8
0
  6
Continuous
 62
     7
370
    15
100
AcDbCircle
 10
-15.386823617
 20
12.0756983943
 30
0.0
 40
0.0999999999999979
  0
CIRCLE
  5
80
330
1F
100
AcDbEntity
  8
0
  6
Continuous
 62
     7
370
    15
100
AcDbCircle
 10
-16.386823617
 20
12.0756983943
 30
0.0
 40
0.1000000000000014
  0
CIRCLE
  5
81
330
1F
100
AcDbEntity
  8
0
  6
Continuous
 62
     7
370
    15
100
AcDbCircle
 10
-17.386823617
 20
12.0756983943
 30
0.0
 40
0.1000000000000014
  0
CIRCLE
  5
82
330
1F
100
AcDbEntity
  8
0
  6
Continuous
 62
     7
370
    15
100
AcDbCircle
 10
-18.386823617
 20
12.0756983943
 30
0.0
 40
0.1000000000000014
  0
CIRCLE
  5
83
330
1F
100
AcDbEntity
  8
0
  6
Continuous
 62
     7
370
    15
100
AcDbCircle
 10
-19.386823617
 20
12.0756983943
 30
0.0
 40
0.0999999999999979
  0
CIRCLE
  5
84
330
1F
100
AcDbEntity
  8
0
  6
Continuous
 62
     7
370
    15
100
AcDbCircle
 10
-20.386823617
 20
12.0756983943
 30
0.0
 40
0.0999999999999961
  0
CIRCLE
  5
85
330
1F
100
AcDbEntity
  8
0
  6
Continuous
 62
     7
370
    15
100
AcDbCircle
 10
-21.386823617
 20
12.0756983943
 30
0.0
 40
0.0999999999999979
  0
CIRCLE
  5
86
330
1F
100
AcDbEntity
  8
0
  6
Continuous
 62
     7
370
    15
100
AcDbCircle
 10
-22.386823617
 20
12.0756983943
 30
0.0
 40
0.0999999999999979
  0
CIRCLE
  5
87
330
1F
100
AcDbEntity
  8
0
  6
Continuous
 62
     7
370
    15
100
AcDbCircle
 10
-23.386823617
 20
12.0756983943
 30
0.0
 40
0.0999999999999908
  0
CIRCLE
  5
88
330
1F
100
AcDbEntity
  8
0
  6
Continuous
 62
     7
370
    15
100
AcDbCircle
 10
-24.386823617
 20
12.0756983943
 30
0.0
 40
0.0999999999999908
  0
CIRCLE
  5
89
330
1F
100
AcDbEntity
  8
0
  6
Continuous
 62
     7
370
    15
100
AcDbCircle
 10
-25.386823617
 20
12.0756983943
 30
0.0
 40
0.0999999999999961
  0
CIRCLE
  5
8A
330
1F
100
AcDbEntity
  8
0
  6
Continuous
 62
     7
370
    15
100
AcDbCircle
 10
-26.386823617
 20
12.0756983943
 30
0.0
 40
0.0999999999999961
  0
CIRCLE
  5
8B
330
1F
100
AcDbEntity
  8
0
  6
Continuous
 62
     7
370
    15
100
AcDbCircle
 10
-27.386823617
 20
12.0756983943
 30
0.0
 40
0.0999999999999979
  0
CIRCLE
  5
8C
330
1F
100
AcDbEntity
  8
0
  6
Continuous
 62
     7
370
    15
100
AcDbCircle
 10
-28.386823617
 20
12.0756983943
 30
0.0
 40
0.0999999999999908
  0
CIRCLE
  5
8D
330
1F
100
AcDbEntity
  8
0
  6
Continuous
 62
     7
370
    15
100
AcDbCircle
 10
-29.386823617
 20
12.0756983943
 30
0.0
 40
0.0999999999999961
  0
CIRCLE
  5
8E
330
1F
100
AcDbEntity
  8
0
  6
Continuous
 62
     7
370
    15
100
AcDbCircle
 10
-30.386823617
 20
12.0756983943
 30
0.0
 40
0.0999999999999961
  0
CIRCLE
  5
8F
330
1F
100
AcDbEntity
  8
0
  6
Continuous
 62
     7
370
    15
100
AcDbCircle
 10
-30.386823617
 20
6.7756983943
 30
0.0
 40
0.0999999999999952
  0
CIRCLE
  5
90
330
1F
100
AcDbEntity
  8
0
  6
Continuous
 62
     7
370
    15
100
AcDbCircle
 10
-29.386823617
 20
6.7756983943
 30
0.0
 40
0.0999999999999952
  0
CIRCLE
  5
91
330
1F
100
AcDbEntity
  8
0
  6
Continuous
 62
     7
370
    15
100
AcDbCircle
 10
-28.386823617
 20
6.7756983943
 30
0.0
 40
0.0999999999999917
  0
CIRCLE
  5
92
330
1F
100
AcDbEntity
  8
0
  6
Continuous
 62
     7
370
    15
100
AcDbCircle
 10
-27.386823617
 20
6.7756983943
 30
0.0
 40
0.0999999999999979
  0
CIRCLE
  5
93
330
1F
100
AcDbEntity
  8
0
  6
Continuous
 62
     7
370
    15
100
AcDbCircle
 10
-26.386823617
 20
6.7756983943
 30
0.0
 40
0.0999999999999952
  0
CIRCLE
  5
94
330
1F
100
AcDbEntity
  8
0
  6
Continuous
 62
     7
370
    15
100
AcDbCircle
 10
-25.386823617
 20
6.7756983943
 30
0.0
 40
0.0999999999999952
  0
CIRCLE
  5
95
330
1F
100
AcDbEntity
  8
0
  6
Continuous
 62
     7
370
    15
100
AcDbCircle
 10
-24.386823617
 20
6.7756983943
 30
0.0
 40
0.0999999999999917
  0
CIRCLE
  5
96
330
1F
100
AcDbEntity
  8
0
  6
Continuous
 62
     7
370
    15
100
AcDbCircle
 10
-23.386823617
 20
6.7756983943
 30
0.0
 40
0.0999999999999917
  0
CIRCLE
  5
97
330
1F
100
AcDbEntity
  8
0
  6
Continuous
 62
     7
370
    15
100
AcDbCircle
 10
-22.386823617
 20
6.7756983943
 30
0.0
 40
0.099999999999997
  0
CIRCLE
  5
98
330
1F
100
AcDbEntity
  8
0
  6
Continuous
 62
     7
370
    15
100
AcDbCircle
 10
-21.386823617
 20
6.7756983943
 30
0.0
 40
0.0999999999999979
  0
CIRCLE
  5
99
330
1F
100
AcDbEntity
  8
0
  6
Continuous
 62
     7
370
    15
100
AcDbCircle
 10
-20.386823617
 20
6.7756983943
 30
0.0
 40
0.0999999999999952
  0
CIRCLE
  5
9A
330
1F
100
AcDbEntity
  8
0
  6
Continuous
 62
     7
370
    15
100
AcDbCircle
 10
-19.386823617
 20
6.7756983943
 30
0.0
 40
0.0999999999999943
  0
CIRCLE
  5
9B
330
1F
100
AcDbEntity
  8
0
  6
Continuous
 62
     7
370
    15
100
AcDbCircle
 10
-18.386823617
 20
6.7756983943
 30
0.0
 40
0.1000000000000032
  0
CIRCLE
  5
9C
330
1F
100
AcDbEntity
  8
0
  6
Continuous
 62
     7
370
    15
100
AcDbCircle
 10
-17.386823617
 20
6.7756983943
 30
0.0
 40
0.0999999999999996
  0
CIRCLE
  5
9D
330
1F
100
AcDbEntity
  8
0
  6
Continuous
 62
     7
370
    15
100
AcDbCircle
 10
-16.386823617
 20
6.7756983943
 30
0.0
 40
0.1000000000000032
  0
CIRCLE
  5
9E
330
1F
100
AcDbEntity
  8
0
  6
Continuous
 62
     7
370
    15
100
AcDbCircle
 10
-15.386823617
 20
6.7756983943
 30
0.0
 40
0.0999999999999996
  0
CIRCLE
  5
9F
330
1F
100
AcDbEntity
  8
0
  6
Continuous
 62
     7
370
    15
100
AcDbCircle
 10
-14.386823617
 20
6.7756983943
 30
0.0
 40
0.0999999999999996
  0
CIRCLE
  5
A0
330
1F
100
AcDbEntity
  8
0
  6
Continuous
 62
     7
370
    15
100
AcDbCircle
 10
-13.386823617
 20
6.7756983943
 30
0.0
 40
0.0999999999999996
  0
CIRCLE
  5
A1
330
1F
100
AcDbEntity
  8
0
  6
Continuous
 62
     7
370
    15
100
AcDbCircle
 10
-12.386823617
 20
6.7756983943
 30
0.0
 40
0.0999999999999979
  0
CIRCLE
  5
A2
330
1F
100
AcDbEntity
  8
0
  6
Continuous
 62
     7
370
    15
100
AcDbCircle
 10
-11.386823617
 20
6.7756983943
 30
0.0
 40
0.099999999999997
  0
CIRCLE
  5
A3
330
1F
100
AcDbEntity
  8
0
  6
Continuous
 62
     7
370
    15
100
AcDbCircle
 10
-10.386823617
 20
6.7756983943
 30
0.0
 40
0.0999999999999996
  0
CIRCLE
  5
A4
330
1F
100
AcDbEntity
  8
0
  6
Continuous
 62
     7
370
    15
100
AcDbCircle
 10
-9.386823617
 20
6.7756983943
 30
0.0
 40
0.0999999999999996
  0
CIRCLE
  5
A5
330
1F
100
AcDbEntity
  8
0
  6
Continuous
 62
     7
370
    15
100
AcDbCircle
 10
-8.386823617
 20
6.7756983943
 30
0.0
 40
0.0999999999999996
  0
CIRCLE
  5
A6
330
1F
100
AcDbEntity
  8
0
  6
Continuous
 62
     7
370
    15
100
AcDbCircle
 10
-7.386823617
 20
6.7756983943
 30
0.0
 40
0.1000000000000005
  0
CIRCLE
  5
A7
330
1F
100
AcDbEntity
  8
0
  6
Continuous
 62
     7
370
    15
100
AcDbCircle
 10
-6.386823617
 20
6.7756983943
 30
0.0
 40
0.0999999999999996
  0
CIRCLE
  5
A8
330
1F
100
AcDbEntity
  8
0
  6
Continuous
 62
     7
370
    15
100
AcDbCircle
 10
-5.386823617
 20
6.7756983943
 30
0.0
 40
0.1000000000000005
  0
CIRCLE
  5
A9
330
1F
100
AcDbEntity
  8
0
  6
Continuous
 62
     7
370
    15
100
AcDbCircle
 10
-4.386823617
 20
6.7756983943
 30
0.0
 40
0.1000000000000005
  0
CIRCLE
  5
AA
330
1F
100
AcDbEntity
  8
0
  6
Continuous
 62
     7
370
    15
100
AcDbCircle
 10
-3.386823617
 20
6.7756983943
 30
0.0
 40
0.0999999999999996
  0
CIRCLE
  5
AB
330
1F
100
AcDbEntity
  8
0
  6
Continuous
 62
     7
370
    15
100
AcDbCircle
 10
-30.2736472339
 20
11.4256983943
 30
0.0
 40
0.0999999999999943
  0
CIRCLE
  5
AC
330
1F
100
AcDbEntity
  8
0
  6
Continuous
 62
     7
370
    15
100
AcDbCircle
 10
-30.2736472339
 20
10.4256983943
 30
0.0
 40
0.0999999999999961
  0
CIRCLE
  5
AD
330
1F
100
AcDbEntity
  8
0
  6
Continuous
 62
     7
370
    15
100
AcDbCircle
 10
-30.2736472339
 20
9.4256983943
 30
0.0
 40
0.1000000000000014
  0
CIRCLE
  5
AE
330
1F
100
AcDbEntity
  8
0
  6
Continuous
 62
     7
370
    15
100
AcDbCircle
 10
-30.2736472339
 20
8.4256983943
 30
0.0
 40
0.0999999999999996
  0
CIRCLE
  5
AF
330
1F
100
AcDbEntity
  8
0
  6
Continuous
 62
     7
370
    15
100
AcDbCircle
 10
-30.2736472339
 20
7.4256983943
 30
0.0
 40
0.0999999999999988
  0
CIRCLE
  5
163
330
1F
100
AcDbEntity
  8
0
  6
Continuous
 62
     7
370
    15
100
AcDbCircle
 10
-0.75
 20
13.3481798175
 30
0.0
 40
0.4374999999999982
  0
CIRCLE
  5
164
330
1F
100
AcDbEntity
  8
0
  6
Continuous
 62
     7
370
    15
100
AcDbCircle
 10
-21.655609372
 20
15.8976846402
 30
0.0
 40
0.5640000000000107
  0
CIRCLE
  5
165
330
1F
100
AcDbEntity
  8
0
  6
Continuous
 62
     7
370
    15
100
AcDbCircle
 10
-17.9410894651
 20
16.8513967885
 30
0.0
 40
0.5624999999999929
  0
CIRCLE
  5
166
330
1F
100
AcDbEntity
  8
0
  6
Continuous
 62
     7
370
    15
100
AcDbCircle
 10
-14.2265695583
 20
15.8976846402
 30
0.0
 40
0.5640000000000036
  0
CIRCLE
  5
167
330
1F
100
AcDbEntity
  8
0
  6
Continuous
 62
     7
370
    15
100
AcDbCircle
 10
-10.6265695583
 20
15.8976846402
 30
0.0
 40
0.5640000000000036
  0
CIRCLE
  5
168
330
1F
100
AcDbEntity
  8
0
  6
Continuous
 62
     7
370
    15
100
AcDbCircle
 10
-29.0
 20
16.7263967885
 30
0.0
 40
0.5625000000000036
  0
CIRCLE
  5
169
330
1F
100
AcDbEntity
  8
0
  6
Continuous
 62
     7
370
    15
100
AcDbCircle
 10
-6.8821789303
 20
16.7263967885
 30
0.0
 40
0.5625
  0
CIRCLE
  5
16A
330
1F
100
AcDbEntity
  8
0
  6
Continuous
 62
     7
370
    15
100
AcDbCircle
 10
-25.255609372
 20
15.8976846402
 30
0.0
 40
0.5640000000000107
  0
CIRCLE
  5
16B
330
1F
100
AcDbEntity
  8
0
  6
Continuous
 62
     7
370
    15
100
AcDbCircle
 10
-3.8470598941
 20
15.6312121193
 30
0.0
 40
0.0999999999999996
  0
CIRCLE
  5
16C
330
1F
100
AcDbEntity
  8
0
  6
Continuous
 62
     7
370
    15
100
AcDbCircle
 10
-29.951982053
 20
14.5856852845
 30
0.0
 40
0.0999999999999979
  0
CIRCLE
  5
16D
330
1F
100
AcDbEntity
  8
0
  6
Continuous
 62
     7
370
    15
100
AcDbCircle
 10
-4.1542419107
 20
15.8463032829
 30
0.0
 40
0.0999999999999979
  0
CIRCLE
  5
16E
330
1F
100
AcDbEntity
  8
0
  6
Continuous
 62
     7
370
    15
100
AcDbCircle
 10
-4.4614239273
 20
16.0613944465
 30
0.0
 40
0.0999999999999979
  0
CIRCLE
  5
16F
330
1F
100
AcDbEntity
  8
0
  6
Continuous
 62
     7
370
    15
100
AcDbCircle
 10
-9.4265695583
 20
14.6476846402
 30
0.0
 40
0.1000000000000014
  0
CIRCLE
  5
170
330
1F
100
AcDbEntity
  8
0
  6
Continuous
 62
     7
370
    15
100
AcDbCircle
 10
-11.9265695583
 20
14.4476846402
 30
0.0
 40
0.0999999999999996
  0
CIRCLE
  5
171
330
1F
100
AcDbEntity
  8
0
  6
Continuous
 62
     7
370
    15
100
AcDbCircle
 10
-12.9265695583
 20
14.4476846402
 30
0.0
 40
0.0999999999999996
  0
CIRCLE
  5
172
330
1F
100
AcDbEntity
  8
0
  6
Continuous
 62
     7
370
    15
100
AcDbCircle
 10
-12.4265695583
 20
14.8976846402
 30
0.0
 40
0.079500000000003
  0
CIRCLE
  5
173
330
1F
100
AcDbEntity
  8
0
  6
Continuous
 62
     7
370
    15
100
AcDbCircle
 10
-9.4265695583
 20
17.1476846402
 30
0.0
 40
0.1000000000000014
  0
CIRCLE
  5
174
330
1F
100
AcDbEntity
  8
0
  6
Continuous
 62
     7
370
    15
100
AcDbCircle
 10
-11.9265695583
 20
17.3476846402
 30
0.0
 40
0.0999999999999979
  0
CIRCLE
  5
175
330
1F
100
AcDbEntity
  8
0
  6
Continuous
 62
     7
370
    15
100
AcDbCircle
 10
-12.4265695583
 20
16.8976846402
 30
0.0
 40
0.079500000000003
  0
CIRCLE
  5
176
330
1F
100
AcDbEntity
  8
0
  6
Continuous
 62
     7
370
    15
100
AcDbCircle
 10
-12.9265695583
 20
17.3476846402
 30
0.0
 40
0.1000000000000014
  0
CIRCLE
  5
177
330
1F
100
AcDbEntity
  8
0
  6
Continuous
 62
     7
370
    15
100
AcDbCircle
 10
-15.4265695583
 20
17.1476846402
 30
0.0
 40
0.0999999999999943
  0
CIRCLE
  5
178
330
1F
100
AcDbEntity
  8
0
  6
Continuous
 62
     7
370
    15
100
AcDbCircle
 10
-15.4265695583
 20
14.6476846402
 30
0.0
 40
0.0999999999999943
  0
CIRCLE
  5
179
330
1F
100
AcDbEntity
  8
0
  6
Continuous
 62
     7
370
    15
100
AcDbCircle
 10
-20.2448103994
 20
14.7972817251
 30
0.0
 40
0.0999999999999996
  0
CIRCLE
  5
17A
330
1F
100
AcDbEntity
  8
0
  6
Continuous
 62
     7
370
    15
100
AcDbCircle
 10
-20.455609372
 20
17.1476846402
 30
0.0
 40
0.0999999999999943
  0
CIRCLE
  5
17B
330
1F
100
AcDbEntity
  8
0
  6
Continuous
 62
     7
370
    15
100
AcDbCircle
 10
-23.080609372
 20
14.9706598294
 30
0.0
 40
0.0999999999999961
  0
CIRCLE
  5
17C
330
1F
100
AcDbEntity
  8
0
  6
Continuous
 62
     7
370
    15
100
AcDbCircle
 10
-26.455609372
 20
17.1476846402
 30
0.0
 40
0.0999999999999979
  0
CIRCLE
  5
17D
330
1F
100
AcDbEntity
  8
0
  6
Continuous
 62
     7
370
    15
100
AcDbCircle
 10
-23.830609372
 20
17.3976846402
 30
0.0
 40
0.0999999999999979
  0
CIRCLE
  5
17E
330
1F
100
AcDbEntity
  8
0
  6
Continuous
 62
     7
370
    15
100
AcDbCircle
 10
-23.830609372
 20
16.8247094511
 30
0.0
 40
0.1000000000000085
  0
CIRCLE
  5
17F
330
1F
100
AcDbEntity
  8
0
  6
Continuous
 62
     7
370
    15
100
AcDbCircle
 10
-23.080609372
 20
17.3976846402
 30
0.0
 40
0.0999999999999979
  0
CIRCLE
  5
180
330
1F
100
AcDbEntity
  8
0
  6
Continuous
 62
     7
370
    15
100
AcDbCircle
 10
-30.0782143265
 20
13.9735656776
 30
0.0
 40
0.0875000000000004
  0
CIRCLE
  5
181
330
1F
100
AcDbEntity
  8
0
  6
Continuous
 62
     7
370
    15
100
AcDbCircle
 10
-30.0150981898
 20
14.2796254811
 30
0.0
 40
0.0999999999999961
  0
CIRCLE
  5
1C4
330
1F
100
AcDbEntity
  8
0
  6
Continuous
 62
     7
370
    15
100
AcDbCircle
 10
0.9699628464
 20
5.5032169711
 30
0.0
 40
0.4374999999999982
  0
SPLINE
  5
1DD
330
1F
100
AcDbEntity
  8
0
  6
Continuous
 62
     7
370
    15
100
AcDbSpline
210
0.0
220
0.0
230
1.0
 70
     8
 71
     3
 72
    16
 73
    12
 74
     0
 42
0.000000001
 43
0.00000001
 40
0.0
 40
0.0
 40
0.0
 40
0.0
 40
0.2059132395025716
 40
0.3725710672172428
 40
0.5000370446126308
 40
0.5951057632728245
 40
0.6853023446713735
 40
0.7707418593497365
 40
0.8515597001100624
 40
0.9279158488215046
 40
1.0
 40
1.0
 40
1.0
 40
1.0
 10
-1.036926917388064
 20
3.373142718035678
 30
0.0
 10
-1.049144149716169
 20
3.361687556089372
 30
0.0
 10
-1.071249514567496
 20
3.340961050490262
 30
0.0
 10
-1.101379313795357
 20
3.313642560341225
 30
0.0
 10
-1.125302741838183
 20
3.292905854164745
 30
0.0
 10
-1.145160804854912
 20
3.277004084821524
 30
0.0
 10
-1.162792442024159
 20
3.263811465758463
 30
0.0
 10
-1.179954370952699
 20
3.251945938795157
 30
0.0
 10
-1.196656227111615
 20
3.241430928793923
 30
0.0
 10
-1.212853877684052
 20
3.232168443852183
 30
0.0
 10
-1.223724231370487
 20
3.226908823540559
 30
0.0
 10
-1.229002988009201
 20
3.224354697296095
 30
0.0
  0
CIRCLE
  5
1E9
330
1F
100
AcDbEntity
  8
0
  6
Continuous
 62
     7
370
    15
100
AcDbCircle
 10
-21.655609372
 20
2.9537121483
 30
0.0
 40
0.5640000000000107
  0
CIRCLE
  5
1EA
330
1F
100
AcDbEntity
  8
0
  6
Continuous
 62
     7
370
    15
100
AcDbCircle
 10
-17.9410894651
 20
2.0
 30
0.0
 40
0.5625
  0
CIRCLE
  5
1EB
330
1F
100
AcDbEntity
  8
0
  6
Continuous
 62
     7
370
    15
100
AcDbCircle
 10
-14.2265695583
 20
2.9537121483
 30
0.0
 40
0.5640000000000036
  0
CIRCLE
  5
1EC
330
1F
100
AcDbEntity
  8
0
  6
Continuous
 62
     7
370
    15
100
AcDbCircle
 10
-10.6265695583
 20
2.9537121483
 30
0.0
 40
0.5640000000000036
  0
CIRCLE
  5
1ED
330
1F
100
AcDbEntity
  8
0
  6
Continuous
 62
     7
370
    15
100
AcDbCircle
 10
-29.0
 20
2.125
 30
0.0
 40
0.5625
  0
CIRCLE
  5
1EE
330
1F
100
AcDbEntity
  8
0
  6
Continuous
 62
     7
370
    15
100
AcDbCircle
 10
-6.8821789303
 20
2.125
 30
0.0
 40
0.5625000000000009
  0
CIRCLE
  5
1EF
330
1F
100
AcDbEntity
  8
0
  6
Continuous
 62
     7
370
    15
100
AcDbCircle
 10
-25.255609372
 20
2.9537121483
 30
0.0
 40
0.5640000000000107
  0
CIRCLE
  5
1F0
330
1F
100
AcDbEntity
  8
0
  6
Continuous
 62
     7
370
    15
100
AcDbCircle
 10
-3.8470598941
 20
3.2201846693
 30
0.0
 40
0.0999999999999996
  0
CIRCLE
  5
1F1
330
1F
100
AcDbEntity
  8
0
  6
Continuous
 62
     7
370
    15
100
AcDbCircle
 10
-29.951982053
 20
4.265711504
 30
0.0
 40
0.0999999999999979
  0
CIRCLE
  5
1F2
330
1F
100
AcDbEntity
  8
0
  6
Continuous
 62
     7
370
    15
100
AcDbCircle
 10
-4.1542419107
 20
3.0050935056
 30
0.0
 40
0.0999999999999983
  0
CIRCLE
  5
1F3
330
1F
100
AcDbEntity
  8
0
  6
Continuous
 62
     7
370
    15
100
AcDbCircle
 10
-4.4614239273
 20
2.790002342
 30
0.0
 40
0.1000000000000005
  0
CIRCLE
  5
1F4
330
1F
100
AcDbEntity
  8
0
  6
Continuous
 62
     7
370
    15
100
AcDbCircle
 10
-9.4265695583
 20
4.2037121483
 30
0.0
 40
0.1000000000000005
  0
CIRCLE
  5
1F5
330
1F
100
AcDbEntity
  8
0
  6
Continuous
 62
     7
370
    15
100
AcDbCircle
 10
-11.9265695583
 20
4.4037121483
 30
0.0
 40
0.0999999999999996
  0
CIRCLE
  5
1F6
330
1F
100
AcDbEntity
  8
0
  6
Continuous
 62
     7
370
    15
100
AcDbCircle
 10
-12.9265695583
 20
4.4037121483
 30
0.0
 40
0.1000000000000005
  0
CIRCLE
  5
1F7
330
1F
100
AcDbEntity
  8
0
  6
Continuous
 62
     7
370
    15
100
AcDbCircle
 10
-12.4265695583
 20
3.9537121483
 30
0.0
 40
0.0794999999999981
  0
CIRCLE
  5
1F8
330
1F
100
AcDbEntity
  8
0
  6
Continuous
 62
     7
370
    15
100
AcDbCircle
 10
-9.4265695583
 20
1.7037121483
 30
0.0
 40
0.0999999999999992
  0
CIRCLE
  5
1F9
330
1F
100
AcDbEntity
  8
0
  6
Continuous
 62
     7
370
    15
100
AcDbCircle
 10
-11.9265695583
 20
1.5037121483
 30
0.0
 40
0.0999999999999992
  0
CIRCLE
  5
1FA
330
1F
100
AcDbEntity
  8
0
  6
Continuous
 62
     7
370
    15
100
AcDbCircle
 10
-12.4265695583
 20
1.9537121483
 30
0.0
 40
0.0795000000000023
  0
CIRCLE
  5
1FB
330
1F
100
AcDbEntity
  8
0
  6
Continuous
 62
     7
370
    15
100
AcDbCircle
 10
-12.9265695583
 20
1.5037121483
 30
0.0
 40
0.0999999999999992
  0
CIRCLE
  5
1FC
330
1F
100
AcDbEntity
  8
0
  6
Continuous
 62
     7
370
    15
100
AcDbCircle
 10
-15.4265695583
 20
1.7037121483
 30
0.0
 40
0.0999999999999959
  0
CIRCLE
  5
1FD
330
1F
100
AcDbEntity
  8
0
  6
Continuous
 62
     7
370
    15
100
AcDbCircle
 10
-15.4265695583
 20
4.2037121483
 30
0.0
 40
0.0999999999999952
  0
CIRCLE
  5
1FE
330
1F
100
AcDbEntity
  8
0
  6
Continuous
 62
     7
370
    15
100
AcDbCircle
 10
-20.2448103994
 20
4.0541150634
 30
0.0
 40
0.0999999999999988
  0
CIRCLE
  5
1FF
330
1F
100
AcDbEntity
  8
0
  6
Continuous
 62
     7
370
    15
100
AcDbCircle
 10
-20.455609372
 20
1.7037121483
 30
0.0
 40
0.1000000000000021
  0
CIRCLE
  5
200
330
1F
100
AcDbEntity
  8
0
  6
Continuous
 62
     7
370
    15
100
AcDbCircle
 10
-23.080609372
 20
3.8807369592
 30
0.0
 40
0.0999999999999996
  0
CIRCLE
  5
201
330
1F
100
AcDbEntity
  8
0
  6
Continuous
 62
     7
370
    15
100
AcDbCircle
 10
-26.455609372
 20
1.7037121483
 30
0.0
 40
0.0999999999999988
  0
CIRCLE
  5
202
330
1F
100
AcDbEntity
  8
0
  6
Continuous
 62
     7
370
    15
100
AcDbCircle
 10
-23.830609372
 20
1.4537121483
 30
0.0
 40
0.0999999999999994
  0
CIRCLE
  5
203
330
1F
100
AcDbEntity
  8
0
  6
Continuous
 62
     7
370
    15
100
AcDbCircle
 10
-23.830609372
 20
2.0266873374
 30
0.0
 40
0.1000000000000054
  0
CIRCLE
  5
204
330
1F
100
AcDbEntity
  8
0
  6
Continuous
 62
     7
370
    15
100
AcDbCircle
 10
-23.080609372
 20
1.4537121483
 30
0.0
 40
0.0999999999999994
  0
CIRCLE
  5
205
330
1F
100
AcDbEntity
  8
0
  6
Continuous
 62
     7
370
    15
100
AcDbCircle
 10
-30.0782143265
 20
4.8778311109
 30
0.0
 40
0.0874999999999986
  0
CIRCLE
  5
206
330
1F
100
AcDbEntity
  8
0
  6
Continuous
 62
     7
370
    15
100
AcDbCircle
 10
-30.0150981898
 20
4.5717713075
 30
0.0
 40
0.0999999999999996
  0
CIRCLE
  5
207
330
1F
100
AcDbEntity
  8
0
  6
Continuous
 62
     7
370
    15
100
AcDbCircle
 10
-4.3161070295
 20
4.975
 30
0.0
 40
0.5624999999999996
  0
LINE
  5
24A
330
1F
100
AcDbEntity
  8
0
  6
Continuous
 62
     7
370
    15
100
AcDbLine
 10
-28.0479815905
 20
8.8756983943
 30
0.0
 11
-28.6870446935
 21
7.7688086305
 31
0.0
  0
LINE
  5
24B
330
1F
100
AcDbEntity
  8
0
  6
Continuous
 62
     7
370
    15
100
AcDbLine
 10
-28.6004421532
 20
7.6188086305
 30
0.0
 11
-27.322315947
 21
7.6188086305
 31
0.0
  0
LINE
  5
24C
330
1F
100
AcDbEntity
  8
0
  6
Continuous
 62
     7
370
    15
100
AcDbLine
 10
-27.2357134066
 20
7.7688086305
 30
0.0
 11
-27.8747765097
 21
8.8756983943
 31
0.0
  0
LINE
  5
24D
330
1F
100
AcDbEntity
  8
0
  6
Continuous
 62
     7
370
    15
100
AcDbLine
 10
-25.932697494
 20
9.0256983943
 30
0.0
 11
-27.2108237001
 21
9.0256983943
 31
0.0
  0
LINE
  5
24E
330
1F
100
AcDbEntity
  8
0
  6
Continuous
 62
     7
370
    15
100
AcDbLine
 10
-27.2974262405
 20
8.8756983943
 30
0.0
 11
-26.6583631374
 21
7.7688086305
 31
0.0
  0
LINE
  5
24F
330
1F
100
AcDbEntity
  8
0
  6
Continuous
 62
     7
370
    15
100
AcDbLine
 10
-26.4851580567
 20
7.7688086305
 30
0.0
 11
-25.8460949536
 21
8.8756983943
 31
0.0
  0
LINE
  5
250
330
1F
100
AcDbEntity
  8
0
  6
Continuous
 62
     7
370
    15
100
AcDbLine
 10
-23.1534605879
 20
9.0256983943
 30
0.0
 11
-24.4315867941
 21
9.0256983943
 31
0.0
  0
LINE
  5
251
330
1F
100
AcDbEntity
  8
0
  6
Continuous
 62
     7
370
    15
100
AcDbLine
 10
-24.5181893345
 20
8.8756983943
 30
0.0
 11
-23.8791262314
 21
7.7688086305
 31
0.0
  0
LINE
  5
252
330
1F
100
AcDbEntity
  8
0
  6
Continuous
 62
     7
370
    15
100
AcDbLine
 10
-23.7059211506
 20
7.7688086305
 30
0.0
 11
-23.0668580475
 21
8.8756983943
 31
0.0
  0
LINE
  5
253
330
1F
100
AcDbEntity
  8
0
  6
Continuous
 62
     7
370
    15
100
AcDbLine
 10
-25.2687446844
 20
8.8756983943
 30
0.0
 11
-25.9078077875
 21
7.7688086305
 31
0.0
  0
LINE
  5
254
330
1F
100
AcDbEntity
  8
0
  6
Continuous
 62
     7
370
    15
100
AcDbLine
 10
-25.8212052471
 20
7.6188086305
 30
0.0
 11
-24.5430790409
 21
7.6188086305
 31
0.0
  0
LINE
  5
255
330
1F
100
AcDbEntity
  8
0
  6
Continuous
 62
     7
370
    15
100
AcDbLine
 10
-24.4564765006
 20
7.7688086305
 30
0.0
 11
-25.0955396037
 21
8.8756983943
 31
0.0
  0
LINE
  5
256
330
1F
100
AcDbEntity
  8
0
  6
Continuous
 62
     7
370
    15
100
AcDbLine
 10
-22.4895077784
 20
8.8756983943
 30
0.0
 11
-23.1285708814
 21
7.7688086305
 31
0.0
  0
LINE
  5
257
330
1F
100
AcDbEntity
  8
0
  6
Continuous
 62
     7
370
    15
100
AcDbLine
 10
-23.0419683411
 20
7.6188086305
 30
0.0
 11
-21.7638421349
 21
7.6188086305
 31
0.0
  0
LINE
  5
258
330
1F
100
AcDbEntity
  8
0
  6
Continuous
 62
     7
370
    15
100
AcDbLine
 10
-21.6772395945
 20
7.7688086305
 30
0.0
 11
-22.3163026976
 21
8.8756983943
 31
0.0
  0
LINE
  5
259
330
1F
100
AcDbEntity
  8
0
  6
Continuous
 62
     7
370
    15
100
AcDbLine
 10
-20.9266842446
 20
7.7688086305
 30
0.0
 11
-20.2876211415
 21
8.8756983943
 31
0.0
  0
LINE
  5
25A
330
1F
100
AcDbEntity
  8
0
  6
Continuous
 62
     7
370
    15
100
AcDbLine
 10
-20.3742236819
 20
9.0256983943
 30
0.0
 11
-21.652349888
 21
9.0256983943
 31
0.0
  0
LINE
  5
25B
330
1F
100
AcDbEntity
  8
0
  6
Continuous
 62
     7
370
    15
100
AcDbLine
 10
-21.7389524284
 20
8.8756983943
 30
0.0
 11
-21.0998893253
 21
7.7688086305
 31
0.0
  0
LINE
  5
25C
330
1F
100
AcDbEntity
  8
0
  6
Continuous
 62
     7
370
    15
100
AcDbLine
 10
-19.7102708723
 20
8.8756983943
 30
0.0
 11
-20.3493339754
 21
7.7688086305
 31
0.0
  0
LINE
  5
25D
330
1F
100
AcDbEntity
  8
0
  6
Continuous
 62
     7
370
    15
100
AcDbLine
 10
-20.262731435
 20
7.6188086305
 30
0.0
 11
-18.9846052288
 21
7.6188086305
 31
0.0
  0
LINE
  5
25E
330
1F
100
AcDbEntity
  8
0
  6
Continuous
 62
     7
370
    15
100
AcDbLine
 10
-18.8980026885
 20
7.7688086305
 30
0.0
 11
-19.5370657915
 21
8.8756983943
 31
0.0
  0
LINE
  5
25F
330
1F
100
AcDbEntity
  8
0
  6
Continuous
 62
     7
370
    15
100
AcDbLine
 10
-18.1474473385
 20
7.7688086305
 30
0.0
 11
-17.5083842354
 21
8.8756983943
 31
0.0
  0
LINE
  5
260
330
1F
100
AcDbEntity
  8
0
  6
Continuous
 62
     7
370
    15
100
AcDbLine
 10
-17.5949867758
 20
9.0256983943
 30
0.0
 11
-18.873112982
 21
9.0256983943
 31
0.0
  0
LINE
  5
261
330
1F
100
AcDbEntity
  8
0
  6
Continuous
 62
     7
370
    15
100
AcDbLine
 10
-18.9597155224
 20
8.8756983943
 30
0.0
 11
-18.3206524193
 21
7.7688086305
 31
0.0
  0
LINE
  5
262
330
1F
100
AcDbEntity
  8
0
  6
Continuous
 62
     7
370
    15
100
AcDbLine
 10
-17.4834945289
 20
7.6188086305
 30
0.0
 11
-16.2053683228
 21
7.6188086305
 31
0.0
  0
LINE
  5
263
330
1F
100
AcDbEntity
  8
0
  6
Continuous
 62
     7
370
    15
100
AcDbLine
 10
-16.1187657824
 20
7.7688086305
 30
0.0
 11
-16.7578288855
 21
8.8756983943
 31
0.0
  0
LINE
  5
264
330
1F
100
AcDbEntity
  8
0
  6
Continuous
 62
     7
370
    15
100
AcDbLine
 10
-16.9310339662
 20
8.8756983943
 30
0.0
 11
-17.5700970693
 21
7.7688086305
 31
0.0
  0
LINE
  5
265
330
1F
100
AcDbEntity
  8
0
  6
Continuous
 62
     7
370
    15
100
AcDbLine
 10
-16.1804786163
 20
8.8756983943
 30
0.0
 11
-15.5414155132
 21
7.7688086305
 31
0.0
  0
LINE
  5
266
330
1F
100
AcDbEntity
  8
0
  6
Continuous
 62
     7
370
    15
100
AcDbLine
 10
-15.3682104325
 20
7.7688086305
 30
0.0
 11
-14.7291473294
 21
8.8756983943
 31
0.0
  0
LINE
  5
267
330
1F
100
AcDbEntity
  8
0
  6
Continuous
 62
     7
370
    15
100
AcDbLine
 10
-14.8157498698
 20
9.0256983943
 30
0.0
 11
-16.0938760759
 21
9.0256983943
 31
0.0
  0
LINE
  5
268
330
1F
100
AcDbEntity
  8
0
  6
Continuous
 62
     7
370
    15
100
AcDbLine
 10
-13.3395288763
 20
7.7688086305
 30
0.0
 11
-13.9785919794
 21
8.8756983943
 31
0.0
  0
LINE
  5
269
330
1F
100
AcDbEntity
  8
0
  6
Continuous
 62
     7
370
    15
100
AcDbLine
 10
-14.1517970602
 20
8.8756983943
 30
0.0
 11
-14.7908601633
 21
7.7688086305
 31
0.0
  0
LINE
  5
26A
330
1F
100
AcDbEntity
  8
0
  6
Continuous
 62
     7
370
    15
100
AcDbLine
 10
-14.7042576229
 20
7.6188086305
 30
0.0
 11
-13.4261314167
 21
7.6188086305
 31
0.0
  0
LINE
  5
26B
330
1F
100
AcDbEntity
  8
0
  6
Continuous
 62
     7
370
    15
100
AcDbLine
 10
-12.5889735264
 20
7.7688086305
 30
0.0
 11
-11.9499104233
 21
8.8756983943
 31
0.0
  0
LINE
  5
26C
330
1F
100
AcDbEntity
  8
0
  6
Continuous
 62
     7
370
    15
100
AcDbLine
 10
-12.0365129637
 20
9.0256983943
 30
0.0
 11
-13.3146391699
 21
9.0256983943
 31
0.0
  0
LINE
  5
26D
330
1F
100
AcDbEntity
  8
0
  6
Continuous
 62
     7
370
    15
100
AcDbLine
 10
-13.4012417102
 20
8.8756983943
 30
0.0
 11
-12.7621786072
 21
7.7688086305
 31
0.0
  0
LINE
  5
26E
330
1F
100
AcDbEntity
  8
0
  6
Continuous
 62
     7
370
    15
100
AcDbLine
 10
-10.5602919703
 20
7.7688086305
 30
0.0
 11
-11.1993550734
 21
8.8756983943
 31
0.0
  0
LINE
  5
26F
330
1F
100
AcDbEntity
  8
0
  6
Continuous
 62
     7
370
    15
100
AcDbLine
 10
-11.3725601541
 20
8.8756983943
 30
0.0
 11
-12.0116232572
 21
7.7688086305
 31
0.0
  0
LINE
  5
270
330
1F
100
AcDbEntity
  8
0
  6
Continuous
 62
     7
370
    15
100
AcDbLine
 10
-11.9250207168
 20
7.6188086305
 30
0.0
 11
-10.6468945107
 21
7.6188086305
 31
0.0
  0
LINE
  5
271
330
1F
100
AcDbEntity
  8
0
  6
Continuous
 62
     7
370
    15
100
AcDbLine
 10
-10.6220048042
 20
8.8756983943
 30
0.0
 11
-9.9829417011
 21
7.7688086305
 31
0.0
  0
LINE
  5
272
330
1F
100
AcDbEntity
  8
0
  6
Continuous
 62
     7
370
    15
100
AcDbLine
 10
-9.8097366203
 20
7.7688086305
 30
0.0
 11
-9.1706735173
 21
8.8756983943
 31
0.0
  0
LINE
  5
273
330
1F
100
AcDbEntity
  8
0
  6
Continuous
 62
     7
370
    15
100
AcDbLine
 10
-9.2572760576
 20
9.0256983943
 30
0.0
 11
-10.5354022638
 21
9.0256983943
 31
0.0
  0
LINE
  5
274
330
1F
100
AcDbEntity
  8
0
  6
Continuous
 62
     7
370
    15
100
AcDbLine
 10
-9.1457838108
 20
7.6188086305
 30
0.0
 11
-7.8676576046
 21
7.6188086305
 31
0.0
  0
LINE
  5
275
330
1F
100
AcDbEntity
  8
0
  6
Continuous
 62
     7
370
    15
100
AcDbLine
 10
-7.7810550642
 20
7.7688086305
 30
0.0
 11
-8.4201181673
 21
8.8756983943
 31
0.0
  0
LINE
  5
276
330
1F
100
AcDbEntity
  8
0
  6
Continuous
 62
     7
370
    15
100
AcDbLine
 10
-8.5933232481
 20
8.8756983943
 30
0.0
 11
-9.2323863512
 21
7.7688086305
 31
0.0
  0
LINE
  5
277
330
1F
100
AcDbEntity
  8
0
  6
Continuous
 62
     7
370
    15
100
AcDbLine
 10
-8.4201181673
 20
9.9756983943
 30
0.0
 11
-7.7810550642
 21
11.082588158
 31
0.0
  0
LINE
  5
278
330
1F
100
AcDbEntity
  8
0
  6
Continuous
 62
     7
370
    15
100
AcDbLine
 10
-7.8676576046
 20
11.232588158
 30
0.0
 11
-9.1457838108
 21
11.232588158
 31
0.0
  0
LINE
  5
279
330
1F
100
AcDbEntity
  8
0
  6
Continuous
 62
     7
370
    15
100
AcDbLine
 10
-9.2323863512
 20
11.082588158
 30
0.0
 11
-8.5933232481
 21
9.9756983943
 31
0.0
  0
LINE
  5
27A
330
1F
100
AcDbEntity
  8
0
  6
Continuous
 62
     7
370
    15
100
AcDbLine
 10
-9.1706735173
 20
9.9756983943
 30
0.0
 11
-9.8097366203
 21
11.082588158
 31
0.0
  0
LINE
  5
27B
330
1F
100
AcDbEntity
  8
0
  6
Continuous
 62
     7
370
    15
100
AcDbLine
 10
-9.9829417011
 20
11.082588158
 30
0.0
 11
-10.6220048042
 21
9.9756983943
 31
0.0
  0
LINE
  5
27C
330
1F
100
AcDbEntity
  8
0
  6
Continuous
 62
     7
370
    15
100
AcDbLine
 10
-10.5354022638
 20
9.8256983943
 30
0.0
 11
-9.2572760576
 21
9.8256983943
 31
0.0
  0
LINE
  5
27D
330
1F
100
AcDbEntity
  8
0
  6
Continuous
 62
     7
370
    15
100
AcDbLine
 10
-11.1993550734
 20
9.9756983943
 30
0.0
 11
-10.5602919703
 21
11.082588158
 31
0.0
  0
LINE
  5
27E
330
1F
100
AcDbEntity
  8
0
  6
Continuous
 62
     7
370
    15
100
AcDbLine
 10
-10.6468945107
 20
11.232588158
 30
0.0
 11
-11.9250207168
 21
11.232588158
 31
0.0
  0
LINE
  5
27F
330
1F
100
AcDbEntity
  8
0
  6
Continuous
 62
     7
370
    15
100
AcDbLine
 10
-12.0116232572
 20
11.082588158
 30
0.0
 11
-11.3725601541
 21
9.9756983943
 31
0.0
  0
LINE
  5
280
330
1F
100
AcDbEntity
  8
0
  6
Continuous
 62
     7
370
    15
100
AcDbLine
 10
-13.3146391699
 20
9.8256983943
 30
0.0
 11
-12.0365129637
 21
9.8256983943
 31
0.0
  0
LINE
  5
281
330
1F
100
AcDbEntity
  8
0
  6
Continuous
 62
     7
370
    15
100
AcDbLine
 10
-11.9499104233
 20
9.9756983943
 30
0.0
 11
-12.5889735264
 21
11.082588158
 31
0.0
  0
LINE
  5
282
330
1F
100
AcDbEntity
  8
0
  6
Continuous
 62
     7
370
    15
100
AcDbLine
 10
-12.7621786072
 20
11.082588158
 30
0.0
 11
-13.4012417102
 21
9.9756983943
 31
0.0
  0
LINE
  5
283
330
1F
100
AcDbEntity
  8
0
  6
Continuous
 62
     7
370
    15
100
AcDbLine
 10
-13.9785919794
 20
9.9756983943
 30
0.0
 11
-13.3395288763
 21
11.082588158
 31
0.0
  0
LINE
  5
284
330
1F
100
AcDbEntity
  8
0
  6
Continuous
 62
     7
370
    15
100
AcDbLine
 10
-13.4261314167
 20
11.232588158
 30
0.0
 11
-14.7042576229
 21
11.232588158
 31
0.0
  0
LINE
  5
285
330
1F
100
AcDbEntity
  8
0
  6
Continuous
 62
     7
370
    15
100
AcDbLine
 10
-14.7908601633
 20
11.082588158
 30
0.0
 11
-14.1517970602
 21
9.9756983943
 31
0.0
  0
LINE
  5
286
330
1F
100
AcDbEntity
  8
0
  6
Continuous
 62
     7
370
    15
100
AcDbLine
 10
-15.5414155132
 20
11.082588158
 30
0.0
 11
-16.1804786163
 21
9.9756983943
 31
0.0
  0
LINE
  5
287
330
1F
100
AcDbEntity
  8
0
  6
Continuous
 62
     7
370
    15
100
AcDbLine
 10
-16.0938760759
 20
9.8256983943
 30
0.0
 11
-14.8157498698
 21
9.8256983943
 31
0.0
  0
LINE
  5
288
330
1F
100
AcDbEntity
  8
0
  6
Continuous
 62
     7
370
    15
100
AcDbLine
 10
-14.7291473294
 20
9.9756983943
 30
0.0
 11
-15.3682104325
 21
11.082588158
 31
0.0
  0
LINE
  5
289
330
1F
100
AcDbEntity
  8
0
  6
Continuous
 62
     7
370
    15
100
AcDbLine
 10
-16.2053683228
 20
11.232588158
 30
0.0
 11
-17.4834945289
 21
11.232588158
 31
0.0
  0
LINE
  5
28A
330
1F
100
AcDbEntity
  8
0
  6
Continuous
 62
     7
370
    15
100
AcDbLine
 10
-17.5700970693
 20
11.082588158
 30
0.0
 11
-16.8444314259
 21
9.8256983943
 31
0.0
  0
LINE
  5
28B
330
1F
100
AcDbEntity
  8
0
  6
Continuous
 62
     7
370
    15
100
AcDbLine
 10
-16.8444314259
 20
9.8256983943
 30
0.0
 11
-16.1187657824
 21
11.082588158
 31
0.0
  0
LINE
  5
28C
330
1F
100
AcDbEntity
  8
0
  6
Continuous
 62
     7
370
    15
100
AcDbLine
 10
-17.5083842354
 20
9.9756983943
 30
0.0
 11
-18.1474473385
 21
11.082588158
 31
0.0
  0
LINE
  5
28D
330
1F
100
AcDbEntity
  8
0
  6
Continuous
 62
     7
370
    15
100
AcDbLine
 10
-18.3206524193
 20
11.082588158
 30
0.0
 11
-18.9597155224
 21
9.9756983943
 31
0.0
  0
LINE
  5
28E
330
1F
100
AcDbEntity
  8
0
  6
Continuous
 62
     7
370
    15
100
AcDbLine
 10
-18.873112982
 20
9.8256983943
 30
0.0
 11
-17.5949867758
 21
9.8256983943
 31
0.0
  0
LINE
  5
28F
330
1F
100
AcDbEntity
  8
0
  6
Continuous
 62
     7
370
    15
100
AcDbLine
 10
-18.9846052288
 20
11.232588158
 30
0.0
 11
-20.262731435
 21
11.232588158
 31
0.0
  0
LINE
  5
290
330
1F
100
AcDbEntity
  8
0
  6
Continuous
 62
     7
370
    15
100
AcDbLine
 10
-20.3493339754
 20
11.082588158
 30
0.0
 11
-19.7102708723
 21
9.9756983943
 31
0.0
  0
LINE
  5
291
330
1F
100
AcDbEntity
  8
0
  6
Continuous
 62
     7
370
    15
100
AcDbLine
 10
-19.5370657915
 20
9.9756983943
 30
0.0
 11
-18.8980026885
 21
11.082588158
 31
0.0
  0
LINE
  5
292
330
1F
100
AcDbEntity
  8
0
  6
Continuous
 62
     7
370
    15
100
AcDbLine
 10
-20.2876211415
 20
9.9756983943
 30
0.0
 11
-20.9266842446
 21
11.082588158
 31
0.0
  0
LINE
  5
293
330
1F
100
AcDbEntity
  8
0
  6
Continuous
 62
     7
370
    15
100
AcDbLine
 10
-21.0998893253
 20
11.082588158
 30
0.0
 11
-21.7389524284
 21
9.9756983943
 31
0.0
  0
LINE
  5
294
330
1F
100
AcDbEntity
  8
0
  6
Continuous
 62
     7
370
    15
100
AcDbLine
 10
-21.652349888
 20
9.8256983943
 30
0.0
 11
-20.3742236819
 21
9.8256983943
 31
0.0
  0
LINE
  5
295
330
1F
100
AcDbEntity
  8
0
  6
Continuous
 62
     7
370
    15
100
AcDbLine
 10
-21.7638421349
 20
11.232588158
 30
0.0
 11
-23.0419683411
 21
11.232588158
 31
0.0
  0
LINE
  5
296
330
1F
100
AcDbEntity
  8
0
  6
Continuous
 62
     7
370
    15
100
AcDbLine
 10
-23.1285708814
 20
11.082588158
 30
0.0
 11
-22.4895077784
 21
9.9756983943
 31
0.0
  0
LINE
  5
297
330
1F
100
AcDbEntity
  8
0
  6
Continuous
 62
     7
370
    15
100
AcDbLine
 10
-22.3163026976
 20
9.9756983943
 30
0.0
 11
-21.6772395945
 21
11.082588158
 31
0.0
  0
LINE
  5
298
330
1F
100
AcDbEntity
  8
0
  6
Continuous
 62
     7
370
    15
100
AcDbLine
 10
-23.8791262314
 20
11.082588158
 30
0.0
 11
-24.5181893345
 21
9.9756983943
 31
0.0
  0
LINE
  5
299
330
1F
100
AcDbEntity
  8
0
  6
Continuous
 62
     7
370
    15
100
AcDbLine
 10
-24.4315867941
 20
9.8256983943
 30
0.0
 11
-23.1534605879
 21
9.8256983943
 31
0.0
  0
LINE
  5
29A
330
1F
100
AcDbEntity
  8
0
  6
Continuous
 62
     7
370
    15
100
AcDbLine
 10
-23.0668580475
 20
9.9756983943
 30
0.0
 11
-23.7059211506
 21
11.082588158
 31
0.0
  0
LINE
  5
29B
330
1F
100
AcDbEntity
  8
0
  6
Continuous
 62
     7
370
    15
100
AcDbLine
 10
-24.5430790409
 20
11.232588158
 30
0.0
 11
-25.8212052471
 21
11.232588158
 31
0.0
  0
LINE
  5
29C
330
1F
100
AcDbEntity
  8
0
  6
Continuous
 62
     7
370
    15
100
AcDbLine
 10
-25.9078077875
 20
11.082588158
 30
0.0
 11
-25.2687446844
 21
9.9756983943
 31
0.0
  0
LINE
  5
29D
330
1F
100
AcDbEntity
  8
0
  6
Continuous
 62
     7
370
    15
100
AcDbLine
 10
-25.0955396037
 20
9.9756983943
 30
0.0
 11
-24.4564765006
 21
11.082588158
 31
0.0
  0
LINE
  5
29E
330
1F
100
AcDbEntity
  8
0
  6
Continuous
 62
     7
370
    15
100
AcDbLine
 10
-26.6583631374
 20
11.082588158
 30
0.0
 11
-27.2974262405
 21
9.9756983943
 31
0.0
  0
LINE
  5
29F
330
1F
100
AcDbEntity
  8
0
  6
Continuous
 62
     7
370
    15
100
AcDbLine
 10
-27.2108237001
 20
9.8256983943
 30
0.0
 11
-25.932697494
 21
9.8256983943
 31
0.0
  0
LINE
  5
2A0
330
1F
100
AcDbEntity
  8
0
  6
Continuous
 62
     7
370
    15
100
AcDbLine
 10
-25.8460949536
 20
9.9756983943
 30
0.0
 11
-26.4851580567
 21
11.082588158
 31
0.0
  0
LINE
  5
2A1
330
1F
100
AcDbEntity
  8
0
  6
Continuous
 62
     7
370
    15
100
AcDbLine
 10
-28.6870446935
 20
11.082588158
 30
0.0
 11
-28.0479815905
 21
9.9756983943
 31
0.0
  0
LINE
  5
2A2
330
1F
100
AcDbEntity
  8
0
  6
Continuous
 62
     7
370
    15
100
AcDbLine
 10
-27.8747765097
 20
9.9756983943
 30
0.0
 11
-27.2357134066
 21
11.082588158
 31
0.0
  0
LINE
  5
2A3
330
1F
100
AcDbEntity
  8
0
  6
Continuous
 62
     7
370
    15
100
AcDbLine
 10
-27.322315947
 20
11.232588158
 30
0.0
 11
-28.6004421532
 21
11.232588158
 31
0.0
  0
LINE
  5
2A4
330
1F
100
AcDbEntity
  8
0
  6
Continuous
 62
     7
370
    15
100
AcDbLine
 10
-24.3569176746
 20
14.5662900537
 30
0.0
 11
-23.6640973516
 21
13.3662900537
 31
0.0
  0
LINE
  5
2A5
330
1F
100
AcDbEntity
  8
0
  6
Continuous
 62
     7
370
    15
100
AcDbLine
 10
-25.2229430784
 20
13.3662900537
 30
0.0
 11
-24.5301227554
 21
14.5662900537
 31
0.0
  0
LINE
  5
2A6
330
1F
100
AcDbEntity
  8
0
  6
Continuous
 62
     7
370
    15
100
AcDbLine
 10
-23.750699892
 20
13.2162900537
 30
0.0
 11
-25.136340538
 21
13.2162900537
 31
0.0
  0
LINE
  5
2A7
330
1F
100
AcDbEntity
  8
0
  6
Continuous
 62
     7
370
    15
100
AcDbLine
 10
-25.6848232938
 20
13.3662900537
 30
0.0
 11
-26.3776436168
 21
14.5662900537
 31
0.0
  0
LINE
  5
2A8
330
1F
100
AcDbEntity
  8
0
  6
Continuous
 62
     7
370
    15
100
AcDbLine
 10
-24.81879789
 20
14.5662900537
 30
0.0
 11
-25.511618213
 21
13.3662900537
 31
0.0
  0
LINE
  5
2A9
330
1F
100
AcDbEntity
  8
0
  6
Continuous
 62
     7
370
    15
100
AcDbLine
 10
-26.2910410764
 20
14.7162900537
 30
0.0
 11
-24.9054004304
 21
14.7162900537
 31
0.0
  0
LINE
  5
2AA
330
1F
100
AcDbEntity
  8
0
  6
Continuous
 62
     7
370
    15
100
AcDbLine
 10
-27.5323441552
 20
13.3662900537
 30
0.0
 11
-26.8395238321
 21
14.5662900537
 31
0.0
  0
LINE
  5
2AB
330
1F
100
AcDbEntity
  8
0
  6
Continuous
 62
     7
370
    15
100
AcDbLine
 10
-26.0601009687
 20
13.2162900537
 30
0.0
 11
-27.4457416148
 21
13.2162900537
 31
0.0
  0
LINE
  5
2AC
330
1F
100
AcDbEntity
  8
0
  6
Continuous
 62
     7
370
    15
100
AcDbLine
 10
-26.6663187514
 20
14.5662900537
 30
0.0
 11
-25.9734984284
 21
13.3662900537
 31
0.0
  0
LINE
  5
2AD
330
1F
100
AcDbEntity
  8
0
  6
Continuous
 62
     7
370
    15
100
AcDbLine
 10
-27.1281989667
 20
14.5662900537
 30
0.0
 11
-27.8210192898
 21
13.3662900537
 31
0.0
  0
LINE
  5
2AE
330
1F
100
AcDbEntity
  8
0
  6
Continuous
 62
     7
370
    15
100
AcDbLine
 10
-28.6004421532
 20
14.7162900537
 30
0.0
 11
-27.2148015071
 21
14.7162900537
 31
0.0
  0
LINE
  5
2AF
330
1F
100
AcDbEntity
  8
0
  6
Continuous
 62
     7
370
    15
100
AcDbLine
 10
-27.9942243705
 20
13.3662900537
 30
0.0
 11
-28.6870446935
 21
14.5662900537
 31
0.0
  0
LINE
  5
2B0
330
1F
100
AcDbEntity
  8
0
  6
Continuous
 62
     7
370
    15
100
AcDbLine
 10
-17.7996005309
 20
13.3662900537
 30
0.0
 11
-18.492420854
 21
14.5662900537
 31
0.0
  0
LINE
  5
2B1
330
1F
100
AcDbEntity
  8
0
  6
Continuous
 62
     7
370
    15
100
AcDbLine
 10
-16.9335751272
 20
14.5662900537
 30
0.0
 11
-17.6263954502
 21
13.3662900537
 31
0.0
  0
LINE
  5
2B2
330
1F
100
AcDbEntity
  8
0
  6
Continuous
 62
     7
370
    15
100
AcDbLine
 10
-18.4058183136
 20
14.7162900537
 30
0.0
 11
-17.0201776675
 21
14.7162900537
 31
0.0
  0
LINE
  5
2B3
330
1F
100
AcDbEntity
  8
0
  6
Continuous
 62
     7
370
    15
100
AcDbLine
 10
-15.8654771292
 20
13.2162900537
 30
0.0
 11
-17.2511177752
 21
13.2162900537
 31
0.0
  0
LINE
  5
2B4
330
1F
100
AcDbEntity
  8
0
  6
Continuous
 62
     7
370
    15
100
AcDbLine
 10
-16.4716949118
 20
14.5662900537
 30
0.0
 11
-15.7788745888
 21
13.3662900537
 31
0.0
  0
LINE
  5
2B5
330
1F
100
AcDbEntity
  8
0
  6
Continuous
 62
     7
370
    15
100
AcDbLine
 10
-17.3377203156
 20
13.3662900537
 30
0.0
 11
-16.6448999926
 21
14.5662900537
 31
0.0
  0
LINE
  5
2B6
330
1F
100
AcDbEntity
  8
0
  6
Continuous
 62
     7
370
    15
100
AcDbLine
 10
-18.1748782059
 20
13.2162900537
 30
0.0
 11
-19.560518852
 21
13.2162900537
 31
0.0
  0
LINE
  5
2B7
330
1F
100
AcDbEntity
  8
0
  6
Continuous
 62
     7
370
    15
100
AcDbLine
 10
-18.7810959886
 20
14.5662900537
 30
0.0
 11
-18.0882756655
 21
13.3662900537
 31
0.0
  0
LINE
  5
2B8
330
1F
100
AcDbEntity
  8
0
  6
Continuous
 62
     7
370
    15
100
AcDbLine
 10
-19.6471213923
 20
13.3662900537
 30
0.0
 11
-18.9543010693
 21
14.5662900537
 31
0.0
  0
LINE
  5
2B9
330
1F
100
AcDbEntity
  8
0
  6
Continuous
 62
     7
370
    15
100
AcDbLine
 10
-7.1517857115
 20
13.7787900537
 30
0.0
 11
-7.9186241773
 21
13.7787900537
 31
0.0
  0
LINE
  5
2BA
330
1F
100
AcDbEntity
  8
0
  6
Continuous
 62
     7
370
    15
100
AcDbLine
 10
-7.9483419616
 20
14.5753463038
 30
0.0
 11
-7.1517857115
 21
13.7787900537
 31
0.0
  0
LINE
  5
2BB
330
1F
100
AcDbEntity
  8
0
  6
Continuous
 62
     7
370
    15
100
AcDbLine
 10
-7.8899611488
 20
13.7162900537
 30
0.0
 11
-6.7634604967
 21
13.7162900537
 31
0.0
  0
LINE
  5
2BC
330
1F
100
AcDbEntity
  8
0
  6
Continuous
 62
     7
370
    15
100
AcDbLine
 10
-6.7634604967
 20
13.7162900537
 30
0.0
 11
-7.305697176
 21
13.1740533744
 31
0.0
  0
LINE
  5
2BD
330
1F
100
AcDbEntity
  8
0
  6
Continuous
 62
     7
370
    15
100
AcDbLine
 10
-7.2412351804
 20
13.1501270224
 30
0.0
 11
-6.4446789303
 21
13.9466832725
 31
0.0
  0
LINE
  5
2BE
330
1F
100
AcDbEntity
  8
0
  6
Continuous
 62
     7
370
    15
100
AcDbLine
 10
-6.4446789303
 20
13.9466832725
 30
0.0
 11
-6.4446789303
 21
13.1798448067
 31
0.0
  0
LINE
  5
2BF
330
1F
100
AcDbEntity
  8
0
  6
Continuous
 62
     7
370
    15
100
AcDbLine
 10
-6.3821789303
 20
13.2085078351
 30
0.0
 11
-6.3821789303
 21
14.3350084872
 31
0.0
  0
LINE
  5
2C0
330
1F
100
AcDbEntity
  8
0
  6
Continuous
 62
     7
370
    15
100
AcDbLine
 10
-6.3821789303
 20
14.3350084872
 30
0.0
 11
-5.839942251
 21
13.792771808
 31
0.0
  0
LINE
  5
2C1
330
1F
100
AcDbEntity
  8
0
  6
Continuous
 62
     7
370
    15
100
AcDbLine
 10
-5.816015899
 20
13.8572338036
 30
0.0
 11
-6.6125721491
 21
14.6537900537
 31
0.0
  0
LINE
  5
2C2
330
1F
100
AcDbEntity
  8
0
  6
Continuous
 62
     7
370
    15
100
AcDbLine
 10
-6.6125721491
 20
14.6537900537
 30
0.0
 11
-5.8457336833
 21
14.6537900537
 31
0.0
  0
LINE
  5
2C3
330
1F
100
AcDbEntity
  8
0
  6
Continuous
 62
     7
370
    15
100
AcDbLine
 10
-5.8743967118
 20
14.7162900537
 30
0.0
 11
-7.0008973638
 21
14.7162900537
 31
0.0
  0
LINE
  5
2C4
330
1F
100
AcDbEntity
  8
0
  6
Continuous
 62
     7
370
    15
100
AcDbLine
 10
-7.0008973638
 20
14.7162900537
 30
0.0
 11
-6.4586606846
 21
15.2585267329
 31
0.0
  0
LINE
  5
2C5
330
1F
100
AcDbEntity
  8
0
  6
Continuous
 62
     7
370
    15
100
AcDbLine
 10
-6.5231226802
 20
15.282453085
 30
0.0
 11
-7.3196789303
 21
14.4858968349
 31
0.0
  0
LINE
  5
2C6
330
1F
100
AcDbEntity
  8
0
  6
Continuous
 62
     7
370
    15
100
AcDbLine
 10
-7.3196789303
 20
14.4858968349
 30
0.0
 11
-7.3196789303
 21
15.2527353007
 31
0.0
  0
LINE
  5
2C7
330
1F
100
AcDbEntity
  8
0
  6
Continuous
 62
     7
370
    15
100
AcDbLine
 10
-7.3821789303
 20
15.2240722722
 30
0.0
 11
-7.3821789303
 21
14.0975716201
 31
0.0
  0
LINE
  5
2C8
330
1F
100
AcDbEntity
  8
0
  6
Continuous
 62
     7
370
    15
100
AcDbLine
 10
-7.3821789303
 20
14.0975716201
 30
0.0
 11
-7.9244156095
 21
14.6398082994
 31
0.0
  0
LINE
  5
2C9
330
1F
100
AcDbEntity
  8
0
  6
Continuous
 62
     7
370
    15
100
AcDbLine
 10
-30.7674646452
 20
13.7257793291
 30
0.0
 11
-30.1018152924
 21
16.9536148808
 31
0.0
  0
LINE
  5
2CA
330
1F
100
AcDbEntity
  8
0
  6
Continuous
 62
     7
370
    15
100
AcDbLine
 10
-6.776686384
 20
17.8513967885
 30
0.0
 11
-29.0
 21
17.8513967885
 31
0.0
  0
LINE
  5
2CB
330
1F
100
AcDbEntity
  8
0
  6
Continuous
 62
     7
370
    15
100
AcDbLine
 10
-5.6295335113
 20
17.4897008771
 30
0.0
 11
-0.3694617818
 21
13.8065590006
 31
0.0
  0
LINE
  5
2CC
330
1F
100
AcDbEntity
  8
0
  6
Continuous
 62
     7
370
    15
100
AcDbLine
 10
-0.15625
 20
13.0162900537
 30
0.0
 11
-0.15625
 21
13.3969829784
 31
0.0
  0
LINE
  5
2CD
330
1F
100
AcDbEntity
  8
0
  6
Continuous
 62
     7
370
    15
100
AcDbLine
 10
-3.0
 20
12.7162900537
 30
0.0
 11
-0.45625
 21
12.7162900537
 31
0.0
  0
LINE
  5
2CE
330
1F
100
AcDbEntity
  8
0
  6
Continuous
 62
     7
370
    15
100
AcDbLine
 10
-3.0
 20
12.7162900537
 30
0.0
 11
-3.0
 21
11.2256983943
 31
0.0
  0
LINE
  5
2CF
330
1F
100
AcDbEntity
  8
0
  6
Continuous
 62
     7
370
    15
100
AcDbLine
 10
-3.3
 20
10.9256983943
 30
0.0
 11
-5.7
 21
10.9256983943
 31
0.0
  0
LINE
  5
2D0
330
1F
100
AcDbEntity
  8
0
  6
Continuous
 62
     7
370
    15
100
AcDbLine
 10
-6.0
 20
10.6256983943
 30
0.0
 11
-6.0
 21
8.2256983943
 31
0.0
  0
LINE
  5
2D1
330
1F
100
AcDbEntity
  8
0
  6
Continuous
 62
     7
370
    15
100
AcDbLine
 10
-5.7
 20
7.9256983943
 30
0.0
 11
-3.3
 21
7.9256983943
 31
0.0
  0
LINE
  5
2D2
330
1F
100
AcDbEntity
  8
0
  6
Continuous
 62
     7
370
    15
100
AcDbLine
 10
-3.0
 20
7.6256983943
 30
0.0
 11
-3.0
 21
6.1351067348
 31
0.0
  0
LINE
  5
2D3
330
1F
100
AcDbEntity
  8
0
  6
Continuous
 62
     7
370
    15
100
AcDbLine
 10
-3.0
 20
6.1351067348
 30
0.0
 11
1.2637128464
 21
6.1351067348
 31
0.0
  0
LINE
  5
2D4
330
1F
100
AcDbEntity
  8
0
  6
Continuous
 62
     7
370
    15
100
AcDbLine
 10
1.5637128464
 20
5.8351067348
 30
0.0
 11
1.5637128464
 21
5.4544138101
 31
0.0
  0
LINE
  5
2D5
330
1F
100
AcDbEntity
  8
0
  6
Continuous
 62
     7
370
    15
100
AcDbLine
 10
1.3505010646
 20
5.0448377879
 30
0.0
 11
-1.0369269174
 21
3.373142718
 31
0.0
  0
LINE
  5
2D6
330
1F
100
AcDbEntity
  8
0
  6
Continuous
 62
     7
370
    15
100
AcDbLine
 10
-1.229002988
 20
3.2243546973
 30
0.0
 11
-1.229002988
 21
3.202915098
 31
0.0
  0
LINE
  5
2D7
330
1F
100
AcDbEntity
  8
0
  6
Continuous
 62
     7
370
    15
100
AcDbLine
 10
-1.229002988
 20
3.202915098
 30
0.0
 11
-3.1806102362
 21
3.202915098
 31
0.0
  0
LINE
  5
2D8
330
1F
100
AcDbEntity
  8
0
  6
Continuous
 62
     7
370
    15
100
AcDbLine
 10
-3.1806102362
 20
3.202915098
 30
0.0
 11
-3.1806102362
 21
3.140415098
 31
0.0
  0
LINE
  5
2D9
330
1F
100
AcDbEntity
  8
0
  6
Continuous
 62
     7
370
    15
100
AcDbLine
 10
-3.1806102362
 20
3.140415098
 30
0.0
 11
-3.0892592504
 21
3.140415098
 31
0.0
  0
LINE
  5
2DA
330
1F
100
AcDbEntity
  8
0
  6
Continuous
 62
     7
370
    15
100
AcDbLine
 10
-3.0892592504
 20
3.140415098
 30
0.0
 11
-5.6295335113
 21
1.3616959114
 31
0.0
  0
LINE
  5
2DB
330
1F
100
AcDbEntity
  8
0
  6
Continuous
 62
     7
370
    15
100
AcDbLine
 10
-6.776686384
 20
1.0
 30
0.0
 11
-29.0
 21
1.0
 31
0.0
  0
LINE
  5
2DC
330
1F
100
AcDbEntity
  8
0
  6
Continuous
 62
     7
370
    15
100
AcDbLine
 10
-30.1018152924
 20
1.8977819077
 30
0.0
 11
-30.7674646452
 21
5.1256174595
 31
0.0
  0
LINE
  5
2DD
330
1F
100
AcDbEntity
  8
0
  6
Continuous
 62
     7
370
    15
100
AcDbLine
 10
-30.7736472339
 20
5.1862089507
 30
0.0
 11
-30.7736472339
 21
13.6651878378
 31
0.0
  0
LINE
  5
2DE
330
1F
100
AcDbEntity
  8
0
  6
Continuous
 62
     7
370
    15
100
AcDbLine
 10
-24.3569176746
 20
4.2851067348
 30
0.0
 11
-23.6640973516
 21
5.4851067348
 31
0.0
  0
LINE
  5
2DF
330
1F
100
AcDbEntity
  8
0
  6
Continuous
 62
     7
370
    15
100
AcDbLine
 10
-23.750699892
 20
5.6351067348
 30
0.0
 11
-25.136340538
 21
5.6351067348
 31
0.0
  0
LINE
  5
2E0
330
1F
100
AcDbEntity
  8
0
  6
Continuous
 62
     7
370
    15
100
AcDbLine
 10
-25.2229430784
 20
5.4851067348
 30
0.0
 11
-24.5301227554
 21
4.2851067348
 31
0.0
  0
LINE
  5
2E1
330
1F
100
AcDbEntity
  8
0
  6
Continuous
 62
     7
370
    15
100
AcDbLine
 10
-25.6848232938
 20
5.4851067348
 30
0.0
 11
-26.3776436168
 21
4.2851067348
 31
0.0
  0
LINE
  5
2E2
330
1F
100
AcDbEntity
  8
0
  6
Continuous
 62
     7
370
    15
100
AcDbLine
 10
-26.2910410764
 20
4.1351067348
 30
0.0
 11
-24.9054004304
 21
4.1351067348
 31
0.0
  0
LINE
  5
2E3
330
1F
100
AcDbEntity
  8
0
  6
Continuous
 62
     7
370
    15
100
AcDbLine
 10
-24.81879789
 20
4.2851067348
 30
0.0
 11
-25.511618213
 21
5.4851067348
 31
0.0
  0
LINE
  5
2E4
330
1F
100
AcDbEntity
  8
0
  6
Continuous
 62
     7
370
    15
100
AcDbLine
 10
-27.5323441552
 20
5.4851067348
 30
0.0
 11
-26.8395238321
 21
4.2851067348
 31
0.0
  0
LINE
  5
2E5
330
1F
100
AcDbEntity
  8
0
  6
Continuous
 62
     7
370
    15
100
AcDbLine
 10
-26.6663187514
 20
4.2851067348
 30
0.0
 11
-25.9734984284
 21
5.4851067348
 31
0.0
  0
LINE
  5
2E6
330
1F
100
AcDbEntity
  8
0
  6
Continuous
 62
     7
370
    15
100
AcDbLine
 10
-26.0601009687
 20
5.6351067348
 30
0.0
 11
-27.4457416148
 21
5.6351067348
 31
0.0
  0
LINE
  5
2E7
330
1F
100
AcDbEntity
  8
0
  6
Continuous
 62
     7
370
    15
100
AcDbLine
 10
-27.1281989667
 20
4.2851067348
 30
0.0
 11
-27.8210192898
 21
5.4851067348
 31
0.0
  0
LINE
  5
2E8
330
1F
100
AcDbEntity
  8
0
  6
Continuous
 62
     7
370
    15
100
AcDbLine
 10
-27.9942243705
 20
5.4851067348
 30
0.0
 11
-28.6870446935
 21
4.2851067348
 31
0.0
  0
LINE
  5
2E9
330
1F
100
AcDbEntity
  8
0
  6
Continuous
 62
     7
370
    15
100
AcDbLine
 10
-28.6004421532
 20
4.1351067348
 30
0.0
 11
-27.2148015071
 21
4.1351067348
 31
0.0
  0
LINE
  5
2EA
330
1F
100
AcDbEntity
  8
0
  6
Continuous
 62
     7
370
    15
100
AcDbLine
 10
-17.7996005309
 20
5.4851067348
 30
0.0
 11
-18.492420854
 21
4.2851067348
 31
0.0
  0
LINE
  5
2EB
330
1F
100
AcDbEntity
  8
0
  6
Continuous
 62
     7
370
    15
100
AcDbLine
 10
-18.4058183136
 20
4.1351067348
 30
0.0
 11
-17.0201776675
 21
4.1351067348
 31
0.0
  0
LINE
  5
2EC
330
1F
100
AcDbEntity
  8
0
  6
Continuous
 62
     7
370
    15
100
AcDbLine
 10
-16.9335751272
 20
4.2851067348
 30
0.0
 11
-17.6263954502
 21
5.4851067348
 31
0.0
  0
LINE
  5
2ED
330
1F
100
AcDbEntity
  8
0
  6
Continuous
 62
     7
370
    15
100
AcDbLine
 10
-15.8654771292
 20
5.6351067348
 30
0.0
 11
-17.2511177752
 21
5.6351067348
 31
0.0
  0
LINE
  5
2EE
330
1F
100
AcDbEntity
  8
0
  6
Continuous
 62
     7
370
    15
100
AcDbLine
 10
-17.3377203156
 20
5.4851067348
 30
0.0
 11
-16.6448999926
 21
4.2851067348
 31
0.0
  0
LINE
  5
2EF
330
1F
100
AcDbEntity
  8
0
  6
Continuous
 62
     7
370
    15
100
AcDbLine
 10
-16.4716949118
 20
4.2851067348
 30
0.0
 11
-15.7788745888
 21
5.4851067348
 31
0.0
  0
LINE
  5
2F0
330
1F
100
AcDbEntity
  8
0
  6
Continuous
 62
     7
370
    15
100
AcDbLine
 10
-18.1748782059
 20
5.6351067348
 30
0.0
 11
-19.560518852
 21
5.6351067348
 31
0.0
  0
LINE
  5
2F1
330
1F
100
AcDbEntity
  8
0
  6
Continuous
 62
     7
370
    15
100
AcDbLine
 10
-19.6471213923
 20
5.4851067348
 30
0.0
 11
-18.9543010693
 21
4.2851067348
 31
0.0
  0
LINE
  5
2F2
330
1F
100
AcDbEntity
  8
0
  6
Continuous
 62
     7
370
    15
100
AcDbLine
 10
-18.7810959886
 20
4.2851067348
 30
0.0
 11
-18.0882756655
 21
5.4851067348
 31
0.0
  0
LINE
  5
2F3
330
1F
100
AcDbEntity
  8
0
  6
Continuous
 62
     7
370
    15
100
AcDbLine
 10
-7.9483419616
 20
4.2760504848
 30
0.0
 11
-7.1517857115
 21
5.0726067348
 31
0.0
  0
LINE
  5
2F4
330
1F
100
AcDbEntity
  8
0
  6
Continuous
 62
     7
370
    15
100
AcDbLine
 10
-7.1517857115
 20
5.0726067348
 30
0.0
 11
-7.9186241773
 21
5.0726067348
 31
0.0
  0
LINE
  5
2F5
330
1F
100
AcDbEntity
  8
0
  6
Continuous
 62
     7
370
    15
100
AcDbLine
 10
-6.7634604967
 20
5.1351067348
 30
0.0
 11
-7.305697176
 21
5.6773434141
 31
0.0
  0
LINE
  5
2F6
330
1F
100
AcDbEntity
  8
0
  6
Continuous
 62
     7
370
    15
100
AcDbLine
 10
-7.8899611488
 20
5.1351067348
 30
0.0
 11
-6.7634604967
 21
5.1351067348
 31
0.0
  0
LINE
  5
2F7
330
1F
100
AcDbEntity
  8
0
  6
Continuous
 62
     7
370
    15
100
AcDbLine
 10
-6.4446789303
 20
4.904713516
 30
0.0
 11
-6.4446789303
 21
5.6715519818
 31
0.0
  0
LINE
  5
2F8
330
1F
100
AcDbEntity
  8
0
  6
Continuous
 62
     7
370
    15
100
AcDbLine
 10
-7.2412351804
 20
5.7012697661
 30
0.0
 11
-6.4446789303
 21
4.904713516
 31
0.0
  0
LINE
  5
2F9
330
1F
100
AcDbEntity
  8
0
  6
Continuous
 62
     7
370
    15
100
AcDbLine
 10
-6.3821789303
 20
4.5163883013
 30
0.0
 11
-5.839942251
 21
5.0586249805
 31
0.0
  0
LINE
  5
2FA
330
1F
100
AcDbEntity
  8
0
  6
Continuous
 62
     7
370
    15
100
AcDbLine
 10
-6.3821789303
 20
5.6428889534
 30
0.0
 11
-6.3821789303
 21
4.5163883013
 31
0.0
  0
LINE
  5
2FB
330
1F
100
AcDbEntity
  8
0
  6
Continuous
 62
     7
370
    15
100
AcDbLine
 10
-6.6125721491
 20
4.1976067348
 30
0.0
 11
-5.8457336833
 21
4.1976067348
 31
0.0
  0
LINE
  5
2FC
330
1F
100
AcDbEntity
  8
0
  6
Continuous
 62
     7
370
    15
100
AcDbLine
 10
-5.816015899
 20
4.9941629849
 30
0.0
 11
-6.6125721491
 21
4.1976067348
 31
0.0
  0
LINE
  5
2FD
330
1F
100
AcDbEntity
  8
0
  6
Continuous
 62
     7
370
    15
100
AcDbLine
 10
-7.0008973638
 20
4.1351067348
 30
0.0
 11
-6.4586606846
 21
3.5928700556
 31
0.0
  0
LINE
  5
2FE
330
1F
100
AcDbEntity
  8
0
  6
Continuous
 62
     7
370
    15
100
AcDbLine
 10
-5.8743967118
 20
4.1351067348
 30
0.0
 11
-7.0008973638
 21
4.1351067348
 31
0.0
  0
LINE
  5
2FF
330
1F
100
AcDbEntity
  8
0
  6
Continuous
 62
     7
370
    15
100
AcDbLine
 10
-7.3196789303
 20
4.3654999537
 30
0.0
 11
-7.3196789303
 21
3.5986614879
 31
0.0
  0
LINE
  5
300
330
1F
100
AcDbEntity
  8
0
  6
Continuous
 62
     7
370
    15
100
AcDbLine
 10
-6.5231226802
 20
3.5689437036
 30
0.0
 11
-7.3196789303
 21
4.3654999537
 31
0.0
  0
LINE
  5
301
330
1F
100
AcDbEntity
  8
0
  6
Continuous
 62
     7
370
    15
100
AcDbLine
 10
-7.3821789303
 20
4.7538251684
 30
0.0
 11
-7.9244156095
 21
4.2115884891
 31
0.0
  0
LINE
  5
302
330
1F
100
AcDbEntity
  8
0
  6
Continuous
 62
     7
370
    15
100
AcDbLine
 10
-7.3821789303
 20
3.6273245163
 30
0.0
 11
-7.3821789303
 21
4.7538251684
 31
0.0
  0
ARC
  5
303
330
1F
100
AcDbEntity
  8
0
  6
Continuous
 62
     7
370
    15
100
AcDbCircle
 10
-27.9613790501
 20
8.8256983943
 30
0.0
 40
0.1000000000000097
100
AcDbArc
 50
30.0
 51
150.0
  0
ARC
  5
304
330
1F
100
AcDbEntity
  8
0
  6
Continuous
 62
     7
370
    15
100
AcDbCircle
 10
-28.6004421532
 20
7.7188086305
 30
0.0
 40
0.1000000000000014
100
AcDbArc
 50
150.0
 51
270.0
  0
ARC
  5
305
330
1F
100
AcDbEntity
  8
0
  6
Continuous
 62
     7
370
    15
100
AcDbCircle
 10
-27.322315947
 20
7.7188086305
 30
0.0
 40
0.0999999999999988
100
AcDbArc
 50
270.0
 51
30.0
  0
ARC
  5
306
330
1F
100
AcDbEntity
  8
0
  6
Continuous
 62
     7
370
    15
100
AcDbCircle
 10
-25.932697494
 20
8.9256983943
 30
0.0
 40
0.0999999999999991
100
AcDbArc
 50
330.0
 51
90.0
  0
ARC
  5
307
330
1F
100
AcDbEntity
  8
0
  6
Continuous
 62
     7
370
    15
100
AcDbCircle
 10
-27.2108237001
 20
8.9256983943
 30
0.0
 40
0.1
100
AcDbArc
 50
90.0
 51
210.0
  0
ARC
  5
308
330
1F
100
AcDbEntity
  8
0
  6
Continuous
 62
     7
370
    15
100
AcDbCircle
 10
-26.5717605971
 20
7.8188086305
 30
0.0
 40
0.099999999999999
100
AcDbArc
 50
210.0
 51
330.0
  0
ARC
  5
309
330
1F
100
AcDbEntity
  8
0
  6
Continuous
 62
     7
370
    15
100
AcDbCircle
 10
-23.1534605879
 20
8.9256983943
 30
0.0
 40
0.0999999999999996
100
AcDbArc
 50
330.0
 51
90.0
  0
ARC
  5
30A
330
1F
100
AcDbEntity
  8
0
  6
Continuous
 62
     7
370
    15
100
AcDbCircle
 10
-24.4315867941
 20
8.9256983943
 30
0.0
 40
0.1000000000000014
100
AcDbArc
 50
90.0
 51
210.0
  0
ARC
  5
30B
330
1F
100
AcDbEntity
  8
0
  6
Continuous
 62
     7
370
    15
100
AcDbCircle
 10
-23.792523691
 20
7.8188086305
 30
0.0
 40
0.1000000000000022
100
AcDbArc
 50
210.0
 51
330.0
  0
ARC
  5
30C
330
1F
100
AcDbEntity
  8
0
  6
Continuous
 62
     7
370
    15
100
AcDbCircle
 10
-25.182142144
 20
8.8256983943
 30
0.0
 40
0.1000000000000008
100
AcDbArc
 50
30.0
 51
150.0
  0
ARC
  5
30D
330
1F
100
AcDbEntity
  8
0
  6
Continuous
 62
     7
370
    15
100
AcDbCircle
 10
-25.8212052471
 20
7.7188086305
 30
0.0
 40
0.0999999999999988
100
AcDbArc
 50
150.0
 51
270.0
  0
ARC
  5
30E
330
1F
100
AcDbEntity
  8
0
  6
Continuous
 62
     7
370
    15
100
AcDbCircle
 10
-24.5430790409
 20
7.7188086305
 30
0.0
 40
0.1000000000000017
100
AcDbArc
 50
270.0
 51
30.0
  0
ARC
  5
30F
330
1F
100
AcDbEntity
  8
0
  6
Continuous
 62
     7
370
    15
100
AcDbCircle
 10
-22.402905238
 20
8.8256983943
 30
0.0
 40
0.1000000000000013
100
AcDbArc
 50
30.0
 51
150.0
  0
ARC
  5
310
330
1F
100
AcDbEntity
  8
0
  6
Continuous
 62
     7
370
    15
100
AcDbCircle
 10
-23.0419683411
 20
7.7188086305
 30
0.0
 40
0.1000000000000014
100
AcDbArc
 50
150.0
 51
270.0
  0
ARC
  5
311
330
1F
100
AcDbEntity
  8
0
  6
Continuous
 62
     7
370
    15
100
AcDbCircle
 10
-21.7638421349
 20
7.7188086305
 30
0.0
 40
0.1000000000000023
100
AcDbArc
 50
270.0
 51
30.0
  0
ARC
  5
312
330
1F
100
AcDbEntity
  8
0
  6
Continuous
 62
     7
370
    15
100
AcDbCircle
 10
-21.0132867849
 20
7.8188086305
 30
0.0
 40
0.1000000000000043
100
AcDbArc
 50
210.0
 51
330.0
  0
ARC
  5
313
330
1F
100
AcDbEntity
  8
0
  6
Continuous
 62
     7
370
    15
100
AcDbCircle
 10
-20.3742236819
 20
8.9256983943
 30
0.0
 40
0.0999999999999961
100
AcDbArc
 50
330.0
 51
90.0
  0
ARC
  5
314
330
1F
100
AcDbEntity
  8
0
  6
Continuous
 62
     7
370
    15
100
AcDbCircle
 10
-21.652349888
 20
8.9256983943
 30
0.0
 40
0.1
100
AcDbArc
 50
90.0
 51
210.0
  0
ARC
  5
315
330
1F
100
AcDbEntity
  8
0
  6
Continuous
 62
     7
370
    15
100
AcDbCircle
 10
-19.6236683319
 20
8.8256983943
 30
0.0
 40
0.0999999999999982
100
AcDbArc
 50
30.0
 51
150.0
  0
ARC
  5
316
330
1F
100
AcDbEntity
  8
0
  6
Continuous
 62
     7
370
    15
100
AcDbCircle
 10
-20.262731435
 20
7.7188086305
 30
0.0
 40
0.0999999999999996
100
AcDbArc
 50
150.0
 51
270.0
  0
ARC
  5
317
330
1F
100
AcDbEntity
  8
0
  6
Continuous
 62
     7
370
    15
100
AcDbCircle
 10
-18.9846052288
 20
7.7188086305
 30
0.0
 40
0.1000000000000008
100
AcDbArc
 50
270.0
 51
30.0
  0
ARC
  5
318
330
1F
100
AcDbEntity
  8
0
  6
Continuous
 62
     7
370
    15
100
AcDbCircle
 10
-18.2340498789
 20
7.8188086305
 30
0.0
 40
0.1
100
AcDbArc
 50
210.0
 51
330.0
  0
ARC
  5
319
330
1F
100
AcDbEntity
  8
0
  6
Continuous
 62
     7
370
    15
100
AcDbCircle
 10
-17.5949867758
 20
8.9256983943
 30
0.0
 40
0.1000000000000014
100
AcDbArc
 50
330.0
 51
90.0
  0
ARC
  5
31A
330
1F
100
AcDbEntity
  8
0
  6
Continuous
 62
     7
370
    15
100
AcDbCircle
 10
-18.873112982
 20
8.9256983943
 30
0.0
 40
0.100000000000003
100
AcDbArc
 50
90.0
 51
210.0
  0
ARC
  5
31B
330
1F
100
AcDbEntity
  8
0
  6
Continuous
 62
     7
370
    15
100
AcDbCircle
 10
-17.4834945289
 20
7.7188086305
 30
0.0
 40
0.1000000000000008
100
AcDbArc
 50
150.0
 51
270.0
  0
ARC
  5
31C
330
1F
100
AcDbEntity
  8
0
  6
Continuous
 62
     7
370
    15
100
AcDbCircle
 10
-16.2053683228
 20
7.7188086305
 30
0.0
 40
0.1000000000000014
100
AcDbArc
 50
270.0
 51
30.0
  0
ARC
  5
31D
330
1F
100
AcDbEntity
  8
0
  6
Continuous
 62
     7
370
    15
100
AcDbCircle
 10
-16.8444314259
 20
8.8256983943
 30
0.0
 40
0.0999999999999991
100
AcDbArc
 50
30.0
 51
150.0
  0
ARC
  5
31E
330
1F
100
AcDbEntity
  8
0
  6
Continuous
 62
     7
370
    15
100
AcDbCircle
 10
-16.0938760759
 20
8.9256983943
 30
0.0
 40
0.1
100
AcDbArc
 50
90.0
 51
210.0
  0
ARC
  5
31F
330
1F
100
AcDbEntity
  8
0
  6
Continuous
 62
     7
370
    15
100
AcDbCircle
 10
-15.4548129728
 20
7.8188086305
 30
0.0
 40
0.1000000000000039
100
AcDbArc
 50
210.0
 51
330.0
  0
ARC
  5
320
330
1F
100
AcDbEntity
  8
0
  6
Continuous
 62
     7
370
    15
100
AcDbCircle
 10
-14.8157498698
 20
8.9256983943
 30
0.0
 40
0.0999999999999996
100
AcDbArc
 50
330.0
 51
90.0
  0
ARC
  5
321
330
1F
100
AcDbEntity
  8
0
  6
Continuous
 62
     7
370
    15
100
AcDbCircle
 10
-13.4261314167
 20
7.7188086305
 30
0.0
 40
0.1000000000000005
100
AcDbArc
 50
270.0
 51
30.0
  0
ARC
  5
322
330
1F
100
AcDbEntity
  8
0
  6
Continuous
 62
     7
370
    15
100
AcDbCircle
 10
-14.0651945198
 20
8.8256983943
 30
0.0
 40
0.1000000000000039
100
AcDbArc
 50
30.0
 51
150.0
  0
ARC
  5
323
330
1F
100
AcDbEntity
  8
0
  6
Continuous
 62
     7
370
    15
100
AcDbCircle
 10
-14.7042576229
 20
7.7188086305
 30
0.0
 40
0.1000000000000023
100
AcDbArc
 50
150.0
 51
270.0
  0
ARC
  5
324
330
1F
100
AcDbEntity
  8
0
  6
Continuous
 62
     7
370
    15
100
AcDbCircle
 10
-12.6755760668
 20
7.8188086305
 30
0.0
 40
0.0999999999999995
100
AcDbArc
 50
210.0
 51
330.0
  0
ARC
  5
325
330
1F
100
AcDbEntity
  8
0
  6
Continuous
 62
     7
370
    15
100
AcDbCircle
 10
-12.0365129637
 20
8.9256983943
 30
0.0
 40
0.0999999999999996
100
AcDbArc
 50
330.0
 51
90.0
  0
ARC
  5
326
330
1F
100
AcDbEntity
  8
0
  6
Continuous
 62
     7
370
    15
100
AcDbCircle
 10
-13.3146391699
 20
8.9256983943
 30
0.0
 40
0.1000000000000037
100
AcDbArc
 50
90.0
 51
210.0
  0
ARC
  5
327
330
1F
100
AcDbEntity
  8
0
  6
Continuous
 62
     7
370
    15
100
AcDbCircle
 10
-10.6468945107
 20
7.7188086305
 30
0.0
 40
0.1000000000000032
100
AcDbArc
 50
270.0
 51
30.0
  0
ARC
  5
328
330
1F
100
AcDbEntity
  8
0
  6
Continuous
 62
     7
370
    15
100
AcDbCircle
 10
-11.2859576138
 20
8.8256983943
 30
0.0
 40
0.0999999999999988
100
AcDbArc
 50
30.0
 51
150.0
  0
ARC
  5
329
330
1F
100
AcDbEntity
  8
0
  6
Continuous
 62
     7
370
    15
100
AcDbCircle
 10
-11.9250207168
 20
7.7188086305
 30
0.0
 40
0.100000000000003
100
AcDbArc
 50
150.0
 51
270.0
  0
ARC
  5
32A
330
1F
100
AcDbEntity
  8
0
  6
Continuous
 62
     7
370
    15
100
AcDbCircle
 10
-10.5354022638
 20
8.9256983943
 30
0.0
 40
0.1000000000000021
100
AcDbArc
 50
90.0
 51
210.0
  0
ARC
  5
32B
330
1F
100
AcDbEntity
  8
0
  6
Continuous
 62
     7
370
    15
100
AcDbCircle
 10
-9.8963391607
 20
7.8188086305
 30
0.0
 40
0.0999999999999973
100
AcDbArc
 50
210.0
 51
330.0
  0
ARC
  5
32C
330
1F
100
AcDbEntity
  8
0
  6
Continuous
 62
     7
370
    15
100
AcDbCircle
 10
-9.2572760576
 20
8.9256983943
 30
0.0
 40
0.0999999999999996
100
AcDbArc
 50
330.0
 51
90.0
  0
ARC
  5
32D
330
1F
100
AcDbEntity
  8
0
  6
Continuous
 62
     7
370
    15
100
AcDbCircle
 10
-9.1457838108
 20
7.7188086305
 30
0.0
 40
0.1000000000000026
100
AcDbArc
 50
150.0
 51
270.0
  0
ARC
  5
32E
330
1F
100
AcDbEntity
  8
0
  6
Continuous
 62
     7
370
    15
100
AcDbCircle
 10
-7.8676576046
 20
7.7188086305
 30
0.0
 40
0.1000000000000009
100
AcDbArc
 50
270.0
 51
30.0
  0
ARC
  5
32F
330
1F
100
AcDbEntity
  8
0
  6
Continuous
 62
     7
370
    15
100
AcDbCircle
 10
-8.5067207077
 20
8.8256983943
 30
0.0
 40
0.1000000000000015
100
AcDbArc
 50
30.0
 51
150.0
  0
ARC
  5
330
330
1F
100
AcDbEntity
  8
0
  6
Continuous
 62
     7
370
    15
100
AcDbCircle
 10
-8.5067207077
 20
10.0256983943
 30
0.0
 40
0.1000000000000026
100
AcDbArc
 50
210.0
 51
330.0
  0
ARC
  5
331
330
1F
100
AcDbEntity
  8
0
  6
Continuous
 62
     7
370
    15
100
AcDbCircle
 10
-7.8676576046
 20
11.132588158
 30
0.0
 40
0.1000000000000032
100
AcDbArc
 50
330.0
 51
90.0
  0
ARC
  5
332
330
1F
100
AcDbEntity
  8
0
  6
Continuous
 62
     7
370
    15
100
AcDbCircle
 10
-9.1457838108
 20
11.132588158
 30
0.0
 40
0.1000000000000017
100
AcDbArc
 50
90.0
 51
210.0
  0
ARC
  5
333
330
1F
100
AcDbEntity
  8
0
  6
Continuous
 62
     7
370
    15
100
AcDbCircle
 10
-9.2572760576
 20
9.9256983943
 30
0.0
 40
0.0999999999999984
100
AcDbArc
 50
270.0
 51
30.0
  0
ARC
  5
334
330
1F
100
AcDbEntity
  8
0
  6
Continuous
 62
     7
370
    15
100
AcDbCircle
 10
-9.8963391607
 20
11.032588158
 30
0.0
 40
0.1000000000000008
100
AcDbArc
 50
30.0
 51
150.0
  0
ARC
  5
335
330
1F
100
AcDbEntity
  8
0
  6
Continuous
 62
     7
370
    15
100
AcDbCircle
 10
-10.5354022638
 20
9.9256983943
 30
0.0
 40
0.1000000000000017
100
AcDbArc
 50
150.0
 51
270.0
  0
ARC
  5
336
330
1F
100
AcDbEntity
  8
0
  6
Continuous
 62
     7
370
    15
100
AcDbCircle
 10
-11.2859576138
 20
10.0256983943
 30
0.0
 40
0.1000000000000017
100
AcDbArc
 50
210.0
 51
330.0
  0
ARC
  5
337
330
1F
100
AcDbEntity
  8
0
  6
Continuous
 62
     7
370
    15
100
AcDbCircle
 10
-10.6468945107
 20
11.132588158
 30
0.0
 40
0.1000000000000032
100
AcDbArc
 50
330.0
 51
90.0
  0
ARC
  5
338
330
1F
100
AcDbEntity
  8
0
  6
Continuous
 62
     7
370
    15
100
AcDbCircle
 10
-11.9250207168
 20
11.132588158
 30
0.0
 40
0.1000000000000032
100
AcDbArc
 50
90.0
 51
210.0
  0
ARC
  5
339
330
1F
100
AcDbEntity
  8
0
  6
Continuous
 62
     7
370
    15
100
AcDbCircle
 10
-13.3146391699
 20
9.9256983943
 30
0.0
 40
0.0999999999999978
100
AcDbArc
 50
150.0
 51
270.0
  0
ARC
  5
33A
330
1F
100
AcDbEntity
  8
0
  6
Continuous
 62
     7
370
    15
100
AcDbCircle
 10
-12.0365129637
 20
9.9256983943
 30
0.0
 40
0.1000000000000014
100
AcDbArc
 50
270.0
 51
30.0
  0
ARC
  5
33B
330
1F
100
AcDbEntity
  8
0
  6
Continuous
 62
     7
370
    15
100
AcDbCircle
 10
-12.6755760668
 20
11.032588158
 30
0.0
 40
0.1
100
AcDbArc
 50
30.0
 51
150.0
  0
ARC
  5
33C
330
1F
100
AcDbEntity
  8
0
  6
Continuous
 62
     7
370
    15
100
AcDbCircle
 10
-14.0651945198
 20
10.0256983943
 30
0.0
 40
0.1
100
AcDbArc
 50
210.0
 51
330.0
  0
ARC
  5
33D
330
1F
100
AcDbEntity
  8
0
  6
Continuous
 62
     7
370
    15
100
AcDbCircle
 10
-13.4261314167
 20
11.132588158
 30
0.0
 40
0.1000000000000013
100
AcDbArc
 50
330.0
 51
90.0
  0
ARC
  5
33E
330
1F
100
AcDbEntity
  8
0
  6
Continuous
 62
     7
370
    15
100
AcDbCircle
 10
-14.7042576229
 20
11.132588158
 30
0.0
 40
0.1000000000000015
100
AcDbArc
 50
90.0
 51
210.0
  0
ARC
  5
33F
330
1F
100
AcDbEntity
  8
0
  6
Continuous
 62
     7
370
    15
100
AcDbCircle
 10
-15.4548129728
 20
11.032588158
 30
0.0
 40
0.1000000000000021
100
AcDbArc
 50
30.0
 51
150.0
  0
ARC
  5
340
330
1F
100
AcDbEntity
  8
0
  6
Continuous
 62
     7
370
    15
100
AcDbCircle
 10
-16.0938760759
 20
9.9256983943
 30
0.0
 40
0.0999999999999978
100
AcDbArc
 50
150.0
 51
270.0
  0
ARC
  5
341
330
1F
100
AcDbEntity
  8
0
  6
Continuous
 62
     7
370
    15
100
AcDbCircle
 10
-14.8157498698
 20
9.9256983943
 30
0.0
 40
0.1000000000000014
100
AcDbArc
 50
270.0
 51
30.0
  0
ARC
  5
342
330
1F
100
AcDbEntity
  8
0
  6
Continuous
 62
     7
370
    15
100
AcDbCircle
 10
-16.2053683228
 20
11.132588158
 30
0.0
 40
0.0999999999999996
100
AcDbArc
 50
330.0
 51
90.0
  0
ARC
  5
343
330
1F
100
AcDbEntity
  8
0
  6
Continuous
 62
     7
370
    15
100
AcDbCircle
 10
-17.4834945289
 20
11.132588158
 30
0.0
 40
0.0999999999999996
100
AcDbArc
 50
90.0
 51
210.0
  0
ARC
  5
344
330
1F
100
AcDbEntity
  8
0
  6
Continuous
 62
     7
370
    15
100
AcDbCircle
 10
-17.5949867758
 20
9.9256983943
 30
0.0
 40
0.1000000000000021
100
AcDbArc
 50
270.0
 51
30.0
  0
ARC
  5
345
330
1F
100
AcDbEntity
  8
0
  6
Continuous
 62
     7
370
    15
100
AcDbCircle
 10
-18.2340498789
 20
11.032588158
 30
0.0
 40
0.1
100
AcDbArc
 50
30.0
 51
150.0
  0
ARC
  5
346
330
1F
100
AcDbEntity
  8
0
  6
Continuous
 62
     7
370
    15
100
AcDbCircle
 10
-18.873112982
 20
9.9256983943
 30
0.0
 40
0.0999999999999978
100
AcDbArc
 50
150.0
 51
270.0
  0
ARC
  5
347
330
1F
100
AcDbEntity
  8
0
  6
Continuous
 62
     7
370
    15
100
AcDbCircle
 10
-18.9846052288
 20
11.132588158
 30
0.0
 40
0.1
100
AcDbArc
 50
330.0
 51
90.0
  0
ARC
  5
348
330
1F
100
AcDbEntity
  8
0
  6
Continuous
 62
     7
370
    15
100
AcDbCircle
 10
-20.262731435
 20
11.132588158
 30
0.0
 40
0.1
100
AcDbArc
 50
90.0
 51
210.0
  0
ARC
  5
349
330
1F
100
AcDbEntity
  8
0
  6
Continuous
 62
     7
370
    15
100
AcDbCircle
 10
-19.6236683319
 20
10.0256983943
 30
0.0
 40
0.0999999999999973
100
AcDbArc
 50
210.0
 51
330.0
  0
ARC
  5
34A
330
1F
100
AcDbEntity
  8
0
  6
Continuous
 62
     7
370
    15
100
AcDbCircle
 10
-20.3742236819
 20
9.9256983943
 30
0.0
 40
0.0999999999999961
100
AcDbArc
 50
270.0
 51
30.0
  0
ARC
  5
34B
330
1F
100
AcDbEntity
  8
0
  6
Continuous
 62
     7
370
    15
100
AcDbCircle
 10
-21.0132867849
 20
11.032588158
 30
0.0
 40
0.1000000000000052
100
AcDbArc
 50
30.0
 51
150.0
  0
ARC
  5
34C
330
1F
100
AcDbEntity
  8
0
  6
Continuous
 62
     7
370
    15
100
AcDbCircle
 10
-21.652349888
 20
9.9256983943
 30
0.0
 40
0.1
100
AcDbArc
 50
150.0
 51
270.0
  0
ARC
  5
34D
330
1F
100
AcDbEntity
  8
0
  6
Continuous
 62
     7
370
    15
100
AcDbCircle
 10
-21.7638421349
 20
11.132588158
 30
0.0
 40
0.1000000000000032
100
AcDbArc
 50
330.0
 51
90.0
  0
ARC
  5
34E
330
1F
100
AcDbEntity
  8
0
  6
Continuous
 62
     7
370
    15
100
AcDbCircle
 10
-23.0419683411
 20
11.132588158
 30
0.0
 40
0.100000000000005
100
AcDbArc
 50
90.0
 51
210.0
  0
ARC
  5
34F
330
1F
100
AcDbEntity
  8
0
  6
Continuous
 62
     7
370
    15
100
AcDbCircle
 10
-22.402905238
 20
10.0256983943
 30
0.0
 40
0.100000000000003
100
AcDbArc
 50
210.0
 51
330.0
  0
ARC
  5
350
330
1F
100
AcDbEntity
  8
0
  6
Continuous
 62
     7
370
    15
100
AcDbCircle
 10
-23.792523691
 20
11.032588158
 30
0.0
 40
0.1000000000000013
100
AcDbArc
 50
30.0
 51
150.0
  0
ARC
  5
351
330
1F
100
AcDbEntity
  8
0
  6
Continuous
 62
     7
370
    15
100
AcDbCircle
 10
-24.4315867941
 20
9.9256983943
 30
0.0
 40
0.1000000000000014
100
AcDbArc
 50
150.0
 51
270.0
  0
ARC
  5
352
330
1F
100
AcDbEntity
  8
0
  6
Continuous
 62
     7
370
    15
100
AcDbCircle
 10
-23.1534605879
 20
9.9256983943
 30
0.0
 40
0.0999999999999969
100
AcDbArc
 50
270.0
 51
30.0
  0
ARC
  5
353
330
1F
100
AcDbEntity
  8
0
  6
Continuous
 62
     7
370
    15
100
AcDbCircle
 10
-24.5430790409
 20
11.132588158
 30
0.0
 40
0.1000000000000032
100
AcDbArc
 50
330.0
 51
90.0
  0
ARC
  5
354
330
1F
100
AcDbEntity
  8
0
  6
Continuous
 62
     7
370
    15
100
AcDbCircle
 10
-25.8212052471
 20
11.132588158
 30
0.0
 40
0.100000000000003
100
AcDbArc
 50
90.0
 51
210.0
  0
ARC
  5
355
330
1F
100
AcDbEntity
  8
0
  6
Continuous
 62
     7
370
    15
100
AcDbCircle
 10
-25.182142144
 20
10.0256983943
 30
0.0
 40
0.1000000000000043
100
AcDbArc
 50
210.0
 51
330.0
  0
ARC
  5
356
330
1F
100
AcDbEntity
  8
0
  6
Continuous
 62
     7
370
    15
100
AcDbCircle
 10
-26.5717605971
 20
11.032588158
 30
0.0
 40
0.1000000000000057
100
AcDbArc
 50
30.0
 51
150.0
  0
ARC
  5
357
330
1F
100
AcDbEntity
  8
0
  6
Continuous
 62
     7
370
    15
100
AcDbCircle
 10
-27.2108237001
 20
9.9256983943
 30
0.0
 40
0.1
100
AcDbArc
 50
150.0
 51
270.0
  0
ARC
  5
358
330
1F
100
AcDbEntity
  8
0
  6
Continuous
 62
     7
370
    15
100
AcDbCircle
 10
-25.932697494
 20
9.9256983943
 30
0.0
 40
0.0999999999999969
100
AcDbArc
 50
270.0
 51
30.0
  0
ARC
  5
359
330
1F
100
AcDbEntity
  8
0
  6
Continuous
 62
     7
370
    15
100
AcDbCircle
 10
-28.6004421532
 20
11.132588158
 30
0.0
 40
0.1000000000000014
100
AcDbArc
 50
90.0
 51
210.0
  0
ARC
  5
35A
330
1F
100
AcDbEntity
  8
0
  6
Continuous
 62
     7
370
    15
100
AcDbCircle
 10
-27.9613790501
 20
10.0256983943
 30
0.0
 40
0.0999999999999928
100
AcDbArc
 50
210.0
 51
330.0
  0
ARC
  5
35B
330
1F
100
AcDbEntity
  8
0
  6
Continuous
 62
     7
370
    15
100
AcDbCircle
 10
-27.322315947
 20
11.132588158
 30
0.0
 40
0.1000000000000026
100
AcDbArc
 50
330.0
 51
90.0
  0
ARC
  5
35C
330
1F
100
AcDbEntity
  8
0
  6
Continuous
 62
     7
370
    15
100
AcDbCircle
 10
-23.750699892
 20
13.3162900537
 30
0.0
 40
0.1
100
AcDbArc
 50
270.0
 51
30.0
  0
ARC
  5
35D
330
1F
100
AcDbEntity
  8
0
  6
Continuous
 62
     7
370
    15
100
AcDbCircle
 10
-24.443520215
 20
14.5162900537
 30
0.0
 40
0.1000000000000004
100
AcDbArc
 50
30.0
 51
150.0
  0
ARC
  5
35E
330
1F
100
AcDbEntity
  8
0
  6
Continuous
 62
     7
370
    15
100
AcDbCircle
 10
-25.136340538
 20
13.3162900537
 30
0.0
 40
0.1000000000000032
100
AcDbArc
 50
150.0
 51
270.0
  0
ARC
  5
35F
330
1F
100
AcDbEntity
  8
0
  6
Continuous
 62
     7
370
    15
100
AcDbCircle
 10
-26.2910410764
 20
14.6162900537
 30
0.0
 40
0.1000000000000014
100
AcDbArc
 50
90.0
 51
210.0
  0
ARC
  5
360
330
1F
100
AcDbEntity
  8
0
  6
Continuous
 62
     7
370
    15
100
AcDbCircle
 10
-25.5982207534
 20
13.4162900537
 30
0.0
 40
0.1000000000000013
100
AcDbArc
 50
210.0
 51
330.0
  0
ARC
  5
361
330
1F
100
AcDbEntity
  8
0
  6
Continuous
 62
     7
370
    15
100
AcDbCircle
 10
-24.9054004304
 20
14.6162900537
 30
0.0
 40
0.0999999999999952
100
AcDbArc
 50
330.0
 51
90.0
  0
ARC
  5
362
330
1F
100
AcDbEntity
  8
0
  6
Continuous
 62
     7
370
    15
100
AcDbCircle
 10
-26.7529212918
 20
14.5162900537
 30
0.0
 40
0.1000000000000004
100
AcDbArc
 50
30.0
 51
150.0
  0
ARC
  5
363
330
1F
100
AcDbEntity
  8
0
  6
Continuous
 62
     7
370
    15
100
AcDbCircle
 10
-27.4457416148
 20
13.3162900537
 30
0.0
 40
0.0999999999999965
100
AcDbArc
 50
150.0
 51
270.0
  0
ARC
  5
364
330
1F
100
AcDbEntity
  8
0
  6
Continuous
 62
     7
370
    15
100
AcDbCircle
 10
-26.0601009687
 20
13.3162900537
 30
0.0
 40
0.1000000000000032
100
AcDbArc
 50
270.0
 51
30.0
  0
ARC
  5
365
330
1F
100
AcDbEntity
  8
0
  6
Continuous
 62
     7
370
    15
100
AcDbCircle
 10
-27.9076218301
 20
13.4162900537
 30
0.0
 40
0.1000000000000057
100
AcDbArc
 50
210.0
 51
330.0
  0
ARC
  5
366
330
1F
100
AcDbEntity
  8
0
  6
Continuous
 62
     7
370
    15
100
AcDbCircle
 10
-27.2148015071
 20
14.6162900537
 30
0.0
 40
0.0999999999999982
100
AcDbArc
 50
330.0
 51
90.0
  0
ARC
  5
367
330
1F
100
AcDbEntity
  8
0
  6
Continuous
 62
     7
370
    15
100
AcDbCircle
 10
-28.6004421532
 20
14.6162900537
 30
0.0
 40
0.1000000000000039
100
AcDbArc
 50
90.0
 51
210.0
  0
ARC
  5
368
330
1F
100
AcDbEntity
  8
0
  6
Continuous
 62
     7
370
    15
100
AcDbCircle
 10
-18.4058183136
 20
14.6162900537
 30
0.0
 40
0.1000000000000014
100
AcDbArc
 50
90.0
 51
210.0
  0
ARC
  5
369
330
1F
100
AcDbEntity
  8
0
  6
Continuous
 62
     7
370
    15
100
AcDbCircle
 10
-17.7129979906
 20
13.4162900537
 30
0.0
 40
0.1000000000000017
100
AcDbArc
 50
210.0
 51
330.0
  0
ARC
  5
36A
330
1F
100
AcDbEntity
  8
0
  6
Continuous
 62
     7
370
    15
100
AcDbCircle
 10
-17.0201776675
 20
14.6162900537
 30
0.0
 40
0.1000000000000008
100
AcDbArc
 50
330.0
 51
90.0
  0
ARC
  5
36B
330
1F
100
AcDbEntity
  8
0
  6
Continuous
 62
     7
370
    15
100
AcDbCircle
 10
-17.2511177752
 20
13.3162900537
 30
0.0
 40
0.0999999999999996
100
AcDbArc
 50
150.0
 51
270.0
  0
ARC
  5
36C
330
1F
100
AcDbEntity
  8
0
  6
Continuous
 62
     7
370
    15
100
AcDbCircle
 10
-15.8654771292
 20
13.3162900537
 30
0.0
 40
0.0999999999999996
100
AcDbArc
 50
270.0
 51
30.0
  0
ARC
  5
36D
330
1F
100
AcDbEntity
  8
0
  6
Continuous
 62
     7
370
    15
100
AcDbCircle
 10
-16.5582974522
 20
14.5162900537
 30
0.0
 40
0.1000000000000004
100
AcDbArc
 50
30.0
 51
150.0
  0
ARC
  5
36E
330
1F
100
AcDbEntity
  8
0
  6
Continuous
 62
     7
370
    15
100
AcDbCircle
 10
-19.560518852
 20
13.3162900537
 30
0.0
 40
0.0999999999999996
100
AcDbArc
 50
150.0
 51
270.0
  0
ARC
  5
36F
330
1F
100
AcDbEntity
  8
0
  6
Continuous
 62
     7
370
    15
100
AcDbCircle
 10
-18.1748782059
 20
13.3162900537
 30
0.0
 40
0.1000000000000008
100
AcDbArc
 50
270.0
 51
30.0
  0
ARC
  5
370
330
1F
100
AcDbEntity
  8
0
  6
Continuous
 62
     7
370
    15
100
AcDbCircle
 10
-18.8676985289
 20
14.5162900537
 30
0.0
 40
0.0999999999999991
100
AcDbArc
 50
30.0
 51
150.0
  0
ARC
  5
371
330
1F
100
AcDbEntity
  8
0
  6
Continuous
 62
     7
370
    15
100
AcDbCircle
 10
-6.8821789303
 20
14.2162900537
 30
0.0
 40
1.124999999999994
100
AcDbArc
 50
161.3877999612
 51
202.8853804762
  0
ARC
  5
372
330
1F
100
AcDbEntity
  8
0
  6
Continuous
 62
     7
370
    15
100
AcDbCircle
 10
-6.8821789303
 20
14.2162900537
 30
0.0
 40
1.124999999999981
100
AcDbArc
 50
206.3877999612
 51
247.8853804762
  0
ARC
  5
373
330
1F
100
AcDbEntity
  8
0
  6
Continuous
 62
     7
370
    15
100
AcDbCircle
 10
-6.8821789303
 20
14.2162900537
 30
0.0
 40
1.125000000000027
100
AcDbArc
 50
251.3877999612
 51
292.8853804762
  0
ARC
  5
374
330
1F
100
AcDbEntity
  8
0
  6
Continuous
 62
     7
370
    15
100
AcDbCircle
 10
-6.8821789303
 20
14.2162900537
 30
0.0
 40
1.125000000000013
100
AcDbArc
 50
296.3877999612
 51
337.8853804762
  0
ARC
  5
375
330
1F
100
AcDbEntity
  8
0
  6
Continuous
 62
     7
370
    15
100
AcDbCircle
 10
-6.8821789303
 20
14.2162900537
 30
0.0
 40
1.125000000000013
100
AcDbArc
 50
341.3877999612
 51
22.8853804762
  0
ARC
  5
376
330
1F
100
AcDbEntity
  8
0
  6
Continuous
 62
     7
370
    15
100
AcDbCircle
 10
-6.8821789303
 20
14.2162900537
 30
0.0
 40
1.12500000000003
100
AcDbArc
 50
26.3877999612
 51
67.8853804762
  0
ARC
  5
377
330
1F
100
AcDbEntity
  8
0
  6
Continuous
 62
     7
370
    15
100
AcDbCircle
 10
-6.8821789303
 20
14.2162900537
 30
0.0
 40
1.124999999999998
100
AcDbArc
 50
71.3877999612
 51
112.8853804762
  0
ARC
  5
378
330
1F
100
AcDbEntity
  8
0
  6
Continuous
 62
     7
370
    15
100
AcDbCircle
 10
-6.8821789303
 20
14.2162900537
 30
0.0
 40
1.125000000000013
100
AcDbArc
 50
116.3877999612
 51
157.8853804762
  0
ARC
  5
379
330
1F
100
AcDbEntity
  8
0
  6
Continuous
 62
     7
370
    15
100
AcDbCircle
 10
-30.4736472339
 20
13.6651878378
 30
0.0
 40
0.3000000000003525
100
AcDbArc
 50
168.3477212354
 51
180.0
  0
ARC
  5
37A
330
1F
100
AcDbEntity
  8
0
  6
Continuous
 62
     7
370
    15
100
AcDbCircle
 10
-29.0
 20
16.7263967885
 30
0.0
 40
1.124999999999999
100
AcDbArc
 50
90.0
 51
168.3477212354
  0
ARC
  5
37B
330
1F
100
AcDbEntity
  8
0
  6
Continuous
 62
     7
370
    15
100
AcDbCircle
 10
-6.776686384
 20
15.8513967885
 30
0.0
 40
2.000000000000085
100
AcDbArc
 50
55.0
 51
90.0
  0
ARC
  5
37C
330
1F
100
AcDbEntity
  8
0
  6
Continuous
 62
     7
370
    15
100
AcDbCircle
 10
-0.65625
 20
13.3969829784
 30
0.0
 40
0.500000000000003
100
AcDbArc
 50
0.0
 51
55.0
  0
ARC
  5
37D
330
1F
100
AcDbEntity
  8
0
  6
Continuous
 62
     7
370
    15
100
AcDbCircle
 10
-0.45625
 20
13.0162900537
 30
0.0
 40
0.3000000000000009
100
AcDbArc
 50
270.0
 51
0.0
  0
ARC
  5
37E
330
1F
100
AcDbEntity
  8
0
  6
Continuous
 62
     7
370
    15
100
AcDbCircle
 10
-3.3
 20
11.2256983943
 30
0.0
 40
0.3000000000000038
100
AcDbArc
 50
270.0
 51
0.0
  0
ARC
  5
37F
330
1F
100
AcDbEntity
  8
0
  6
Continuous
 62
     7
370
    15
100
AcDbCircle
 10
-5.7
 20
10.6256983943
 30
0.0
 40
0.3000000000000007
100
AcDbArc
 50
90.0
 51
180.0
  0
ARC
  5
380
330
1F
100
AcDbEntity
  8
0
  6
Continuous
 62
     7
370
    15
100
AcDbCircle
 10
-5.7
 20
8.2256983943
 30
0.0
 40
0.299999999999998
100
AcDbArc
 50
180.0
 51
270.0
  0
ARC
  5
381
330
1F
100
AcDbEntity
  8
0
  6
Continuous
 62
     7
370
    15
100
AcDbCircle
 10
-3.3
 20
7.6256983943
 30
0.0
 40
0.2999999999999998
100
AcDbArc
 50
0.0
 51
90.0
  0
ARC
  5
382
330
1F
100
AcDbEntity
  8
0
  6
Continuous
 62
     7
370
    15
100
AcDbCircle
 10
1.2637128464
 20
5.8351067348
 30
0.0
 40
0.2999999999999967
100
AcDbArc
 50
0.0
 51
90.0
  0
ARC
  5
383
330
1F
100
AcDbEntity
  8
0
  6
Continuous
 62
     7
370
    15
100
AcDbCircle
 10
1.0637128464
 20
5.4544138101
 30
0.0
 40
0.4999999999999936
100
AcDbArc
 50
305.0
 51
0.0
  0
ARC
  5
384
330
1F
100
AcDbEntity
  8
0
  6
Continuous
 62
     7
370
    15
100
AcDbCircle
 10
-6.776686384
 20
3.0
 30
0.0
 40
1.999999999999999
100
AcDbArc
 50
270.0
 51
305.0
  0
ARC
  5
385
330
1F
100
AcDbEntity
  8
0
  6
Continuous
 62
     7
370
    15
100
AcDbCircle
 10
-29.0
 20
2.125
 30
0.0
 40
1.124999999999999
100
AcDbArc
 50
191.6522787646
 51
270.0
  0
ARC
  5
386
330
1F
100
AcDbEntity
  8
0
  6
Continuous
 62
     7
370
    15
100
AcDbCircle
 10
-30.4736472339
 20
5.1862089507
 30
0.0
 40
0.3000000000007796
100
AcDbArc
 50
180.0
 51
191.6522787645
  0
ARC
  5
387
330
1F
100
AcDbEntity
  8
0
  6
Continuous
 62
     7
370
    15
100
AcDbCircle
 10
-24.443520215
 20
4.3351067348
 30
0.0
 40
0.100000000000003
100
AcDbArc
 50
210.0
 51
330.0
  0
ARC
  5
388
330
1F
100
AcDbEntity
  8
0
  6
Continuous
 62
     7
370
    15
100
AcDbCircle
 10
-23.750699892
 20
5.5351067348
 30
0.0
 40
0.1000000000000023
100
AcDbArc
 50
330.0
 51
90.0
  0
ARC
  5
389
330
1F
100
AcDbEntity
  8
0
  6
Continuous
 62
     7
370
    15
100
AcDbCircle
 10
-25.136340538
 20
5.5351067348
 30
0.0
 40
0.1000000000000014
100
AcDbArc
 50
90.0
 51
210.0
  0
ARC
  5
38A
330
1F
100
AcDbEntity
  8
0
  6
Continuous
 62
     7
370
    15
100
AcDbCircle
 10
-25.5982207534
 20
5.4351067348
 30
0.0
 40
0.1000000000000057
100
AcDbArc
 50
30.0
 51
150.0
  0
ARC
  5
38B
330
1F
100
AcDbEntity
  8
0
  6
Continuous
 62
     7
370
    15
100
AcDbCircle
 10
-26.2910410764
 20
4.2351067348
 30
0.0
 40
0.1000000000000008
100
AcDbArc
 50
150.0
 51
270.0
  0
ARC
  5
38C
330
1F
100
AcDbEntity
  8
0
  6
Continuous
 62
     7
370
    15
100
AcDbCircle
 10
-24.9054004304
 20
4.2351067348
 30
0.0
 40
0.0999999999999938
100
AcDbArc
 50
270.0
 51
30.0
  0
ARC
  5
38D
330
1F
100
AcDbEntity
  8
0
  6
Continuous
 62
     7
370
    15
100
AcDbCircle
 10
-27.4457416148
 20
5.5351067348
 30
0.0
 40
0.0999999999999952
100
AcDbArc
 50
90.0
 51
210.0
  0
ARC
  5
38E
330
1F
100
AcDbEntity
  8
0
  6
Continuous
 62
     7
370
    15
100
AcDbCircle
 10
-26.7529212918
 20
4.3351067348
 30
0.0
 40
0.0999999999999968
100
AcDbArc
 50
210.0
 51
330.0
  0
ARC
  5
38F
330
1F
100
AcDbEntity
  8
0
  6
Continuous
 62
     7
370
    15
100
AcDbCircle
 10
-26.0601009687
 20
5.5351067348
 30
0.0
 40
0.0999999999999988
100
AcDbArc
 50
330.0
 51
90.0
  0
ARC
  5
390
330
1F
100
AcDbEntity
  8
0
  6
Continuous
 62
     7
370
    15
100
AcDbCircle
 10
-27.2148015071
 20
4.2351067348
 30
0.0
 40
0.0999999999999965
100
AcDbArc
 50
270.0
 51
30.0
  0
ARC
  5
391
330
1F
100
AcDbEntity
  8
0
  6
Continuous
 62
     7
370
    15
100
AcDbCircle
 10
-27.9076218301
 20
5.4351067348
 30
0.0
 40
0.1000000000000061
100
AcDbArc
 50
30.0
 51
150.0
  0
ARC
  5
392
330
1F
100
AcDbEntity
  8
0
  6
Continuous
 62
     7
370
    15
100
AcDbCircle
 10
-28.6004421532
 20
4.2351067348
 30
0.0
 40
0.1000000000000008
100
AcDbArc
 50
150.0
 51
270.0
  0
ARC
  5
393
330
1F
100
AcDbEntity
  8
0
  6
Continuous
 62
     7
370
    15
100
AcDbCircle
 10
-17.7129979906
 20
5.4351067348
 30
0.0
 40
0.0999999999999995
100
AcDbArc
 50
30.0
 51
150.0
  0
ARC
  5
394
330
1F
100
AcDbEntity
  8
0
  6
Continuous
 62
     7
370
    15
100
AcDbCircle
 10
-18.4058183136
 20
4.2351067348
 30
0.0
 40
0.0999999999999988
100
AcDbArc
 50
150.0
 51
270.0
  0
ARC
  5
395
330
1F
100
AcDbEntity
  8
0
  6
Continuous
 62
     7
370
    15
100
AcDbCircle
 10
-17.0201776675
 20
4.2351067348
 30
0.0
 40
0.1000000000000035
100
AcDbArc
 50
270.0
 51
30.0
  0
ARC
  5
396
330
1F
100
AcDbEntity
  8
0
  6
Continuous
 62
     7
370
    15
100
AcDbCircle
 10
-15.8654771292
 20
5.5351067348
 30
0.0
 40
0.0999999999999996
100
AcDbArc
 50
330.0
 51
90.0
  0
ARC
  5
397
330
1F
100
AcDbEntity
  8
0
  6
Continuous
 62
     7
370
    15
100
AcDbCircle
 10
-17.2511177752
 20
5.5351067348
 30
0.0
 40
0.0999999999999996
100
AcDbArc
 50
90.0
 51
210.0
  0
ARC
  5
398
330
1F
100
AcDbEntity
  8
0
  6
Continuous
 62
     7
370
    15
100
AcDbCircle
 10
-16.5582974522
 20
4.3351067348
 30
0.0
 40
0.1000000000000017
100
AcDbArc
 50
210.0
 51
330.0
  0
ARC
  5
399
330
1F
100
AcDbEntity
  8
0
  6
Continuous
 62
     7
370
    15
100
AcDbCircle
 10
-18.1748782059
 20
5.5351067348
 30
0.0
 40
0.1000000000000005
100
AcDbArc
 50
330.0
 51
90.0
  0
ARC
  5
39A
330
1F
100
AcDbEntity
  8
0
  6
Continuous
 62
     7
370
    15
100
AcDbCircle
 10
-19.560518852
 20
5.5351067348
 30
0.0
 40
0.0999999999999996
100
AcDbArc
 50
90.0
 51
210.0
  0
ARC
  5
39B
330
1F
100
AcDbEntity
  8
0
  6
Continuous
 62
     7
370
    15
100
AcDbCircle
 10
-18.8676985289
 20
4.3351067348
 30
0.0
 40
0.0999999999999968
100
AcDbArc
 50
210.0
 51
330.0
  0
ARC
  5
39C
330
1F
100
AcDbEntity
  8
0
  6
Continuous
 62
     7
370
    15
100
AcDbCircle
 10
-6.8821789303
 20
4.6351067348
 30
0.0
 40
1.124999999999993
100
AcDbArc
 50
157.1146195238
 51
198.6122000388
  0
ARC
  5
39D
330
1F
100
AcDbEntity
  8
0
  6
Continuous
 62
     7
370
    15
100
AcDbCircle
 10
-6.8821789303
 20
4.6351067348
 30
0.0
 40
1.124999999999988
100
AcDbArc
 50
112.1146195238
 51
153.6122000388
  0
ARC
  5
39E
330
1F
100
AcDbEntity
  8
0
  6
Continuous
 62
     7
370
    15
100
AcDbCircle
 10
-6.8821789303
 20
4.6351067348
 30
0.0
 40
1.125000000000014
100
AcDbArc
 50
67.1146195238
 51
108.6122000388
  0
ARC
  5
39F
330
1F
100
AcDbEntity
  8
0
  6
Continuous
 62
     7
370
    15
100
AcDbCircle
 10
-6.8821789303
 20
4.6351067348
 30
0.0
 40
1.125000000000073
100
AcDbArc
 50
22.1146195238
 51
63.6122000388
  0
ARC
  5
3A0
330
1F
100
AcDbEntity
  8
0
  6
Continuous
 62
     7
370
    15
100
AcDbCircle
 10
-6.8821789303
 20
4.6351067348
 30
0.0
 40
1.124999999999976
100
AcDbArc
 50
337.1146195238
 51
18.6122000388
  0
ARC
  5
3A1
330
1F
100
AcDbEntity
  8
0
  6
Continuous
 62
     7
370
    15
100
AcDbCircle
 10
-6.8821789303
 20
4.6351067348
 30
0.0
 40
1.125000000000015
100
AcDbArc
 50
292.1146195238
 51
333.6122000388
  0
ARC
  5
3A2
330
1F
100
AcDbEntity
  8
0
  6
Continuous
 62
     7
370
    15
100
AcDbCircle
 10
-6.8821789303
 20
4.6351067348
 30
0.0
 40
1.124999999999984
100
AcDbArc
 50
247.1146195238
 51
288.6122000388
  0
ARC
  5
3A3
330
1F
100
AcDbEntity
  8
0
  6
Continuous
 62
     7
370
    15
100
AcDbCircle
 10
-6.8821789303
 20
4.6351067348
 30
0.0
 40
1.124999999999978
100
AcDbArc
 50
202.1146195238
 51
243.6122000388
  0
MTEXT
  5
3A5
330
1F
100
AcDbEntity
  8
0
  6
Continuous
 62
     7
100
AcDbMText
 10
-30.7736472339
 20
0.9598595909
 30
0.0
 40
0.1903
 41
0.0
 71
     1
 72
     1
  1
SOLIDWORKS Student Edition.
  7
SLDTEXTSTYLE0
 73
     1
 44
1.0
  0
MTEXT
  5
3A6
330
1F
100
AcDbEntity
  8
0
  6
Continuous
 62
     7
100
AcDbMText
 10
-30.7736472339
 20
0.6744095909
 30
0.0
 40
0.1903
 41
0.0
 71
     1
 72
     1
  1
For Academic Use Only.
  7
SLDTEXTSTYLE0
 73
     1
 44
1.0
  0
ENDSEC
  0
SECTION
  2
OBJECTS
  0
DICTIONARY
  5
C
330
0
100
AcDbDictionary
281
     1
  3
ACAD_GROUP
350
D
  3
ACAD_LAYOUT
350
1A
  3
ACAD_MLINESTYLE
350
17
  3
ACAD_PLOTSETTINGS
350
19
  3
ACAD_PLOTSTYLENAME
350
E
  3
ACAD_SCALELIST
350
47
  0
DICTIONARY
  5
D
102
{ACAD_REACTORS
330
C
102
}
330
C
100
AcDbDictionary
281
     1
  0
DICTIONARY
  5
1A
102
{ACAD_REACTORS
330
C
102
}
330
C
100
AcDbDictionary
281
     1
  3
Layout1
350
1E
  3
Layout2
350
26
  3
Model
350
22
  0
DICTIONARY
  5
17
102
{ACAD_REACTORS
330
C
102
}
330
C
100
AcDbDictionary
281
     1
  3
Standard
350
18
  0
DICTIONARY
  5
19
102
{ACAD_REACTORS
330
C
102
}
330
C
100
AcDbDictionary
281
     1
  0
ACDBDICTIONARYWDFLT
  5
E
102
{ACAD_REACTORS
330
C
102
}
330
C
100
AcDbDictionary
281
     1
  3
Normal
350
F
100
AcDbDictionaryWithDefault
340
F
  0
DICTIONARY
  5
47
102
{ACAD_REACTORS
330
C
102
}
330
C
100
AcDbDictionary
281
     1
  3
A0
350
48
  3
A1
350
49
  3
A2
350
4A
  3
A3
350
4B
  3
A4
350
4C
  3
A5
350
4D
  3
A6
350
4E
  3
A7
350
4F
  3
A8
350
50
  3
A9
350
51
  3
B0
350
52
  3
B1
350
53
  3
B2
350
54
  3
B3
350
55
  3
B4
350
56
  3
B5
350
57
  3
B6
350
58
  3
B7
350
59
  3
B8
350
5A
  3
B9
350
5B
  3
C0
350
5C
  3
C1
350
5D
  3
C2
350
5E
  3
C3
350
5F
  3
C4
350
60
  3
C5
350
61
  3
C6
350
62
  3
C7
350
63
  3
C8
350
64
  3
C9
350
65
  3
D0
350
66
  3
D1
350
67
  3
D2
350
68
  0
LAYOUT
  5
1E
102
{ACAD_REACTORS
330
1A
102
}
330
1A
100
AcDbPlotSettings
  1

  2
none_device
  4

  6

 40
0.0
 41
0.0
 42
0.0
 43
0.0
 44
0.0
 45
0.0
 46
0.0
 47
0.0
 48
0.0
 49
0.0
140
0.0
141
0.0
142
1.0
143
1.0
 70
   688
 72
     0
 73
     0
 74
     5
  7

 75
    16
147
1.0
148
0.0
149
0.0
100
AcDbLayout
  1
Layout1
 70
     1
 71
     1
 10
0.0
 20
0.0
 11
12.0
 21
9.0
 12
0.0
 22
0.0
 32
0.0
 14
1.0000000000E+20
 24
1.0000000000E+20
 34
1.0000000000E+20
 15
-1.0000000000E+20
 25
-1.0000000000E+20
 35
-1.0000000000E+20
146
0.0
 13
0.0
 23
0.0
 33
0.0
 16
1.0
 26
0.0
 36
0.0
 17
0.0
 27
1.0
 37
0.0
 76
     0
330
1B
  0
LAYOUT
  5
26
102
{ACAD_REACTORS
330
1A
102
}
330
1A
100
AcDbPlotSettings
  1

  2
none_device
  4

  6

 40
0.0
 41
0.0
 42
0.0
 43
0.0
 44
0.0
 45
0.0
 46
0.0
 47
0.0
 48
0.0
 49
0.0
140
0.0
141
0.0
142
1.0
143
1.0
 70
   688
 72
     0
 73
     0
 74
     5
  7

 75
    16
147
1.0
148
0.0
149
0.0
100
AcDbLayout
  1
Layout2
 70
     1
 71
     2
 10
0.0
 20
0.0
 11
0.0
 21
0.0
 12
0.0
 22
0.0
 32
0.0
 14
0.0
 24
0.0
 34
0.0
 15
0.0
 25
0.0
 35
0.0
146
0.0
 13
0.0
 23
0.0
 33
0.0
 16
1.0
 26
0.0
 36
0.0
 17
0.0
 27
1.0
 37
0.0
 76
     0
330
23
  0
LAYOUT
  5
22
102
{ACAD_REACTORS
330
1A
102
}
330
1A
100
AcDbPlotSettings
  1

  2
none_device
  4
ANSI_A_(11.00_x_8.50_Inches)
  6

 40
6.35
 41
19.05
 42
6.35000508
 43
19.05000254
 44
279.4
 45
215.9
 46
258.2773738929
 47
8.2748418351
 48
0.0
 49
0.0
140
0.0
141
0.0
142
0.3367621838
143
1.0
 70
  1696
 72
     0
 73
     0
 74
     0
  7

 75
     0
147
0.5913241897
148
-39.4088153714
149
0.0
100
AcDbLayout
  1
Model
 70
     1
 71
     0
 10
0.0
 20
0.0
 11
12.0
 21
9.0
 12
0.0
 22
0.0
 32
0.0
 14
-30.7736472339
 24
1.0
 34
0.0
 15
1.5637128464
 25
17.8513967885
 35
0.0
146
0.0
 13
0.0
 23
0.0
 33
0.0
 16
1.0
 26
0.0
 36
0.0
 17
0.0
 27
1.0
 37
0.0
 76
     0
330
1F
331
29
  0
MLINESTYLE
  5
18
102
{ACAD_REACTORS
330
17
102
}
330
17
100
AcDbMlineStyle
  2
Standard
 70
     0
  3

 62
   256
 51
90.0
 52
90.0
 71
     2
 49
0.5
 62
   256
  6
BYLAYER
 49
-0.5
 62
   256
  6
BYLAYER
  0
ACDBPLACEHOLDER
  5
F
102
{ACAD_REACTORS
330
E
102
}
330
E
  0
SCALE
  5
48
102
{ACAD_REACTORS
330
47
102
}
330
47
100
AcDbScale
 70
     0
300
1:1
140
1.0
141
1.0
290
     1
  0
SCALE
  5
49
102
{ACAD_REACTORS
330
47
102
}
330
47
100
AcDbScale
 70
     0
300
1:2
140
1.0
141
2.0
290
     0
  0
SCALE
  5
4A
102
{ACAD_REACTORS
330
47
102
}
330
47
100
AcDbScale
 70
     0
300
1:4
140
1.0
141
4.0
290
     0
  0
SCALE
  5
4B
102
{ACAD_REACTORS
330
47
102
}
330
47
100
AcDbScale
 70
     0
300
1:5
140
1.0
141
5.0
290
     0
  0
SCALE
  5
4C
102
{ACAD_REACTORS
330
47
102
}
330
47
100
AcDbScale
 70
     0
300
1:8
140
1.0
141
8.0
290
     0
  0
SCALE
  5
4D
102
{ACAD_REACTORS
330
47
102
}
330
47
100
AcDbScale
 70
     0
300
1:10
140
1.0
141
10.0
290
     0
  0
SCALE
  5
4E
102
{ACAD_REACTORS
330
47
102
}
330
47
100
AcDbScale
 70
     0
300
1:16
140
1.0
141
16.0
290
     0
  0
SCALE
  5
4F
102
{ACAD_REACTORS
330
47
102
}
330
47
100
AcDbScale
 70
     0
300
1:20
140
1.0
141
20.0
290
     0
  0
SCALE
  5
50
102
{ACAD_REACTORS
330
47
102
}
330
47
100
AcDbScale
 70
     0
300
1:30
140
1.0
141
30.0
290
     0
  0
SCALE
  5
51
102
{ACAD_REACTORS
330
47
102
}
330
47
100
AcDbScale
 70
     0
300
1:40
140
1.0
141
40.0
290
     0
  0
SCALE
  5
52
102
{ACAD_REACTORS
330
47
102
}
330
47
100
AcDbScale
 70
     0
300
1:50
140
1.0
141
50.0
290
     0
  0
SCALE
  5
53
102
{ACAD_REACTORS
330
47
102
}
330
47
100
AcDbScale
 70
     0
300
1:100
140
1.0
141
100.0
290
     0
  0
SCALE
  5
54
102
{ACAD_REACTORS
330
47
102
}
330
47
100
AcDbScale
 70
     0
300
2:1
140
2.0
141
1.0
290
     0
  0
SCALE
  5
55
102
{ACAD_REACTORS
330
47
102
}
330
47
100
AcDbScale
 70
     0
300
4:1
140
4.0
141
1.0
290
     0
  0
SCALE
  5
56
102
{ACAD_REACTORS
330
47
102
}
330
47
100
AcDbScale
 70
     0
300
8:1
140
8.0
141
1.0
290
     0
  0
SCALE
  5
57
102
{ACAD_REACTORS
330
47
102
}
330
47
100
AcDbScale
 70
     0
300
10:1
140
10.0
141
1.0
290
     0
  0
SCALE
  5
58
102
{ACAD_REACTORS
330
47
102
}
330
47
100
AcDbScale
 70
     0
300
100:1
140
100.0
141
1.0
290
     0
  0
SCALE
  5
59
102
{ACAD_REACTORS
330
47
102
}
330
47
100
AcDbScale
 70
     0
300
1/128" = 1'-0"
140
0.0078125
141
12.0
290
     0
  0
SCALE
  5
5A
102
{ACAD_REACTORS
330
47
102
}
330
47
100
AcDbScale
 70
     0
300
1/64" = 1'-0"
140
0.015625
141
12.0
290
     0
  0
SCALE
  5
5B
102
{ACAD_REACTORS
330
47
102
}
330
47
100
AcDbScale
 70
     0
300
1/32" = 1'-0"
140
0.03125
141
12.0
290
     0
  0
SCALE
  5
5C
102
{ACAD_REACTORS
330
47
102
}
330
47
100
AcDbScale
 70
     0
300
1/16" = 1'-0"
140
0.0625
141
12.0
290
     0
  0
SCALE
  5
5D
102
{ACAD_REACTORS
330
47
102
}
330
47
100
AcDbScale
 70
     0
300
3/32" = 1'-0"
140
0.09375
141
12.0
290
     0
  0
SCALE
  5
5E
102
{ACAD_REACTORS
330
47
102
}
330
47
100
AcDbScale
 70
     0
300
1/8" = 1'-0"
140
0.125
141
12.0
290
     0
  0
SCALE
  5
5F
102
{ACAD_REACTORS
330
47
102
}
330
47
100
AcDbScale
 70
     0
300
3/16" = 1'-0"
140
0.1875
141
12.0
290
     0
  0
SCALE
  5
60
102
{ACAD_REACTORS
330
47
102
}
330
47
100
AcDbScale
 70
     0
300
1/4" = 1'-0"
140
0.25
141
12.0
290
     0
  0
SCALE
  5
61
102
{ACAD_REACTORS
330
47
102
}
330
47
100
AcDbScale
 70
     0
300
3/8" = 1'-0"
140
0.375
141
12.0
290
     0
  0
SCALE
  5
62
102
{ACAD_REACTORS
330
47
102
}
330
47
100
AcDbScale
 70
     0
300
1/2" = 1'-0"
140
0.5
141
12.0
290
     0
  0
SCALE
  5
63
102
{ACAD_REACTORS
330
47
102
}
330
47
100
AcDbScale
 70
     0
300
3/4" = 1'-0"
140
0.75
141
12.0
290
     0
  0
SCALE
  5
64
102
{ACAD_REACTORS
330
47
102
}
330
47
100
AcDbScale
 70
     0
300
1" = 1'-0"
140
1.0
141
12.0
290
     0
  0
SCALE
  5
65
102
{ACAD_REACTORS
330
47
102
}
330
47
100
AcDbScale
 70
     0
300
1-1/2" = 1'-0"
140
1.5
141
12.0
290
     0
  0
SCALE
  5
66
102
{ACAD_REACTORS
330
47
102
}
330
47
100
AcDbScale
 70
     0
300
3" = 1'-0"
140
3.0
141
12.0
290
     0
  0
SCALE
  5
67
102
{ACAD_REACTORS
330
47
102
}
330
47
100
AcDbScale
 70
     0
300
6" = 1'-0"
140
6.0
141
12.0
290
     0
  0
SCALE
  5
68
102
{ACAD_REACTORS
330
47
102
}
330
47
100
AcDbScale
 70
     0
300
1'-0" = 1'-0"
140
12.0
141
12.0
290
     0
  0
ENDSEC
  0
EOF
